<?xml version="1.0" standalone="no"?>
<!DOCTYPE svg PUBLIC "-//W3C//DTD SVG 1.1//EN" "http://www.w3.org/Graphics/SVG/1.1/DTD/svg11.dtd">
<svg width="100%" height="100%" viewBox="0 0 1440 400" version="1.1" xmlns="http://www.w3.org/2000/svg" xmlns:xlink="http://www.w3.org/1999/xlink" xml:space="preserve" style="fill-rule:evenodd;clip-rule:evenodd;stroke-linecap:round;stroke-linejoin:round;stroke-miterlimit:1.41421;">
    <g transform="matrix(1,0,0,1,-18.956,-11.767)">
        <g id="town">
            <path d="M292.157,310.227C292.157,310.227 368.683,287.187 409.306,289.173C409.886,289.201 410.457,289.286 411.024,289.273C457.616,288.222 523.946,314.109 557.257,336.16C596.214,361.948 623.609,400 623.609,400L292.157,400L292.157,304.212" style="fill:rgb(98,183,160);"/>
        </g>
    </g>
    <path id="water" d="M363.137,374.19C363.137,374.19 597.311,369.767 580.88,357.713C580.067,357.117 555.487,337.648 555.487,337.648L991.366,337.648L1002.95,400L368.618,400" style="fill:rgb(91,118,159);"/>
    <g id="bridge">
        <g id="right leg" transform="matrix(1,0,0,1,257.589,33.8774)">
            <g id="pole" transform="matrix(0.641427,0,0,1.0402,218.564,-19.7074)">
                <g transform="matrix(0.620754,0,0,1.02045,204.285,-15.9594)">
                    <rect x="551.531" y="191.176" width="22.17" height="208.824" style="fill:rgb(191,109,91);"/>
                </g>
                <g transform="matrix(0.199097,-0.0208145,0,1.02045,450.604,-4.49657)">
                    <rect x="551.531" y="191.176" width="22.17" height="208.824" style="fill:rgb(147,79,65);"/>
                </g>
                <g transform="matrix(1,0,-9.22568,1,1652.57,0)">
                    <rect x="546.65" y="178.649" width="13.762" height="0.478" style="fill:rgb(170,65,43);"/>
                </g>
            </g>
            <g id="connection" transform="matrix(1,0,0,1.73093,1.02111,-123.404)">
                <g transform="matrix(0.888792,-0.0897415,-1.39953e-05,0.0167781,65.1702,216.682)">
                    <rect x="551.531" y="191.176" width="22.17" height="208.824" style="fill:rgb(147,79,65);"/>
                </g>
                <g transform="matrix(1.32244,1.73235e-18,-5.62486,0.567859,776.159,73.7876)">
                    <rect x="553.868" y="166.62" width="2.776" height="3.504" style="fill:rgb(175,72,50);"/>
                </g>
            </g>
            <g id="connection1" transform="matrix(1,0,0,1.73093,1.02111,-101.005)">
                <g transform="matrix(0.888792,-0.0897415,-1.39953e-05,0.0167781,65.1702,216.682)">
                    <rect x="551.531" y="191.176" width="22.17" height="208.824" style="fill:rgb(147,79,65);"/>
                </g>
                <g transform="matrix(1.32244,1.73235e-18,-5.62486,0.567859,776.159,73.7876)">
                    <rect x="553.868" y="166.62" width="2.776" height="3.504" style="fill:rgb(175,72,50);"/>
                </g>
            </g>
            <g id="connection2" transform="matrix(1,0,0,1.73093,1.02111,-70.7448)">
                <g transform="matrix(0.888792,-0.0897415,-1.39953e-05,0.0167781,65.1702,216.682)">
                    <rect x="551.531" y="191.176" width="22.17" height="208.824" style="fill:rgb(147,79,65);"/>
                </g>
                <g transform="matrix(1.32244,1.73235e-18,-5.62486,0.567859,776.159,73.7876)">
                    <rect x="553.868" y="166.62" width="2.776" height="3.504" style="fill:rgb(175,72,50);"/>
                </g>
            </g>
            <g id="connection3" transform="matrix(1,0,0,1.73093,1.02111,-32.6819)">
                <g transform="matrix(0.888792,-0.0897415,-1.39953e-05,0.0167781,65.1702,216.682)">
                    <rect x="551.531" y="191.176" width="22.17" height="208.824" style="fill:rgb(147,79,65);"/>
                </g>
                <g transform="matrix(1.32244,1.73235e-18,-5.62486,0.567859,776.159,73.7876)">
                    <rect x="553.868" y="166.62" width="2.776" height="3.504" style="fill:rgb(175,72,50);"/>
                </g>
            </g>
        </g>
        <g id="left leg" transform="matrix(1,0,0,1,-51.657,33.8774)">
            <g id="pole1" transform="matrix(0.641427,0,0,1.0402,218.564,-19.7074)">
                <g transform="matrix(0.620754,0,0,1.02045,204.285,-15.9594)">
                    <rect x="551.531" y="191.176" width="22.17" height="208.824" style="fill:rgb(191,109,91);"/>
                </g>
                <g transform="matrix(0.199097,-0.0208145,0,1.02045,450.604,-4.49657)">
                    <rect x="551.531" y="191.176" width="22.17" height="208.824" style="fill:rgb(147,79,65);"/>
                </g>
                <g transform="matrix(1,0,-9.22568,1,1652.57,0)">
                    <rect x="546.65" y="178.649" width="13.762" height="0.478" style="fill:rgb(170,65,43);"/>
                </g>
            </g>
            <g id="connection4" transform="matrix(1,0,0,1.73093,1.02111,-123.404)">
                <g transform="matrix(0.888792,-0.0897415,-1.39953e-05,0.0167781,65.1702,216.682)">
                    <rect x="551.531" y="191.176" width="22.17" height="208.824" style="fill:rgb(147,79,65);"/>
                </g>
                <g transform="matrix(1.32244,1.73235e-18,-5.62486,0.567859,776.159,73.7876)">
                    <rect x="553.868" y="166.62" width="2.776" height="3.504" style="fill:rgb(175,72,50);"/>
                </g>
            </g>
            <g id="connection5" transform="matrix(1,0,0,1.73093,1.02111,-101.005)">
                <g transform="matrix(0.888792,-0.0897415,-1.39953e-05,0.0167781,65.1702,216.682)">
                    <rect x="551.531" y="191.176" width="22.17" height="208.824" style="fill:rgb(147,79,65);"/>
                </g>
                <g transform="matrix(1.32244,1.73235e-18,-5.62486,0.567859,776.159,73.7876)">
                    <rect x="553.868" y="166.62" width="2.776" height="3.504" style="fill:rgb(175,72,50);"/>
                </g>
            </g>
            <g id="connection6" transform="matrix(1,0,0,1.73093,1.02111,-70.7448)">
                <g transform="matrix(0.888792,-0.0897415,-1.39953e-05,0.0167781,65.1702,216.682)">
                    <rect x="551.531" y="191.176" width="22.17" height="208.824" style="fill:rgb(147,79,65);"/>
                </g>
                <g transform="matrix(1.32244,1.73235e-18,-5.62486,0.567859,776.159,73.7876)">
                    <rect x="553.868" y="166.62" width="2.776" height="3.504" style="fill:rgb(175,72,50);"/>
                </g>
            </g>
            <g id="connection7" transform="matrix(1,0,0,1.73093,1.02111,-32.6819)">
                <g transform="matrix(0.888792,-0.0897415,-1.39953e-05,0.0167781,65.1702,216.682)">
                    <rect x="551.531" y="191.176" width="22.17" height="208.824" style="fill:rgb(147,79,65);"/>
                </g>
                <g transform="matrix(1.32244,1.73235e-18,-5.62486,0.567859,776.159,73.7876)">
                    <rect x="553.868" y="166.62" width="2.776" height="3.504" style="fill:rgb(175,72,50);"/>
                </g>
            </g>
        </g>
        <g id="Layer9" transform="matrix(1,0,0,1,3.91009,15.8195)">
            <g transform="matrix(1.24879,0,0,0.248809,-166.797,271.473)">
                <rect x="377.809" y="281.375" width="614.458" height="11.556" style="fill:rgb(147,79,65);"/>
            </g>
            <g transform="matrix(1.24879,0,0,0.642515,-169.985,153.269)">
                <rect x="377.809" y="281.375" width="614.458" height="11.556" style="fill:rgb(191,109,91);"/>
            </g>
            <g transform="matrix(1.24879,0,0,0.317639,-169.985,241.01)">
                <rect x="377.809" y="281.375" width="614.458" height="11.556" style="fill:rgb(147,79,65);"/>
            </g>
            <g transform="matrix(1.24879,0,0,0.331339,-166.797,238.911)">
                <rect x="377.809" y="281.375" width="614.458" height="11.556" style="fill:rgb(133,133,133);"/>
            </g>
        </g>
        <g id="middle">
            <g id="Layer10">
                <g transform="matrix(1.05302,0,0,0.83706,-26.8617,57.4474)">
                    <path d="M528.885,211.478L528.885,352.568" style="fill:rgb(147,79,65);"/>
                    <path d="M529.179,210.342L529.36,210.444L529.521,210.59L529.654,210.776L529.753,210.992L529.814,211.23L529.835,211.478L529.835,352.568L529.814,352.817L529.753,353.054L529.654,353.271L529.521,353.456L529.36,353.603L529.179,353.705L528.985,353.757L528.786,353.757L528.592,353.705L528.41,353.603L528.25,353.456L528.117,353.271L528.018,353.054L527.956,352.817L527.936,352.568L527.936,211.478L527.956,211.23L528.018,210.992L528.117,210.776L528.25,210.59L528.41,210.444L528.592,210.342L528.786,210.29L528.985,210.29L529.179,210.342Z" style="fill:rgb(147,79,65);"/>
                </g>
                <g transform="matrix(1.05302,0,0,0.850486,-3.44943,52.714)">
                    <path d="M528.885,211.478L528.885,352.568" style="fill:rgb(147,79,65);"/>
                    <path d="M529.179,210.36L529.36,210.46L529.521,210.604L529.654,210.787L529.753,211L529.814,211.234L529.835,211.478L529.835,352.568L529.814,352.813L529.753,353.047L529.654,353.26L529.521,353.442L529.36,353.587L529.179,353.687L528.985,353.738L528.786,353.738L528.592,353.687L528.41,353.587L528.25,353.442L528.117,353.26L528.018,353.047L527.956,352.813L527.936,352.568L527.936,211.478L527.956,211.234L528.018,211L528.117,210.787L528.25,210.604L528.41,210.46L528.592,210.36L528.786,210.309L528.985,210.309L529.179,210.36Z" style="fill:rgb(147,79,65);"/>
                </g>
                <g transform="matrix(1.05302,0,0,0.698746,19.9952,106.213)">
                    <path d="M528.885,211.478L528.885,352.568" style="fill:rgb(147,79,65);"/>
                    <path d="M529.071,210.075L529.249,210.156L529.413,210.288L529.557,210.466L529.675,210.683L529.763,210.93L529.817,211.199L529.835,211.478L529.835,352.568L529.817,352.848L529.763,353.116L529.675,353.364L529.557,353.58L529.413,353.758L529.249,353.891L529.071,353.972L528.885,354L528.7,353.972L528.522,353.891L528.358,353.758L528.214,353.58L528.096,353.364L528.008,353.116L527.954,352.848L527.936,352.568L527.936,211.478L527.954,211.199L528.008,210.93L528.096,210.683L528.214,210.466L528.358,210.288L528.522,210.156L528.7,210.075L528.885,210.047L529.071,210.075Z" style="fill:rgb(147,79,65);"/>
                </g>
                <g transform="matrix(1.05302,0,0,0.5815,43.515,147.55)">
                    <path d="M528.885,211.478L528.885,352.568" style="fill:rgb(147,79,65);"/>
                    <path d="M529.05,209.785L529.21,209.862L529.36,209.989L529.496,210.161L529.613,210.373L529.708,210.618L529.778,210.89L529.82,211.18L529.835,211.478L529.835,352.568L529.82,352.867L529.778,353.157L529.708,353.428L529.613,353.674L529.496,353.886L529.36,354.058L529.21,354.184L529.05,354.262L528.885,354.288L528.72,354.262L528.56,354.184L528.41,354.058L528.275,353.886L528.158,353.674L528.063,353.428L527.993,353.157L527.95,352.867L527.936,352.568L527.936,211.478L527.95,211.18L527.993,210.89L528.063,210.618L528.158,210.373L528.275,210.161L528.41,209.989L528.56,209.862L528.72,209.785L528.885,209.758L529.05,209.785Z" style="fill:rgb(147,79,65);"/>
                </g>
                <g transform="matrix(1.05302,0,0,0.487992,67.0173,180.518)">
                    <path d="M528.885,211.478L528.885,352.568" style="fill:rgb(147,79,65);"/>
                    <path d="M529.118,209.492L529.267,209.602L529.405,209.763L529.528,209.971L529.635,210.22L529.72,210.503L529.783,210.813L529.822,211.141L529.835,211.478L529.835,352.568L529.822,352.906L529.783,353.234L529.72,353.544L529.635,353.827L529.528,354.076L529.405,354.284L529.267,354.445L529.118,354.555L528.964,354.611L528.807,354.611L528.652,354.555L528.504,354.445L528.366,354.284L528.242,354.076L528.136,353.827L528.05,353.544L527.987,353.234L527.949,352.906L527.936,352.568L527.936,211.478L527.949,211.141L527.987,210.813L528.05,210.503L528.136,210.22L528.242,209.971L528.366,209.763L528.504,209.602L528.652,209.492L528.807,209.436L528.964,209.436L529.118,209.492Z" style="fill:rgb(147,79,65);"/>
                </g>
                <g transform="matrix(1.05302,0,0,0.431566,90.4483,200.412)">
                    <path d="M528.885,211.478L528.885,352.568" style="fill:rgb(147,79,65);"/>
                    <path d="M529.097,209.219L529.232,209.321L529.36,209.471L529.477,209.667L529.581,209.902L529.67,210.173L529.741,210.473L529.793,210.795L529.824,211.133L529.835,211.478L529.835,352.568L529.824,352.914L529.793,353.251L529.741,353.574L529.67,353.874L529.581,354.145L529.477,354.38L529.36,354.575L529.232,354.725L529.097,354.827L528.956,354.879L528.814,354.879L528.674,354.827L528.538,354.725L528.41,354.575L528.293,354.38L528.189,354.145L528.101,353.874L528.03,353.574L527.978,353.251L527.946,352.914L527.936,352.568L527.936,211.478L527.946,211.133L527.978,210.795L528.03,210.473L528.101,210.173L528.189,209.902L528.293,209.667L528.41,209.471L528.538,209.321L528.674,209.219L528.814,209.167L528.956,209.167L529.097,209.219Z" style="fill:rgb(147,79,65);"/>
                </g>
                <g transform="matrix(1.05302,0,0,0.393211,114.197,213.935)">
                    <path d="M528.885,211.478L528.885,352.568" style="fill:rgb(147,79,65);"/>
                    <path d="M529.02,208.961L529.153,209.038L529.28,209.165L529.399,209.339L529.507,209.556L529.603,209.813L529.684,210.103L529.749,210.422L529.796,210.762L529.825,211.116L529.835,211.478L529.835,352.568L529.825,352.93L529.796,353.285L529.749,353.625L529.684,353.943L529.603,354.234L529.507,354.49L529.399,354.708L529.28,354.882L529.153,355.009L529.02,355.086L528.885,355.112L528.75,355.086L528.618,355.009L528.491,354.882L528.372,354.708L528.263,354.49L528.168,354.234L528.086,353.943L528.021,353.625L527.974,353.285L527.945,352.93L527.936,352.568L527.936,211.478L527.945,211.116L527.974,210.762L528.021,210.422L528.086,210.103L528.168,209.813L528.263,209.556L528.372,209.339L528.491,209.165L528.618,209.038L528.75,208.961L528.885,208.935L529.02,208.961Z" style="fill:rgb(147,79,65);"/>
                </g>
                <g transform="matrix(1.05302,0,0,0.433684,137.858,199.665)">
                    <path d="M528.885,211.478L528.885,352.568" style="fill:rgb(147,79,65);"/>
                    <path d="M529.097,209.23L529.232,209.332L529.36,209.481L529.477,209.675L529.581,209.91L529.67,210.179L529.741,210.478L529.793,210.798L529.824,211.134L529.835,211.478L529.835,352.568L529.824,352.912L529.793,353.248L529.741,353.569L529.67,353.867L529.581,354.137L529.477,354.371L529.36,354.565L529.232,354.715L529.097,354.816L528.956,354.868L528.814,354.868L528.674,354.816L528.538,354.715L528.41,354.565L528.293,354.371L528.189,354.137L528.101,353.867L528.03,353.569L527.978,353.248L527.946,352.912L527.936,352.568L527.936,211.478L527.946,211.134L527.978,210.798L528.03,210.478L528.101,210.179L528.189,209.91L528.293,209.675L528.41,209.481L528.538,209.332L528.674,209.23L528.814,209.179L528.956,209.179L529.097,209.23Z" style="fill:rgb(147,79,65);"/>
                </g>
                <g transform="matrix(1.05302,0,0,0.493041,161.301,178.738)">
                    <path d="M528.885,211.478L528.885,352.568" style="fill:rgb(147,79,65);"/>
                    <path d="M529.118,209.512L529.267,209.621L529.405,209.78L529.528,209.986L529.635,210.232L529.72,210.513L529.783,210.82L529.822,211.144L529.835,211.478L529.835,352.568L529.822,352.902L529.783,353.227L529.72,353.534L529.635,353.814L529.528,354.061L529.405,354.266L529.267,354.426L529.118,354.535L528.964,354.59L528.807,354.59L528.652,354.535L528.504,354.426L528.366,354.266L528.242,354.061L528.136,353.814L528.05,353.534L527.987,353.227L527.949,352.902L527.936,352.568L527.936,211.478L527.949,211.144L527.987,210.82L528.05,210.513L528.136,210.232L528.242,209.986L528.366,209.78L528.504,209.621L528.652,209.512L528.807,209.457L528.964,209.457L529.118,209.512Z" style="fill:rgb(147,79,65);"/>
                </g>
                <g transform="matrix(1.05302,0,0,0.5815,184.359,147.55)">
                    <path d="M528.885,211.478L528.885,352.568" style="fill:rgb(147,79,65);"/>
                    <path d="M529.05,209.785L529.21,209.862L529.36,209.989L529.496,210.161L529.613,210.373L529.708,210.618L529.778,210.89L529.82,211.18L529.835,211.478L529.835,352.568L529.82,352.867L529.778,353.157L529.708,353.428L529.613,353.674L529.496,353.886L529.36,354.058L529.21,354.184L529.05,354.262L528.885,354.288L528.72,354.262L528.56,354.184L528.41,354.058L528.275,353.886L528.158,353.674L528.063,353.428L527.993,353.157L527.95,352.867L527.936,352.568L527.936,211.478L527.95,211.18L527.993,210.89L528.063,210.618L528.158,210.373L528.275,210.161L528.41,209.989L528.56,209.862L528.72,209.785L528.885,209.758L529.05,209.785Z" style="fill:rgb(147,79,65);"/>
                </g>
                <g transform="matrix(1.05302,0,0,0.677932,207.746,111.58)">
                    <path d="M528.885,211.478L528.885,355.475" style="fill:rgb(147,79,65);"/>
                    <path d="M529.071,210.031L529.249,210.115L529.413,210.252L529.557,210.435L529.675,210.659L529.763,210.914L529.817,211.19L529.835,211.478L529.835,355.475L529.817,355.763L529.763,356.039L529.675,356.294L529.557,356.518L529.413,356.701L529.249,356.838L529.071,356.922L528.885,356.95L528.7,356.922L528.522,356.838L528.358,356.701L528.214,356.518L528.096,356.294L528.008,356.039L527.954,355.763L527.936,355.475L527.936,211.478L527.954,211.19L528.008,210.914L528.096,210.659L528.214,210.435L528.358,210.252L528.522,210.115L528.7,210.031L528.885,210.003L529.071,210.031Z" style="fill:rgb(147,79,65);"/>
                </g>
                <g transform="matrix(1.05302,0,0,0.84429,231.315,55.9185)">
                    <path d="M529.179,210.352L529.36,210.452L529.521,210.598L529.654,210.782L529.753,210.996L529.814,211.232L529.835,211.478L529.835,351.36L529.814,351.607L529.753,351.842L529.654,352.057L529.521,352.241L529.36,352.386L529.179,352.487L528.985,352.538L528.786,352.538L528.592,352.487L528.41,352.386L528.25,352.241L528.117,352.057L528.018,351.842L527.956,351.607L527.936,351.36L527.936,211.478L527.956,211.232L528.018,210.996L528.117,210.782L528.25,210.598L528.41,210.452L528.592,210.352L528.786,210.3L528.985,210.3L529.179,210.352Z" style="fill:rgb(147,53,35);"/>
                </g>
            </g>
            <g transform="matrix(1,0,0,1,22.1606,0.028009)">
                <path d="M505.869,203.942C607.369,325.711 704.659,324.99 808.091,205.79" style="fill:none;stroke-width:4px;stroke:rgb(147,79,65);"/>
            </g>
            <g transform="matrix(1,0,0,1,-1.14352,2.78241)">
                <path d="M505.869,203.942C607.369,325.711 712.466,323.142 815.898,203.942" style="fill:none;stroke-width:4px;stroke:rgb(147,79,65);"/>
            </g>
        </g>
        <g id="left">
            <g id="Layer101" transform="matrix(1,0,0,1,-312.517,0)">
                <g transform="matrix(1.05302,0,0,0.393211,90.4483,213.935)">
                    <path d="M529,253.103L529.113,253.158L529.222,253.25L529.327,253.376L529.425,253.535L529.515,253.724L529.596,253.941L529.667,254.183L529.726,254.446L529.773,254.726L529.807,255.019L529.828,255.321L529.835,255.628L529.835,352.568L529.828,352.875L529.807,353.177L529.773,353.47L529.726,353.75L529.667,354.013L529.596,354.255L529.515,354.472L529.425,354.661L529.327,354.82L529.222,354.946L529.113,355.038L529,355.093L528.885,355.112L528.771,355.093L528.658,355.038L528.549,354.946L528.444,354.82L528.346,354.661L528.256,354.472L528.174,354.255L528.104,354.013L528.044,353.75L527.997,353.47L527.963,353.177L527.943,352.875L527.936,352.568L527.936,255.628L527.943,255.321L527.963,255.019L527.997,254.726L528.044,254.446L528.104,254.183L528.174,253.941L528.256,253.724L528.346,253.535L528.444,253.376L528.549,253.25L528.658,253.158L528.771,253.103L528.885,253.084L529,253.103Z" style="fill:rgb(147,79,65);"/>
                </g>
                <g transform="matrix(1.05302,0,0,0.393211,114.197,213.935)">
                    <path d="M529.063,244.124L529.179,244.204L529.29,244.321L529.394,244.475L529.491,244.663L529.578,244.882L529.654,245.128L529.717,245.397L529.768,245.686L529.805,245.99L529.827,246.304L529.835,246.623L529.835,352.568L529.827,352.887L529.805,353.201L529.768,353.505L529.717,353.794L529.654,354.063L529.578,354.309L529.491,354.528L529.394,354.716L529.29,354.87L529.179,354.987L529.063,355.067L528.945,355.107L528.826,355.107L528.707,355.067L528.592,354.987L528.481,354.87L528.376,354.716L528.28,354.528L528.193,354.309L528.117,354.063L528.053,353.794L528.002,353.505L527.965,353.201L527.943,352.887L527.936,352.568L527.936,246.623L527.943,246.304L527.965,245.99L528.002,245.686L528.053,245.397L528.117,245.128L528.193,244.882L528.28,244.663L528.376,244.475L528.481,244.321L528.592,244.204L528.707,244.124L528.826,244.084L528.945,244.084L529.063,244.124Z" style="fill:rgb(147,79,65);"/>
                </g>
                <g transform="matrix(1.05302,0,0,0.433684,137.858,199.665)">
                    <path d="M529.078,240.414L529.203,240.499L529.322,240.625L529.433,240.788L529.533,240.987L529.622,241.217L529.697,241.474L529.756,241.753L529.8,242.05L529.826,242.358L529.835,242.672L529.835,352.569L529.826,352.882L529.8,353.191L529.756,353.487L529.697,353.767L529.622,354.024L529.533,354.254L529.433,354.452L529.322,354.616L529.203,354.741L529.078,354.826L528.95,354.869L528.82,354.869L528.692,354.826L528.567,354.741L528.448,354.616L528.338,354.452L528.237,354.254L528.149,354.024L528.074,353.767L528.014,353.487L527.971,353.191L527.944,352.882L527.936,352.569L527.936,242.672L527.944,242.358L527.971,242.05L528.014,241.753L528.074,241.474L528.149,241.217L528.237,240.987L528.338,240.788L528.448,240.625L528.567,240.499L528.692,240.414L528.82,240.372L528.95,240.372L529.078,240.414Z" style="fill:rgb(147,79,65);"/>
                </g>
                <g transform="matrix(1.05302,0,0,0.493041,161.301,178.738)">
                    <path d="M529.02,238.48L529.153,238.541L529.28,238.642L529.399,238.781L529.507,238.954L529.603,239.159L529.684,239.391L529.749,239.645L529.796,239.916L529.825,240.198L529.835,240.487L529.835,352.568L529.825,352.857L529.796,353.14L529.749,353.411L529.684,353.665L529.603,353.897L529.507,354.101L529.399,354.275L529.28,354.413L529.153,354.515L529.02,354.576L528.885,354.597L528.75,354.576L528.618,354.515L528.491,354.413L528.372,354.275L528.263,354.101L528.168,353.897L528.086,353.665L528.021,353.411L527.974,353.14L527.945,352.857L527.936,352.568L527.936,240.487L527.945,240.198L527.974,239.916L528.021,239.645L528.086,239.391L528.168,239.159L528.263,238.954L528.372,238.781L528.491,238.642L528.618,238.541L528.75,238.48L528.885,238.459L529.02,238.48Z" style="fill:rgb(147,79,65);"/>
                </g>
                <g transform="matrix(1.05302,0,0,0.5815,184.359,147.55)">
                    <path d="M529.034,235.999L529.179,236.062L529.316,236.165L529.443,236.306L529.557,236.481L529.654,236.686L529.731,236.917L529.788,237.166L529.823,237.428L529.835,237.697L529.835,352.568L529.823,352.837L529.788,353.1L529.731,353.349L529.654,353.579L529.557,353.784L529.443,353.96L529.316,354.101L529.179,354.204L529.034,354.267L528.885,354.288L528.737,354.267L528.592,354.204L528.454,354.101L528.327,353.96L528.214,353.784L528.117,353.579L528.039,353.349L527.982,353.1L527.947,352.837L527.936,352.568L527.936,237.697L527.947,237.428L527.982,237.166L528.039,236.917L528.117,236.686L528.214,236.481L528.327,236.306L528.454,236.165L528.592,236.062L528.737,235.999L528.885,235.978L529.034,235.999Z" style="fill:rgb(147,79,65);"/>
                </g>
                <g transform="matrix(1.05302,0,0,0.690394,207.746,109.157)">
                    <path d="M529.05,228.292L529.21,228.358L529.36,228.464L529.496,228.609L529.613,228.788L529.708,228.994L529.778,229.223L529.82,229.467L529.835,229.719L529.835,352.568L529.82,352.82L529.778,353.064L529.708,353.293L529.613,353.5L529.496,353.678L529.36,353.823L529.21,353.93L529.05,353.995L528.885,354.017L528.72,353.995L528.56,353.93L528.41,353.823L528.275,353.678L528.158,353.5L528.063,353.293L527.993,353.064L527.95,352.82L527.936,352.568L527.936,229.719L527.95,229.467L527.993,229.223L528.063,228.994L528.158,228.788L528.275,228.609L528.41,228.464L528.56,228.358L528.72,228.292L528.885,228.27L529.05,228.292Z" style="fill:rgb(147,79,65);"/>
                </g>
                <g transform="matrix(1.05302,0,0,0.832566,231.315,58.2335)">
                    <path d="M529.071,221.236L529.249,221.304L529.413,221.415L529.557,221.565L529.675,221.747L529.763,221.954L529.817,222.18L529.835,222.414L529.835,352.568L529.817,352.803L529.763,353.028L529.675,353.236L529.557,353.418L529.413,353.567L529.249,353.678L529.071,353.746L528.885,353.77L528.7,353.746L528.522,353.678L528.358,353.567L528.214,353.418L528.096,353.236L528.008,353.028L527.954,352.803L527.936,352.568L527.936,222.414L527.954,222.18L528.008,221.954L528.096,221.747L528.214,221.565L528.358,221.415L528.522,221.304L528.7,221.236L528.885,221.213L529.071,221.236Z" style="fill:rgb(147,79,65);"/>
                </g>
            </g>
            <g transform="matrix(1,0,0,1,-313.66,2.78241)">
                <path d="M527.69,312.36C636.986,313.581 741.518,328.792 815.898,203.942" style="fill:none;stroke-width:4px;stroke:rgb(147,79,65);"/>
            </g>
            <g transform="matrix(1,0,0,1,-289.527,-3.94153)">
                <path d="M527.69,312.36C636.986,313.581 733.886,336.424 808.266,211.574" style="fill:none;stroke-width:4px;stroke:rgb(147,79,65);"/>
            </g>
        </g>
        <g id="right" transform="matrix(-1,0,0,1,1335.58,0)">
            <g id="Layer102" transform="matrix(1,0,0,1,-312.517,0)">
                <g transform="matrix(1.05302,0,0,0.393211,90.4483,213.935)">
                    <path d="M528.771,253.103L528.658,253.158L528.548,253.25L528.444,253.376L528.346,253.535L528.256,253.724L528.174,253.941L528.104,254.183L528.044,254.446L527.997,254.726L527.963,255.019L527.943,255.321L527.936,255.628L527.936,352.568L527.943,352.875L527.963,353.177L527.997,353.47L528.044,353.75L528.104,354.013L528.174,354.255L528.256,354.472L528.346,354.661L528.444,354.82L528.548,354.946L528.658,355.038L528.771,355.093L528.885,355.112L529,355.093L529.113,355.038L529.222,354.946L529.327,354.82L529.425,354.661L529.515,354.472L529.596,354.255L529.667,354.013L529.726,353.75L529.773,353.47L529.807,353.177L529.828,352.875L529.835,352.568L529.835,255.628L529.828,255.321L529.807,255.019L529.773,254.726L529.726,254.446L529.667,254.183L529.596,253.941L529.515,253.724L529.425,253.535L529.327,253.376L529.222,253.25L529.113,253.158L529,253.103L528.885,253.084L528.771,253.103Z" style="fill:rgb(147,79,65);"/>
                </g>
                <g transform="matrix(1.05302,0,0,0.393211,114.197,213.935)">
                    <path d="M528.707,244.124L528.592,244.204L528.481,244.321L528.376,244.475L528.28,244.663L528.193,244.882L528.117,245.128L528.053,245.397L528.002,245.686L527.965,245.99L527.943,246.304L527.936,246.623L527.936,352.568L527.943,352.887L527.965,353.201L528.002,353.505L528.053,353.794L528.117,354.063L528.193,354.309L528.28,354.528L528.376,354.716L528.481,354.87L528.592,354.987L528.707,355.067L528.826,355.107L528.945,355.107L529.063,355.067L529.179,354.987L529.29,354.87L529.394,354.716L529.491,354.528L529.578,354.309L529.654,354.063L529.717,353.794L529.768,353.505L529.805,353.201L529.827,352.887L529.835,352.568L529.835,246.623L529.827,246.304L529.805,245.99L529.768,245.686L529.717,245.397L529.654,245.128L529.578,244.882L529.491,244.663L529.394,244.475L529.29,244.321L529.179,244.204L529.063,244.124L528.945,244.084L528.826,244.084L528.707,244.124Z" style="fill:rgb(147,79,65);"/>
                </g>
                <g transform="matrix(1.05302,0,0,0.433684,137.858,199.665)">
                    <path d="M528.692,240.414L528.567,240.499L528.448,240.625L528.338,240.788L528.237,240.987L528.149,241.217L528.074,241.474L528.014,241.753L527.971,242.05L527.944,242.358L527.936,242.672L527.936,352.569L527.944,352.882L527.971,353.191L528.014,353.487L528.074,353.767L528.149,354.024L528.237,354.254L528.338,354.452L528.448,354.616L528.567,354.741L528.692,354.826L528.82,354.869L528.95,354.869L529.078,354.826L529.203,354.741L529.322,354.616L529.433,354.452L529.533,354.254L529.622,354.024L529.697,353.767L529.756,353.487L529.8,353.191L529.826,352.882L529.835,352.569L529.835,242.672L529.826,242.358L529.8,242.05L529.756,241.753L529.697,241.474L529.622,241.217L529.533,240.987L529.433,240.788L529.322,240.625L529.203,240.499L529.078,240.414L528.95,240.372L528.82,240.372L528.692,240.414Z" style="fill:rgb(147,79,65);"/>
                </g>
                <g transform="matrix(1.05302,0,0,0.493041,161.301,178.738)">
                    <path d="M528.75,238.48L528.618,238.541L528.491,238.642L528.372,238.781L528.263,238.954L528.168,239.159L528.086,239.391L528.021,239.645L527.974,239.916L527.945,240.198L527.936,240.487L527.936,352.568L527.945,352.857L527.974,353.14L528.021,353.411L528.086,353.665L528.168,353.897L528.263,354.101L528.372,354.275L528.491,354.413L528.618,354.515L528.75,354.576L528.885,354.597L529.02,354.576L529.153,354.515L529.28,354.413L529.399,354.275L529.507,354.101L529.603,353.897L529.684,353.665L529.749,353.411L529.796,353.14L529.825,352.857L529.835,352.568L529.835,240.487L529.825,240.198L529.796,239.916L529.749,239.645L529.684,239.391L529.603,239.159L529.507,238.954L529.399,238.781L529.28,238.642L529.153,238.541L529.02,238.48L528.885,238.459L528.75,238.48Z" style="fill:rgb(147,79,65);"/>
                </g>
                <g transform="matrix(1.05302,0,0,0.5815,184.359,147.55)">
                    <path d="M528.737,235.999L528.592,236.062L528.454,236.165L528.327,236.306L528.214,236.481L528.117,236.686L528.039,236.917L527.982,237.166L527.947,237.428L527.936,237.697L527.936,352.568L527.947,352.837L527.982,353.1L528.039,353.349L528.117,353.579L528.214,353.784L528.327,353.96L528.454,354.101L528.592,354.204L528.737,354.267L528.885,354.288L529.034,354.267L529.179,354.204L529.316,354.101L529.443,353.96L529.557,353.784L529.654,353.579L529.731,353.349L529.788,353.1L529.823,352.837L529.835,352.568L529.835,237.697L529.823,237.428L529.788,237.166L529.731,236.917L529.654,236.686L529.557,236.481L529.443,236.306L529.316,236.165L529.179,236.062L529.034,235.999L528.885,235.978L528.737,235.999Z" style="fill:rgb(147,79,65);"/>
                </g>
                <g transform="matrix(1.05302,0,0,0.677932,207.746,111.58)">
                    <path d="M528.72,228.266L528.56,228.332L528.41,228.441L528.275,228.589L528.158,228.77L528.063,228.981L527.993,229.214L527.95,229.462L527.936,229.719L527.936,352.568L527.95,352.825L527.993,353.073L528.063,353.306L528.158,353.517L528.275,353.698L528.41,353.846L528.56,353.955L528.72,354.021L528.885,354.044L529.05,354.021L529.21,353.955L529.36,353.846L529.496,353.698L529.613,353.517L529.708,353.306L529.778,353.073L529.821,352.825L529.835,352.568L529.835,229.719L529.821,229.462L529.778,229.214L529.708,228.981L529.613,228.77L529.496,228.589L529.36,228.441L529.21,228.332L529.05,228.266L528.885,228.244L528.72,228.266Z" style="fill:rgb(147,79,65);"/>
                </g>
                <g transform="matrix(1.05302,0,0,0.817538,231.315,61.5759)">
                    <path d="M528.7,221.214L528.522,221.284L528.358,221.397L528.214,221.549L528.096,221.734L528.008,221.946L527.954,222.175L527.936,222.414L527.936,352.568L527.954,352.807L528.008,353.037L528.096,353.248L528.214,353.433L528.358,353.586L528.522,353.699L528.7,353.768L528.885,353.792L529.071,353.768L529.249,353.699L529.413,353.586L529.557,353.433L529.675,353.248L529.763,353.037L529.817,352.807L529.835,352.568L529.835,222.414L529.817,222.175L529.763,221.946L529.675,221.734L529.557,221.549L529.413,221.397L529.249,221.284L529.071,221.214L528.885,221.191L528.7,221.214Z" style="fill:rgb(147,79,65);"/>
                </g>
            </g>
            <g transform="matrix(1,0,0,1,-313.66,2.78241)">
                <path d="M527.69,312.36C636.986,313.581 741.518,328.792 815.898,203.942" style="fill:none;stroke-width:4px;stroke:rgb(147,79,65);"/>
            </g>
            <g transform="matrix(1,0,0,1,-289.527,-3.94153)">
                <path d="M527.69,312.36C636.986,313.581 733.886,336.424 808.266,211.574" style="fill:none;stroke-width:4px;stroke:rgb(147,79,65);"/>
            </g>
        </g>
        <g id="right pole" transform="matrix(0.641427,0,0,1.0402,453.603,18.1115)">
            <g transform="matrix(0.620754,0,0,1.02045,204.285,-15.9764)">
                <rect x="551.531" y="191.176" width="22.17" height="208.824" style="fill:rgb(191,109,91);"/>
            </g>
            <g transform="matrix(0.199097,-0.0208145,0,1.02045,450.604,-4.49657)">
                <rect x="551.531" y="191.176" width="22.17" height="208.824" style="fill:rgb(147,79,65);"/>
            </g>
            <g transform="matrix(1,0,-9.22568,1,1652.57,0)">
                <rect x="546.65" y="178.649" width="13.762" height="0.478" style="fill:rgb(170,65,43);"/>
            </g>
        </g>
        <g id="left pole" transform="matrix(0.641427,0,0,1.0402,144.357,18.1115)">
            <g transform="matrix(0.620754,0,0,1.02045,204.285,-15.9764)">
                <rect x="551.531" y="191.176" width="22.17" height="208.824" style="fill:rgb(191,109,91);"/>
            </g>
            <g transform="matrix(0.199097,-0.0208145,0,1.02045,450.604,-4.49657)">
                <rect x="551.531" y="191.176" width="22.17" height="208.824" style="fill:rgb(147,79,65);"/>
            </g>
            <g transform="matrix(1,0,-9.22568,1,1652.57,0)">
                <rect x="546.65" y="178.649" width="13.762" height="0.478" style="fill:rgb(170,65,43);"/>
            </g>
        </g>
    </g>
    <g id="mountains">
        <g id="simple mountain" transform="matrix(1,0,0,1,61.1308,-24.831)">
            <path d="M0,274.801L69.189,175.152L208.71,400L0,400L0,274.801Z" style="fill:rgb(115,180,180);"/>
            <g transform="matrix(1.5591,0,0,1.5591,-38.6132,-97.9273)">
                <path d="M47.661,205.99L69.189,175.152L100.074,224.867L95.109,227.561L76.508,213.657L69.603,220.996L61.908,210.011L52.233,223.93L47.661,205.99Z" style="fill:rgb(212,253,255);"/>
            </g>
        </g>
        <g id="simple mountain1">
            <path d="M0,274.801L69.189,175.152L208.71,400L0,400L0,274.801Z" style="fill:rgb(77,170,154);"/>
            <g transform="matrix(1.5591,0,0,1.5591,-38.6132,-97.9273)">
                <path d="M25.731,237.243L69.189,175.152L105.647,233.971L84.683,216.222L62.083,237.243L60.316,222.597L53.733,225.754L44.651,220.391L25.731,237.243Z" style="fill:rgb(212,253,255);"/>
            </g>
        </g>
        <g id="simple mountain2" transform="matrix(1,0,0,1,191.93,0)">
            <g transform="matrix(1,0,0,1,-7.52863,16.0242)">
                <path d="M-87.575,400L69.189,175.152L208.71,400L0,400L-87.575,400Z" style="fill:rgb(49,156,120);"/>
            </g>
            <g transform="matrix(1.5591,0,0,1.5591,-46.1418,-81.9032)">
                <path d="M25.731,237.243L69.189,175.152L105.647,233.971L81.691,216.772L72.462,243.663C72.462,243.663 60.051,225.678 60.051,225.678C60.051,225.678 45.103,233.975 45.103,233.975L37.664,225.042L25.731,237.243Z" style="fill:rgb(212,253,255);"/>
            </g>
        </g>
    </g>
    <g id="Layer11">
        <g transform="matrix(1,0,0,1,19.7475,0)">
            <rect x="1181.82" y="118.743" width="153.851" height="281.257" style="fill:rgb(86,127,202);"/>
        </g>
        <g transform="matrix(1,0,0,0.885854,19.7475,45.6583)">
            <rect x="927.706" y="176.453" width="124.676" height="223.547" style="fill:rgb(109,116,136);"/>
        </g>
        <g transform="matrix(1,0,0,0.672727,110.345,130.909)">
            <rect x="927.706" y="176.453" width="124.676" height="223.547" style="fill:rgb(125,150,168);"/>
        </g>
        <g transform="matrix(1,0,0,1.14009,184.829,-56.0346)">
            <rect x="927.706" y="176.453" width="124.676" height="223.547" style="fill:rgb(123,78,110);"/>
        </g>
        <g transform="matrix(1.06365,0,0,0.84332,320.638,62.6721)">
            <rect x="927.706" y="176.453" width="124.676" height="223.547" style="fill:rgb(188,165,156);"/>
        </g>
    </g>
</svg>
