<?xml version="1.0" encoding="iso-8859-1"?>
<!-- Generator: Adobe Illustrator 14.0.0, SVG Export Plug-In . SVG Version: 6.00 Build 43363)  -->
<!DOCTYPE svg PUBLIC "-//W3C//DTD SVG 1.1//EN" "http://www.w3.org/Graphics/SVG/1.1/DTD/svg11.dtd">
<svg version="1.1" id="Layer_1" xmlns="http://www.w3.org/2000/svg" xmlns:xlink="http://www.w3.org/1999/xlink" x="0px" y="0px"
	 width="250px" height="187px" viewBox="0 0 250 187" style="enable-background:new 0 0 250 187;" xml:space="preserve">
<g>
	<g>
		<path style="fill:#010101;" d="M160.849,6.833c0,0-0.466,2.497-0.734,3.913c-1.882,0.218-11.582,1.296-11.582,1.296
			s2.575,3.432,3.391,4.515c-1.02,0.059-4.37,0.256-4.37,0.256s0.344,0.927,0.571,1.541c-3.857-0.259-19.739-1.322-19.739-1.322
			l2.318,2.954c0,0,1.864,2.356,3.269,4.157c-2.546,0.769-9.541,2.89-9.541,2.89s2.736,2.255,2.864,2.356
			c-3.438,1.384-13.153,5.302-13.153,5.302s2.502,3.869,3.271,5.048c-1.081,1.404-5.844,7.551-5.844,7.551s1.235,0.604,1.605,0.781
			c-0.929,0.353-4.9,1.882-4.9,1.882s3.196,2.319,3.857,2.799c-2.444,1.637-8.708,5.818-8.708,5.818s2.543,3.164,3.566,4.437
			c-1.631,1.273-6.817,5.328-6.817,5.328s3.717,1.932,5.034,2.625c-0.953,0.821-4.023,3.481-4.023,3.481s2.951,1.194,3.152,1.285
			C93.592,85.914,89.298,88.364,89.258,88.39l-0.198,0.105l-0.166,0.16c-0.749,0.711-3.152,1.824-4.623,2.38
			c-5.168,2.278-12.008,7.941-14.205,9.823c-9.042-2.686-11.828-10.974-11.944-11.332c-3.469-11.157-7.14-14.843-7.289-14.988
			l0.172,0.189c-1.794-2.397-6.313-4.848-6.823-5.119c-2.587-1.147-3.1-1.998-3.12-2.027c-2.747-7.251-6.639-8.273-7.076-8.373
			l0.422,0.154c-4.53-2.345-10.916-0.434-11.187-0.355c-6.575,1.567-15.769,5.523-16.157,5.687L5,65.586l5.934,7.044l0.064,0.076
			c5.838,5.436,7.723,6.759,8.471,7.132c1.151,0.751,5.404,3.085,9.048,3.155l0.105-0.006l0.108-0.015
			c4.874-0.542,6.822,1.763,8.547,4.37c0.766,0.985,1.949,3.782,2.555,5.384c3.228,12.934,6.295,16.465,6.668,16.862
			c6.791,8.891,14.621,10.067,14.954,10.114c1.479,0.314,1.853,2.581,1.876,4.562c0.009,1.143-0.099,2.186-0.184,2.704
			c-1.332,8.069-3.07,11.169-3.729,12.334l-0.306,0.583c-3.875,8.669-4.113,16.838-4.082,19.203c0,0.338,0.006,0.489,0.012,0.583
			c-0.018,0.548-0.108,3.571-0.087,6.111c0.018,1.259,0.058,2.372,0.151,3.036c0.023,0.466,0.225,3.192,2.121,5.779l-0.14-0.222
			c0.163,0.315,1.748,3.199,6.893,6.13c4.795,2.727,7.816,1.684,9.82,0.984l0.667-0.216c3.772-1.177,6.982-4.964,7.123-5.127
			l0.043-0.059l0.05-0.063c1.654-2.383,2.214-4.789,2.182-6.992c-0.038-4.807-2.86-8.605-3.032-8.826l-0.047-0.064l-0.049-0.059
			c-0.265-0.285-0.402-0.483-0.487-0.635c5.981-3.345,10.365-6.934,12.393-8.716c3.889,3.589,9.13,3.367,9.372,3.355
			c-0.114,0.006,18.003,0.326,18.003,0.326c5.145,0.361,5.613,0.298,5.841,0.269c2.595-0.239,4.18,0.093,4.204,0.093l0.07,0.018
			l0.081,0.006c3.263,0.408,4.754-0.14,5.197-0.355c4.632-1.603,7.784-5.978,7.912-6.17c1.976-3.019,2.482-5.769,2.459-7.843
			c-0.023-2.039-0.536-3.373-0.676-3.705c-1.131-3.141-3.514-4.889-5.617-5.873c0.886-0.605,1.404-1.043,1.451-1.072h-0.012
			c5.681-3.868,5.785-10.417,5.773-11.058c0-0.012-0.012-1.066-0.012-1.946c5.896-2.681,12.247-4.259,14.24-4.673
			c1.27,1.02,2.505,1.357,2.656,1.398c0.693,0.14,8.018,1.876,12.783,3l-0.228-0.063c5.967,2.307,10.709-0.478,10.756-0.507
			c1.037-0.67,2.546-1.352,3.315-1.695c0.908,0.256,4.457,1.212,4.457,1.212l0.355,0.099c5.477,1.643,8.156,1.579,8.437,1.579
			c1.398,0.047,8.005,1.468,8.844,1.678c3.659,1.562,5.943,2.051,6.474,2.027c2.907-0.104,4.428,0.304,4.445,0.314
			c4.131,1.224,7.971-0.798,8.128-0.885c2.068-1.113,5.022-2.441,8.85-3.956l0.653-0.286c3.833-2.22,4.113-7.306,4.137-7.527
			c0.279-9.578-7.633-12.853-7.971-12.987l0.198,0.097c-5.197-2.957-10.977-1.136-13.092-0.28c-0.892-0.489-2.744-1.506-2.744-1.506
			c-1.434-0.699-4.632-3.23-5.792-4.186c-0.792-0.859-1.55-1.515-2.179-2.034c0.554-0.571,1.119-1.153,1.119-1.153
			c2.569-3.039,3.833-3.639,4.142-3.752c3.653,1.273,7.348,0.676,8.198,0.507c0.314,0.038,1.2,0.37,1.923,0.722l0.187,0.102
			l0.227,0.043c7.545,1.489,10.75-3.673,10.878-3.892l-0.099,0.146c4.981-6.592,1.823-15.043,1.689-15.402
			c-2.371-7.784-9.631-8.594-13.127-7.903c-2.039,0.51-3.53,0.708-4.632,0.854l-1.567,0.25c-0.012,0-1.631,0.137-1.631,0.14
			c-0.239-0.364-0.53-1.27-0.636-2.065c-0.018-0.172-0.04-0.338-0.04-0.495c-0.012-0.784,0.244-1.308,0.279-1.378
			c0.303-0.399,2.016-2.645,2.016-2.645l0.023-0.131c0.758-1.882,1.037-3.615,1.025-5.139c-0.047-4.052-2.098-6.636-2.22-6.782
			l0.192,0.306c-1.876-3.764-9.322-7.411-10.418-7.93c-4.061-2.4-12.031-7.947-13.289-8.827c-0.094-0.169-0.21-0.496-0.263-0.764
			c-0.973-4.649-3.868-5.712-4.207-5.82c-1.322-0.48-7.05-2.141-7.288-2.211c-8.396-2.133-22.56-8.684-22.705-8.757l-1.952-0.9
			L160.849,6.833"/>
		<path style="fill:#FFFFFF;" d="M161.723,13.936l1.224-0.14c0,0,0.524-2.782,0.792-4.25c4.242,1.899,14.427,6.315,21.278,8.055
			c1.573,0.458,6.024,1.76,7.085,2.147c0.069,0.026,1.444,0.618,2.016,3.28c0.023,0.187,0.279,1.535,1.055,2.436l0.134,0.148
			l0.163,0.117c0.385,0.265,9.34,6.531,13.82,9.173l0.064,0.038l0.069,0.038c2.896,1.369,7.895,4.332,8.949,6.447l0.088,0.151
			l0.11,0.146c0.076,0.102,1.439,1.865,1.463,4.699c0.012,1.089-0.192,2.342-0.723,3.717c-0.21,0.268-1.766,2.316-1.766,2.316
			l-0.122,0.18c-0.082,0.152-0.74,1.367-0.723,3.074c0.006,0.309,0.029,0.624,0.081,0.958c0.304,2.415,1.445,5.022,3.741,4.94
			l0.314-0.012l2.272-0.221l1.246-0.192c1.189-0.151,2.797-0.37,4.936-0.909c0.623-0.117,7.137-1.116,9.223,5.727
			c0.064,0.181,2.657,7.213-1.188,12.296l-0.047,0.059l-0.052,0.076c-0.082,0.137-2.162,3.301-7.242,2.362
			c-2.494-1.183-3.432-0.964-3.74-0.879c-0.023,0.003-3.624,0.79-6.794-0.455c-1.678-0.673-4.172,0.915-7.382,4.74
			c0.087-0.096-2.418,2.456-2.418,2.456l-1.521,1.542l1.894,1.083c0.012,0.003,1.579,0.9,3.222,2.727l0.076,0.096l0.116,0.082
			c0.437,0.373,4.434,3.641,6.409,4.6c-0.064-0.035,3.402,1.861,3.402,1.861l0.758,0.417l0.78-0.382
			c0.059-0.032,5.989-2.896,10.778-0.175l0.094,0.059l0.104,0.037c0.245,0.105,5.82,2.479,5.885,9.256c0,0.169,0,0.332,0,0.507
			c0,0-0.233,3.408-2.424,4.736c-0.104,0.047-0.244,0.105-0.244,0.105c-1.48,0.576-5.955,2.336-9.218,4.119
			c-0.018,0.012-2.797,1.444-5.599,0.605c-0.216-0.059-2.005-0.548-5.349-0.442c-0.151-0.023-1.854-0.32-5.331-1.818
			c-0.548-0.232-8.216-1.829-10.033-1.894c-0.14,0.006-2.528,0.059-7.493-1.444c0.012,0-0.442-0.117-0.442-0.117l-5.512-1.491
			l-0.554,0.204c-0.104,0.046-2.668,1.106-4.364,2.196c0.012-0.006-3.391,1.882-7.731,0.192l-0.104-0.047l-0.11-0.018
			c-1.224-0.297-11.927-2.843-12.865-3.023c0.053,0.012-0.851-0.228-1.654-1.061c-0.652-0.693-0.88-0.921-7.085,0.851
			c-2.89,0.827-7.207,2.237-11.257,4.172l-0.955,0.466c0,0,0.035,4.084,0.029,4.09c0.006,0.332-0.012,5.478-4.428,8.373
			c0,0,0.448,0.693,0.908,1.387c-0.542-0.624-1.089-1.247-1.089-1.247c-0.012,0.006-1.562,1.334-4.148,2.569l-5.162,2.5l5.703,0.67
			c0.053,0,5.314,0.67,6.823,4.87c0.116,0.274,1.637,3.869-1.41,8.536c0.012-0.006-2.703,3.746-6.362,4.935l-0.059,0.023
			l-0.116,0.047c-0.012,0-0.979,0.373-3.355,0.081c-0.467-0.093-2.267-0.401-5.18-0.122c-0.09-0.006-0.845,0.023-5.282-0.285
			c-0.055-0.006-0.16-0.012-18.239-0.326c-0.16-0.006-5.104,0.18-7.906-3.392l-1.153-1.456l-1.332,1.287
			c-0.046,0.047-5.2,5.005-13.001,9.363l0.306-0.128c-0.728,0.232-1.689,0.914-1.998,2.063c-0.315,1.194,0.154,2.487,1.398,3.845
			l-0.107-0.116c0.137,0.175,2.316,3.141,2.348,6.799c0.023,1.614-0.384,3.362-1.556,5.058c-0.384,0.438-2.857,3.182-5.482,3.991
			l-0.763,0.268c-1.771,0.606-3.595,1.235-7.079-0.745c-4.271-2.424-5.567-4.743-5.576-4.767L60,172.721l-0.079-0.11
			c-1.389-1.888-1.482-4.015-1.488-4.044v-0.087l-0.018-0.082c-0.204-1.468-0.096-6.759-0.035-8.67l0.006-0.069v-0.064
			c-0.003-0.093-0.39-9.024,3.781-18.347l0.163-0.304c0.737-1.305,2.695-4.789,4.108-13.418c0.638-3.652,0.419-10.103-4.414-11.122
			c-0.187-0.035-7.041-1.107-12.975-8.979l-0.038-0.064l-0.07-0.069c-0.026-0.029-2.867-3.292-5.896-15.498L43.023,91.7
			l-0.035-0.093c-0.178-0.472-1.765-4.638-2.989-6.214c-2.191-3.318-5.165-6.38-11.437-5.748c-2.668-0.059-6.363-1.996-7.341-2.654
			l-0.082-0.056l-0.195-0.096c-0.049-0.029-1.451-0.787-7.583-6.514c-0.093-0.108-1.608-1.905-2.881-3.423
			c3.097-1.262,9.048-3.578,13.622-4.667c0.158-0.044,5.457-1.62,8.76,0.096l0.151,0.073l0.218,0.067
			c0.023,0.003,2.631,0.813,4.714,6.301l-0.059-0.166c0.166,0.638,0.976,2.31,4.836,4.008c1.089,0.586,4.463,2.587,5.593,4.108
			l0.079,0.096l0.082,0.09c0.038,0.032,3.28,3.411,6.447,13.613c0.143,0.443,3.545,10.982,15.102,13.844l0.851,0.21l0.662-0.583
			c0.084-0.07,8.454-7.423,14.003-9.864c0.58-0.216,3.697-1.468,5.316-2.814c0.312-0.16,5.162-2.863,17.68-14.962l1.85-1.786
			c0,0-2.75-1.116-2.893-1.174c0.6-0.516,1.27-1.095,1.27-1.095l-0.245,0.178c0.714-0.408,1.142-1.098,1.139-1.821
			c-0.003-0.009-0.003-0.009,0-0.021c-0.009-0.67-0.37-1.279-0.979-1.631c-0.038-0.02-1.2-0.626-2.345-1.229
			c1.801-1.41,5.387-4.218,5.387-4.218s-2.369-2.948-3.403-4.233c2.118-1.41,9.657-6.456,9.657-6.456s-2.453-1.78-2.756-2.004
			c1.372-0.53,6.328-2.436,6.328-2.436s-4.148-2.019-4.81-2.345c1.457-1.896,4.771-6.17,4.771-6.17s-1.535-2.374-2.359-3.639
			c2.811-1.13,14.629-5.887,14.629-5.887s-2.359-1.938-2.4-1.958c2.646-0.807,8.228-2.5,8.228-2.5s-2.728-3.496-3.951-5.058
			c4.749,0.318,17.397,1.166,17.397,1.166s-0.617-1.704-0.78-2.144c1.451-0.09,6.048-0.355,6.048-0.355s-2.727-3.659-3.601-4.818
			C157.621,14.387,161.723,13.936,161.723,13.936"/>
		<path style="fill:#046EB1;" d="M69.903,121.606c0,0-0.128-4.527-4.184-7.097c0,0-1.943-0.903-3.295-1.136
			c0,0-7.161-1.702-11.757-8.711c0,0-1.407-1.794-3.277-8.366c0,0-1.623-6.753-2.87-9.387c0,0-3.294-6.313-8.996-9.316
			c-0.798-0.428-1.815-0.874-1.815-0.874c-0.594-0.324-1.518-0.146-1.518-0.146c-1.337,0.434-5.334-0.076-5.334-0.076
			s-2.432,0.111-6.336-3.632l-5.596-4.985c0,0,10.138-3.545,11.644-3.391c0,0,5.477-1.078,7.253,2.278l1.713,3.767
			c0,0,0.856,2.173,4.066,3.656c0,0,7.592,2.357,10.796,12.404c0,0,2.762,7.621,4.39,10.135c0,0,5.354,10.356,17.791,10.741
			c0,0,6.977-8.428,17.939-12.41c0,0,4.926-3.071,12.055-8.897c0,0,10.056-10.313,13.234-12.235l-3.875-1.474l1.908-2.03
			c0,0,0.831-1.183-0.184-1.844l-2.368-1.235c0,0,1.34-0.944,2.167-1.623c0,0,0.291-0.212,2.167-2.211l-2.983-3.49l8.845-6.558
			l-1.608-1.838l5.357-1.815l1.477-2.491c0,0-2.394-0.818-5.683-1.92l3.723-5.416l-1.539-2.38l14.353-5.896l-1.352-1.538
			l8.623-2.817c0,0-2.424-2.578-2.727-3.042c0,0-0.163-0.084,0.047-0.253c0,0,9.672,0.994,13.738,0.49l-0.688-1.547l6.561,0.146
			l-2.709-2.234l3.338-1.553l-2.295-2.75l5.5-0.644l0.191-2.179c0,0,15.499,6.24,24.442,8.154c0,0,1.071,1.381,1.491,2.295
			c0,0,0.314,1.387,0.583,2.476c0,0-0.175-0.169,0.827,0.662c0,0,8.472,6.721,18.527,12.081c0,0,1.434,0.909,3.345,2.488
			c0,0,0.932,0.874,1.316,1.582c0,0,0.979,1.926,0.682,4.79c0,0-0.332,0.754-0.955,0.967l-1.049,0.184c0,0-0.507,1.535-1.946,2.832
			c-0.711,0.644-1.585,0.606-1.585,0.606l-3.536,0.373c0,0-0.536-0.041-0.962,0.466c0,0-0.902,2.027-0.926,2.989
			c0,0-0.292,0.766,0.594,0.714c0,0,2.302-0.321,3.06-0.324c0,0,2.896-0.157,3.909,0.72c0,0,1.153,1.457,0.489,2.89
			c0,0-0.157,0.382-1.247,1.527l-0.699,0.845c0,0,3.578,0.259,4.382,0.717l2.773,0.688c0,0,4.078,0.082,7.219-0.784
			c0,0,6.065-2.121,8.25,1.465c0,0,2.383,3.504,1.509,8.308c0,0-0.798,3.659-2.727,4.347c0,0-2.721,0.871-4.929-0.58
			c0,0-1.946-1.156-3.612-0.043c0,0-2.925,0.824-4.667-0.839c0,0-0.304-0.382-3.188,0.116c0,0-3.059,1.04-5.43,3.962
			c0,0-1.736,2.284-7.073,7.129c0,0-1.328,1.442,0.536,2.348c0,0,3.274,0.886,5.919,3.968c0,0,2.203,2.167,4.399,3.569
			c0,0,4.143,2.479,6.857,4.39c0,0,1.014,1.335,2.948-0.104c0,0,3.903-2.572,8.297-0.933c0,0,2.616,1.398,3.379,1.981
			c0,0,2.628,2.249,1.328,6.706c0,0-0.238,1.603-4.591,2.814c0,0-2.599,1.043-5.186,2.493c0,0-1.34,1.188-4.369,0.297
			c0,0-1.398-0.529-2.604-0.483c0,0-2.768,0.373-5.134-0.868c0,0-0.291-0.379-1.607-0.739c0,0-10.942-2.331-12.119-2.226
			c0,0-2.604-0.064-4.883-0.799c0,0-5.989-1.957-6.653-1.946c0,0-2.027-0.821-3.274,0.204c0,0-3.438,1.538-4.102,2.045
			c0,0-0.99,1.527-5.628,0.233c0,0-12.212-3.245-13.972-3.31l-1.701-1.497c0,0-12.084,1.381-22.024,7.12
			c0,0-0.034,5.202-0.442,6.968c0,0-0.216,3.531-4.976,5.932c0,0-5.891,3.461-13.206,6.683c0,0-3.659,3.082,0.542,4.282
			c0,0,2.068,0.53,9.995-0.688c0,0,4.574-0.501,5.821,1.958c0,0,1.521,1.177,1.124,3.775c0,0-0.093,3.064-4.894,6.339
			c0,0-1.376,1.241-3.939,0.711c0,0-1.73-0.432-3.032-0.466c0,0-3.149,0.489-6.724-0.35c0,0-14.7,0.058-16.64-0.094
			c0,0-2.688-0.059-4.71-0.874c0,0-2.08-0.466-0.292-4.113c0,0,3.438-4.533,4.79-7.865c0,0,0.877-1.055,0.402-1.935
			c-1.081-2.016-4.746-0.489-4.746-0.489c-3.184,1.118-3.758,2.884-3.758,2.884c-1.157,1.445-2.057,4.143-2.057,4.143
			c-1.241,2.284-2.237,3.041-2.237,3.041c-4.699,5.559-12.212,9.998-12.212,9.998s-3.336,2.045-4.504,3.234
			c0,0-3.589,2.639-0.265,7.056c0,0,4.903,2.982,1.934,9.234c0,0-0.854,2.482-5.672,3.752c0,0-0.833,0.344-2.945-0.396
			c0,0-2.916-1.689-5.416-4.316c0,0-0.516-0.828-0.958-2.506c0,0-0.478-6.467-0.236-7.9c0,0-0.912-10.79,4.417-19.617
			C65.644,141.229,69.603,133.544,69.903,121.606"/>
		<path style="fill:#FFFFFF;" d="M202.507,64.965c0,0-4.265-2.479-5.756-0.612c0,0-1.573,2.535,1.165,3.345
			C197.916,67.698,201.033,67.646,202.507,64.965"/>
	</g>
</g>
</svg>
