<?xml version="1.0" encoding="UTF-8" standalone="no"?>
<svg
   xmlns:dc="http://purl.org/dc/elements/1.1/"
   xmlns:cc="http://creativecommons.org/ns#"
   xmlns:rdf="http://www.w3.org/1999/02/22-rdf-syntax-ns#"
   xmlns:svg="http://www.w3.org/2000/svg"
   xmlns="http://www.w3.org/2000/svg"
   viewBox="0 0 129.33333 145.33333"
   height="145.33333"
   width="129.33333"
   xml:space="preserve"
   id="svg2"
   version="1.1"><metadata
     id="metadata8"><rdf:RDF><cc:Work
         rdf:about=""><dc:format>image/svg+xml</dc:format><dc:type
           rdf:resource="http://purl.org/dc/dcmitype/StillImage" /></cc:Work></rdf:RDF></metadata><defs
     id="defs6" /><g
     transform="matrix(1.3333333,0,0,-1.3333333,0,145.33333)"
     id="g10"><g
       transform="scale(0.1)"
       id="g12"><path
         id="path14"
         style="fill:#132448;fill-opacity:1;fill-rule:nonzero;stroke:none"
         d="M 966.211,169.969 C 951.02,151.852 861.02,63.3281 783.398,10.0117 770.512,195.789 681.172,315.25 534.961,416.93 c -4.691,-99.059 -5,-186.059 -1.481,-246.961 2.93,-52.418 28.122,-84.3674 69.18,-118.0393 -53.359,-12.0703 -209.5,-10 -262.82,6.6797 6.14,4.7187 72.07,41.332 77.621,160.2696 4.141,85.269 4.73,148.59 1.519,252.812 l -6.21,27 C 341.641,551.109 279.531,604.738 199.531,691.148 272.77,497.789 179.84,256.969 169.02,168.449 165.512,138.922 156.129,78.5312 159.379,16.7305 136.48,30.4805 44.2188,90.8281 0,148.609 128.59,368.879 221.762,585.398 19.9609,781.969 57.9688,839.121 114.219,890.051 159.379,912.32 206.559,775.828 309.961,667.75 384.691,620.25 327.539,832.078 254.34,901.5 207.969,925.211 c 30.551,71.48 131.011,145.659 184.57,164.649 -24.609,-79.38 -26.598,-131.251 -2.309,-215.63 24.301,-85.511 62.43,-188.941 105.161,-266.871 22.89,39.532 103.398,207.379 124.839,280.352 21.411,73.277 21.411,138.909 12.309,186.089 C 678.828,1050.01 778.711,956.262 801.602,910.602 752.93,900.012 730.039,875.09 701.09,825.289 671.172,774.309 595.859,581.539 554.02,498.371 c 44.261,-38.082 121.289,-86.172 182.191,-159.062 -67.07,263.632 1.488,464.019 89.687,524.101 41.25,-11.988 93.75,-45.66 131.832,-85.269 C 814.41,717.75 823.789,535.012 822.969,521.191 816.52,416.648 858.672,230.25 938.09,184.578 955.352,174.941 957.148,174 966.211,169.969 951.02,151.809 861.02,63.3281 783.359,10.0117" /></g></g></svg>