<?xml version="1.0" encoding="utf-8"?>
<!-- Generator: Adobe Illustrator 14.0.0, SVG Export Plug-In . SVG Version: 6.00 Build 43363)  -->
<!DOCTYPE svg PUBLIC "-//W3C//DTD SVG 1.1//EN" "http://www.w3.org/Graphics/SVG/1.1/DTD/svg11.dtd">
<svg version="1.1" id="Layer_1" xmlns="http://www.w3.org/2000/svg" xmlns:xlink="http://www.w3.org/1999/xlink" x="0px" y="0px"
	 width="250px" height="184px" viewBox="0 0 250 184" enable-background="new 0 0 250 184" xml:space="preserve">
<g>
	<path fill="#1C2D5B" d="M245,80.335l-12.811-2.137l-2.988,1.526l-0.938-1.587l14.333-22.537l-11.213-4.042l-15.582,2.089
		c-14.303-29.072-44.351-49.097-79.11-49.097c-48.607,0-88.01,39.151-88.01,87.45c0,7.31,0.909,14.405,2.608,21.19l-1.135,3.007
		l-9.356-2.152L5,122.137c3.701,3.851,5.798,9.53,5.739,10.46c0,7.07-6.928,19.152,1.63,27.72
		c10.698,10.192,28.68,12.208,41.064,8.247c2.297-0.735,18.832-8.28,24.936-11.077c15.528,13.665,35.948,21.963,58.322,21.963
		c45.239,0,82.496-33.916,87.442-77.554c3.838-1.025,7.446-1.973,10.772-2.832L245,80.335z"/>
	<path fill="none" stroke="#FFFFFF" stroke-width="1.4449" stroke-miterlimit="10" d="M245,80.335l-12.811-2.137l-2.988,1.526
		l-0.938-1.587l14.333-22.537l-11.213-4.042l-15.582,2.089c-14.303-29.072-44.351-49.097-79.11-49.097
		c-48.607,0-88.01,39.151-88.01,87.45c0,7.31,0.909,14.405,2.608,21.19l-1.135,3.007l-9.356-2.152L5,122.137
		c3.701,3.851,5.798,9.53,5.739,10.46c0,7.07-6.928,19.152,1.63,27.72c10.698,10.192,28.68,12.208,41.064,8.247
		c2.297-0.735,18.832-8.28,24.936-11.077c15.528,13.665,35.948,21.963,58.322,21.963c45.239,0,82.496-33.916,87.442-77.554
		c3.838-1.025,7.446-1.973,10.772-2.832L245,80.335z"/>
	<path fill="#C4CED4" d="M87.759,27.959c0,0,0.674,0.199,0.96,0.622l5.032,6.861l-5.448,4.659l-6.192-6.436
		c-0.106-0.146-0.283-0.627-0.283-0.627c-1.35,1.189-2.57,2.451-3.829,3.789l0.714,0.167l6.833,6.345
		c0.901,0.721,2.598,0.769,3.267,0.101c3.024-3.097,5.983-5.284,8.489-7.051c0.978-0.667,0.805-2.209,0.211-3.124l-5.111-7.36
		c-0.201-0.405-0.225-1.053-0.225-1.053C90.486,25.926,88.959,27.002,87.759,27.959"/>
	<path fill="#C4CED4" d="M126.819,14.957l-0.411-2.94c-3.947,0.161-12.511,1.998-17.935,4.422l1.173,2.591
		c0,0,0.383-0.438,1.245-0.693l4.927-1.295c0,0,2.343,8.061,2.356,8.083c0.121,0.542,0.135,1.011,0.116,1.363
		c1.135-0.332,4.201-0.978,4.55-1.048c-0.212-0.315-0.451-0.751-0.573-1.22l-2.049-8.351l4.787-1.043
		C125.973,14.723,126.819,14.957,126.819,14.957"/>
	<path fill="#C4CED4" d="M148.381,24.116l0.453-2.043l6.15,1.351c0,0-0.458,2.204-0.461,2.225c-0.073,0.431-0.683,0.837-0.683,0.837
		c1.66,0.45,3.537,1.035,5.044,1.6c0.023-0.34-0.09-0.892,0.023-1.384c0,0,2.537-8.219,2.532-8.219
		c0.824-2.722-0.66-3.264-2.556-3.941c-1.987-0.529-6.737-1.912-8.743-2.116c-2.323-0.161-3.22,0.627-4.001,3.513
		c0,0-1.784,7.499-1.784,7.509c-0.111,0.418-0.333,0.812-0.539,1.111c1.411,0.144,3.149,0.458,4.621,0.812
		C148.438,25.369,148.287,24.558,148.381,24.116 M155.895,20.41l-6.229-1.449l0.84-3.215l6.198,1.531L155.895,20.41z"/>
	<path fill="#C4CED4" d="M181.674,40.797l3.639-3.47l-5.884-4.578l-2.656,3.273c0,0-0.365,0.453-0.528,1.139
		c-1.535-1.076-2.934-1.998-4.488-2.945c0.615-0.381,1.154-0.91,1.666-1.603l5.107-6.932c0.357-0.545,0.776-1.296,0.829-2.165
		c1.37,0.839,4.779,3.253,4.779,3.253c-0.428,0.111-0.892,0.315-1.234,0.647l-2.137,2.87l6.289,5.103l2.707-2.542
		c0.246-0.287,0.498-0.603,0.657-0.955c1.146,1.027,2.794,2.54,4.014,3.875c-0.38,0.113-0.861,0.287-1.285,0.595l-8.005,7.663
		c0,0-0.179,0.396-0.33,0.856c-0.987-1.073-2.98-3.001-3.921-3.822C181.281,41.026,181.674,40.797,181.674,40.797"/>
	<path fill="#6DAEDF" d="M150.429,30.346c-2.167-0.497-4.369-0.888-6.611-1.159l3.462,5.1L150.429,30.346z M167.344,38.885
		l6.045,7.614l2.928-3.414c-6.284-5.163-13.576-9.137-21.538-11.586l8.995,11.619L167.344,38.885z M189.117,59.018l0.466-0.95
		c-2.92-4.583-6.412-8.766-10.379-12.45l4.425,6.141C183.629,51.758,186.03,54.583,189.117,59.018 M112.396,33.336l4.355,5.549
		l6.387-8.832C119.427,30.831,115.838,31.94,112.396,33.336 M85.913,53.515l2.727-0.373l8.998-10.271l2.404,2.905l8.033-10.5
		C99.358,39.598,91.786,45.872,85.913,53.515"/>
	<path fill="#FFFFFF" d="M184.627,97.297l-10.865,3.281l3.165-7.622l4.606-3.404l-1.636-3.215l11.165-22.239l-39.354,6.034
		l-8.633,15.708l10.427-3.572l10.527-1.719l-4.605,7.728l-4.06,2.644l0.431,4.432l-14.01,26.922
		c-0.927-0.968-2.346-2.593-2.346-3.631l1.338-19.053l3.16-4.394l-2.941-3.863l-0.058-10.865l4.717-9.408l-38.158,5.972l1.246,6.896
		l-6.692,13.117l-4.774,4.768l0.772,4.138l-16.976,39.303l25.616-10.205l3.974-10.575l9.725-3.207l-1.527,10.172l22.875-8.091
		l43.627-13.692l9.603-16.736L184.627,97.297z M121.342,109.072l-5.411,1.773l6.169-13.356L121.342,109.072z M86.199,110.353
		l4.353-4.946l-1.042-4.551l11.215-32.447l8.735-9.526L72.813,63.23l6.108,7.194l-13.779,33.384l-4.887,5.224l1.959,3.974
		l-12.465,36.405c-2.379,0.826-6.301,1.809-7.256,1.051c-1.091-0.864-1.819-1.432-0.077-6.544c0,0,4.419-12.637,4.415-12.637
		c0.167-0.388,7.239-10.762,7.239-10.762l-32.846,8.083c0,0,2.883,4.007,2.774,5.735l-3.457,12.042
		c-1.732,7.702,1.635,11.979,5.163,15.151c3.795,3.419,14.906,8.343,29.742,2.461c2.402-0.949,19.684-9.008,19.684-9.008
		s-1.635-2.658-2.226-5.551L86.199,110.353z M230.895,86.012c-1.995,0.453-8.713,1.893-11.188,2.411l3.039-4.967l3.822-2.724
		l-1.454-3.006l13.136-21.171l-38.757,6.254l-8.799,14.62l9.832-3.309l8.341-1.325l-3.896,6.213l-5.801,3.253l1.108,4.788
		l-12.444,21.858l45.282-12.76l7.935-14.156C241.052,81.992,231.137,85.941,230.895,86.012"/>
	<path fill="#6DAEDF" d="M78.423,65.347l25.206-3.266l-5.282,5.083l-11.915,33.853l0.862,3.545l-3.279,3.843L69.97,149.03
		c0,0,0.42,3.84,1.112,4.591c-3.671,1.644-12.561,6.08-16.683,7.718c-13.782,5.466-23.724,0.827-26.794-1.93
		c-3.78-3.406-5.552-6.766-4.289-12.415c0.561-2.507,0.777-2.971,1.471-5.377c0.67-2.29,1.3-4.46,1.923-6.415
		c0.569-1.754-0.431-3.792-1.019-4.765l22.491-5.523c-0.648,1.091-3.447,3.739-4.038,5.399l-4.422,12.672
		c-1.977,5.801-1.442,7.794,1.008,9.722c3.584,2.819,11.325-1.22,11.325-1.22l13.216-38.61l-1.512-3.452l3.757-3.886l14.531-36.067
		L78.423,65.347z"/>
	<path fill="#6DAEDF" d="M152.465,79.345l17.028-2.656l-7.534,13.347l-3.563,2.24l0.413,3.106l-11.835,22.888l36.675-11.372
		l4.727-8.04l-4.004,1.849l-15.69,4.377l5.771-13.581l3.497-2.613l-1.456-2.477l9.157-18.543c0,0-27.919,3.865-31.83,4.578
		l-4.717,8.119L152.465,79.345z"/>
	<path fill="#6DAEDF" d="M138.087,80.072l2.875-5.584l-30.049,4.7l0.802,5.203l-7.926,14.914l-3.553,3.145l0.697,3.578
		l-14.538,34.034l18.062-7.196l4.015-10.682l15.347-5.055l-1.291,9.583l15.065-4.884c0,0-1.026-1.229-0.912-2.406l1.194-21.158
		l2.431-2.961l-2.154-2.598L138.087,80.072z M123.779,111.265l-12.772,4.066l14.238-30.196L123.779,111.265z"/>
	<path fill="#6DAEDF" d="M231.547,88.791c-4.653,1.056-17.88,3.824-17.88,3.824l6.519-10.285l2.923-2.268l-1.083-2.376
		l10.701-17.261l-31.469,4.989l-4.359,7.184c0.231-0.078,2.288-0.99,2.52-1.045c1.829-0.411,15.88-2.661,15.88-2.661l-8.558,12.47
		l-3.91,2.427l0.595,2.885l-9.495,17.014c0,0,30.232-8.585,37.328-10.039l3.938-6.382C235.196,87.267,232.422,88.595,231.547,88.791
		"/>
	<path fill="#FFFFFF" d="M97.16,52.295l18.066,5.753l-10.141,9.95l6.778-1.003c5.507-5.362,11.369-11.138,11.369-11.138l2.991,3.259
		l5.685-3.518l4.757-11.009c0,0,6.944,9.174,12.052,17.719l2.543-0.325L145.092,52l2.076-14.975l4.992-6.234
		c0.068,1.644-0.038,4.39,0.164,5.768l-1.291,1.87c1.771,2.547,3.543,4.611,5.324,7.219l-6.581,7.094l2.658,4.694l5.428-4.694
		l8.869,7.271l15.688-2.001l6.138,2.13l0.56-1.124c-3.087-4.438-5.485-7.257-5.485-7.257l-6.738-9.351l-3.505,4.089l-6.042-7.617
		l-3.573,4.238l-11.591-14.972l-4.903,6.138l-13.176-19.39l-17.353,23.985l-5.792-7.378l-10.917,14.272l-2.405-2.908L88.64,53.144
		l2.372-0.322l6.584-7.443L97.16,52.295z"/>
	<path fill="#402E80" d="M176.758,45.068l0.111,4.371l2.174,3.138c-0.514,0.375-0.836,1.418-1.555,1.6
		c-2.18-2.736-3.272-4.157-4.069-5.2L176.758,45.068z"/>
	<path fill="#402E80" d="M165.315,47.183c-0.453-0.577-0.909-1.164-1.365-1.747l3.358-3.979c1.542,7.053,2.109,10.896,3.46,18.004
		l-7.346-5.946L165.315,47.183z"/>
	<path fill="#402E80" d="M147.171,37.025l4.991-6.234c0.068,1.644-0.04,4.39,0.162,5.768l-1.291,1.87
		c1.774,2.547,3.546,4.611,5.327,7.219l-6.584,7.094l2.658,4.694l5.428-4.694l8.872,7.271l-15.474,1.971L145.092,52L147.171,37.025z
		"/>
	<path fill="#402E80" d="M134.056,17.739c-1.263,7.055-1.915,16.489-3.18,23.144l2.499,3.475l-8.776,6.673l-7.713-9.556
		L134.056,17.739z"/>
	<path fill="#402E80" d="M123.234,55.857l2.99,3.259l5.687-3.521l4.755-11.009c0,0,6.947,9.177,12.05,17.719l-7.867,1.006
		l-1.016,2.239l-5.908-1.831l-22.061,3.275C117.37,61.633,123.234,55.857,123.234,55.857"/>
	<path fill="#402E80" d="M110.981,34.16c-0.18,2.097,0.032,5.38,0.116,7.879c0.527,1.192,1.773,1.88,2.036,2.996l-7.088,9.983
		l-5.952-6.637L110.981,34.16z"/>
	<polygon fill="#402E80" points="97.596,45.378 97.16,52.295 96.479,52.078 91.012,52.821 	"/>
	<path fill="#402E80" d="M98.941,142.144l9.918-4.047l3.257-7.536c0,0,6.295,4.661,6.342,4.642
		c22.071-8.308,48.399-16.588,48.399-16.588s0.142,4.651-0.297,7.633c-8.116-0.03-16.212,4.84-24.588,9.872
		c-11.344,6.818-23.068,13.858-36.694,10.567C103.029,145.334,98.941,142.144,98.941,142.144"/>
	<path fill="#402E80" d="M149.461,153.79c-8.67,1.942-17.893,1.963-27.125-0.262c-3.738-0.917-7.219-2.069-10.465-3.47
		c11.678,0.121,22.066-6.121,31.414-11.75c8.073-4.846,15.51-9.315,22.812-9.429C165.124,133.511,161.236,147.657,149.461,153.79"/>
	<path fill="#402E80" d="M156.804,151.648c5.72-5.337,9.974-13.274,11.854-22.517c0.002-0.035,0.015-0.073,0.02-0.105
		c4.026,0.541,8.038,2.555,12.103,6.72C174.104,142.905,165.875,148.362,156.804,151.648"/>
	<path fill="#402E80" d="M182.49,133.839c-4.5-4.586-8.94-6.799-13.365-7.408c0.451-3.173,0.515-6.115,0.217-8.603
		c4.506-1.416,24.044-7.313,25.984-7.879c0.015-0.003,0.024-0.005,0.035-0.011C192.726,119.035,188.266,127.111,182.49,133.839"/>
	<path fill="#FFFFFF" d="M156.804,151.648c5.72-5.34,9.976-13.274,11.854-22.517c0.005-0.038,0.015-0.073,0.02-0.104
		c4.026,0.539,8.038,2.55,12.103,6.718C174.104,142.905,165.875,148.36,156.804,151.648 M149.461,153.79
		c-8.67,1.942-17.89,1.963-27.124-0.26c-3.738-0.919-7.219-2.071-10.468-3.472c11.682,0.121,22.065-6.121,31.419-11.75
		c8.073-4.846,15.507-9.315,22.804-9.429C165.124,133.511,161.233,147.657,149.461,153.79 M195.361,109.941
		c-2.636,9.094-7.096,17.172-12.871,23.897c-4.5-4.589-8.942-6.799-13.365-7.408c0.451-3.173,0.515-6.113,0.22-8.603
		c-0.826,0.262-1.655,0.524-2.487,0.789c0,0.005,0.144,4.651-0.297,7.63c-8.119-0.033-16.215,4.84-24.591,9.872
		c-11.341,6.821-23.064,13.856-36.689,10.57c-2.214-1.336-6.195-4.433-6.327-4.535c-1.54,0.624-2.64,1.068-2.65,1.058
		c7.284,5.954,15.905,10.401,25.532,12.735c33.951,8.217,67.786-12.707,77.011-47.019
		C197.699,109.261,196.53,109.602,195.361,109.941"/>
</g>
</svg>
