<?xml version="1.0" standalone="no"?>
<!DOCTYPE svg PUBLIC "-//W3C//DTD SVG 1.1//EN" "http://www.w3.org/Graphics/SVG/1.1/DTD/svg11.dtd">
<svg width="100%" height="100%" viewBox="0 0 1280 800" version="1.1" xmlns="http://www.w3.org/2000/svg" xmlns:xlink="http://www.w3.org/1999/xlink" xml:space="preserve" style="fill-rule:evenodd;clip-rule:evenodd;stroke-linejoin:round;stroke-miterlimit:1.41421;">
    <g transform="matrix(1.02516,0,0,1.02516,406.995,2.84215)">
        <path d="M149.823,118.168C149.474,118.168 149.037,118.116 148.513,118.011C147.988,117.906 147.499,117.731 147.045,117.487C146.591,117.242 146.189,116.928 145.839,116.543C145.49,116.159 145.315,115.757 145.315,115.338C145.315,114.779 145.647,114.097 146.311,113.294C146.975,112.49 148.076,111.879 149.613,111.459C151.71,110.97 153.911,110.673 156.218,110.568C158.524,110.463 160.83,110.463 163.136,110.568C165.443,110.673 167.714,110.813 169.95,110.987C172.187,111.162 174.283,111.284 176.24,111.354C177.358,111.354 178.092,111.564 178.441,111.983C178.791,112.403 178.966,112.892 178.966,113.451C178.966,114.709 178.406,115.687 177.288,116.386C176.17,117.085 175.052,117.4 173.934,117.33C172.746,117.26 171.505,117.225 170.212,117.225C168.919,117.225 167.574,117.225 166.176,117.225C166.176,119.182 166.264,121.366 166.438,123.777C166.613,126.188 166.805,128.616 167.015,131.062C167.225,133.508 167.452,135.849 167.696,138.086C167.941,140.322 168.168,142.209 168.378,143.747C168.518,144.306 168.395,144.812 168.011,145.267C167.626,145.721 167.05,145.948 166.281,145.948C164.814,145.948 163.73,145.04 163.031,143.222C161.704,139.798 160.76,135.884 160.201,131.482C156.427,133.788 152.723,135.221 149.089,135.78C145.455,136.339 142.188,136.216 139.288,135.413C136.387,134.609 134.046,133.211 132.264,131.22C130.482,129.228 129.591,126.799 129.591,123.934C129.591,121.208 130.08,118.273 131.059,115.128C132.037,111.983 133.435,108.943 135.252,106.008C137.069,103.073 139.218,100.4 141.699,97.989C144.18,95.578 146.958,93.743 150.033,92.485C151.081,92.206 152.077,92.153 153.02,92.328C153.964,92.503 154.837,92.852 155.641,93.376C156.445,93.9 157.178,94.529 157.842,95.263C158.506,95.997 159.083,96.713 159.572,97.412C159.922,97.901 160.131,98.425 160.201,98.985C160.271,99.544 160.061,100.068 159.572,100.557C158.524,101.326 157.615,101.256 156.847,100.347C155.658,98.88 154.663,97.989 153.859,97.674C153.055,97.36 151.954,97.657 150.557,98.565C149.159,99.544 147.622,101.029 145.944,103.02C144.267,105.012 142.712,107.214 141.279,109.625C139.847,112.036 138.711,114.517 137.872,117.068C137.034,119.618 136.754,121.977 137.034,124.144C137.243,126.03 138.292,127.376 140.179,128.179C142.066,128.983 144.215,129.35 146.626,129.28C149.037,129.21 151.448,128.756 153.859,127.917C156.27,127.079 158.139,125.961 159.467,124.563C159.397,123.375 159.327,122.169 159.258,120.946C159.188,119.723 159.153,118.518 159.153,117.33C157.615,117.469 156.078,117.592 154.54,117.697C153.003,117.801 151.43,117.959 149.823,118.168Z" style="fill:white;fill-rule:nonzero;"/>
        <g transform="matrix(1,0,0,1,-3.76466,-1.26005)">
            <path d="M183.683,145.948C183.333,147.136 182.879,148.202 182.32,149.145C181.761,150.089 181.167,150.63 180.538,150.77C179.21,151.12 178.197,150.91 177.498,150.141C176.799,149.372 176.519,148.394 176.659,147.206C177.218,143.013 178.127,138.593 179.385,133.945C180.643,129.298 182.11,124.65 183.788,120.003C185.465,115.355 187.299,110.848 189.291,106.48C191.283,102.112 193.327,98.146 195.424,94.582C195.773,94.023 196.175,93.691 196.629,93.586C197.084,93.481 197.485,93.498 197.835,93.638C198.184,93.359 198.604,93.114 199.093,92.904C199.582,92.695 200.071,92.59 200.56,92.59C200.77,92.59 200.997,92.625 201.242,92.695C201.486,92.765 201.748,92.974 202.028,93.324C202.308,93.673 202.639,94.18 203.024,94.844C203.408,95.508 203.88,96.469 204.439,97.727C205.417,101.291 206.553,104.96 207.846,108.734C209.139,112.507 210.484,116.281 211.882,120.055C212.092,119.985 212.284,119.933 212.458,119.898C212.633,119.863 212.825,119.811 213.035,119.741C213.804,119.671 214.677,119.706 215.656,119.846C216.634,119.985 217.298,120.475 217.648,121.313C218.067,122.361 217.997,123.27 217.438,124.039C216.879,124.807 215.865,125.576 214.398,126.345C215.306,128.581 216.215,130.765 217.123,132.897C218.032,135.028 218.975,137.107 219.954,139.134C220.024,139.484 220.128,140.025 220.268,140.759C220.408,141.493 220.495,142.227 220.53,142.96C220.565,143.694 220.513,144.376 220.373,145.005C220.233,145.634 219.954,146.053 219.534,146.263C219.045,146.472 218.539,146.437 218.014,146.158C217.49,145.878 216.984,145.511 216.494,145.057C216.005,144.603 215.568,144.114 215.184,143.589C214.8,143.065 214.503,142.593 214.293,142.174C213.105,139.868 211.969,137.544 210.886,135.203C209.803,132.862 208.772,130.503 207.794,128.127C204.858,128.686 201.661,129.175 198.202,129.595C194.742,130.014 191.335,130.294 187.981,130.433C187.212,133.089 186.461,135.692 185.727,138.243C184.993,140.794 184.312,143.362 183.683,145.948ZM198.569,101.92C195.354,109.118 192.558,116.316 190.182,123.515C194.865,123.375 199.861,122.781 205.173,121.732C202.657,115.373 200.456,108.769 198.569,101.92Z" style="fill:white;fill-rule:nonzero;"/>
        </g>
        <g transform="matrix(1,0,0,1,-5.58023,-4.94484)">
            <path d="M274.675,149.722C273.906,149.722 273.12,149.128 272.316,147.94C271.512,146.752 271.076,145.599 271.006,144.48C270.447,140.427 269.765,135.692 268.961,130.276C268.158,124.86 267.092,118.448 265.764,111.04C263.668,115.023 261.606,118.972 259.579,122.886C257.553,126.799 255.526,130.713 253.499,134.626C252.241,137.072 250.948,138.295 249.62,138.295C247.664,138.295 246.126,137.282 245.008,135.255C242.562,131.691 240.029,128.354 237.408,125.244C234.787,122.134 232.079,119.042 229.284,115.967C229.144,120.649 229.196,125.244 229.441,129.752C229.685,134.26 230.122,138.645 230.751,142.908C230.891,143.677 230.804,144.358 230.489,144.952C230.175,145.546 229.843,145.913 229.493,146.053C228.515,146.402 227.536,146.193 226.558,145.424C225.58,144.655 224.986,143.817 224.776,142.908C224.147,140.392 223.693,137.597 223.413,134.522C223.134,131.447 222.941,128.337 222.837,125.192C222.732,122.047 222.679,118.937 222.679,115.862C222.679,112.787 222.714,109.992 222.784,107.476C222.784,104.68 223.693,103.283 225.51,103.283C226.628,103.283 227.571,103.684 228.34,104.488C229.109,105.292 229.528,106.427 229.598,107.895C233.092,111.389 236.395,114.971 239.504,118.64C242.614,122.309 245.637,126.03 248.572,129.804C251.018,125.401 253.499,120.876 256.015,116.229C258.531,111.581 261.361,107.056 264.506,102.654C264.646,101.885 265.03,101.099 265.659,100.295C266.288,99.491 266.987,98.95 267.756,98.67C268.525,98.39 269.328,98.705 270.167,99.613C271.006,100.522 271.565,101.57 271.844,102.758C273.032,109.817 274.063,116.875 274.937,123.934C275.81,130.992 276.666,138.051 277.505,145.109C277.645,146.437 277.4,147.538 276.771,148.412C276.142,149.285 275.443,149.722 274.675,149.722Z" style="fill:white;fill-rule:nonzero;"/>
        </g>
        <g transform="matrix(1,0,0,1,-5.32632,-1.23263)">
            <path d="M311.365,119.846C311.644,120.544 311.365,121.226 310.526,121.89C309.688,122.554 308.36,122.99 306.543,123.2C303.398,123.619 300.183,124.056 296.898,124.51C293.614,124.965 290.259,125.436 286.835,125.926C286.695,129.49 286.695,133.054 286.835,136.618C288.442,136.618 290.382,136.461 292.653,136.146C294.924,135.832 297.248,135.43 299.624,134.941C302,134.452 304.289,133.945 306.49,133.421C308.692,132.897 310.561,132.46 312.099,132.111C312.867,131.901 313.671,131.744 314.51,131.639C315.348,131.534 316.1,131.534 316.764,131.639C317.428,131.744 317.969,132.006 318.388,132.425C318.808,132.844 319.017,133.438 319.017,134.207C319.017,134.417 318.773,134.731 318.284,135.151C317.794,135.57 317.183,136.007 316.449,136.461C315.715,136.915 314.947,137.335 314.143,137.719C313.339,138.103 312.623,138.4 311.994,138.61C307.661,140.008 303.398,141.213 299.205,142.227C295.012,143.24 290.923,143.782 286.94,143.851C284.633,143.921 282.886,143.31 281.698,142.017C280.51,140.724 279.881,138.855 279.811,136.409C279.672,132.984 279.672,129.525 279.811,126.03C278.623,125.332 278.029,124.353 278.029,123.095C278.169,121.767 278.798,120.859 279.916,120.37C280.056,118.343 280.161,116.299 280.231,114.237C280.301,112.176 280.405,110.131 280.545,108.105C279.776,107.965 279.095,107.581 278.501,106.952C277.907,106.323 277.61,105.624 277.61,104.855C277.61,104.226 277.75,103.649 278.029,103.125C278.309,102.601 278.833,102.199 279.602,101.92C280.86,101.64 282.397,101.326 284.214,100.976C286.031,100.627 287.901,100.312 289.823,100.033C291.744,99.753 293.596,99.509 295.378,99.299C297.161,99.089 298.681,98.95 299.939,98.88C301.406,98.74 302.821,98.88 304.184,99.299C305.547,99.718 306.822,100.522 308.01,101.71C308.29,102.688 308.098,103.422 307.434,103.911C306.77,104.401 305.914,104.715 304.866,104.855C303.817,104.995 302.559,105.152 301.092,105.327C299.624,105.501 298.104,105.694 296.532,105.903C294.959,106.113 293.387,106.305 291.814,106.48C290.242,106.655 288.757,106.847 287.359,107.056C287.359,107.196 287.376,107.353 287.411,107.528C287.446,107.703 287.464,107.86 287.464,108C287.324,109.817 287.219,111.634 287.149,113.451C287.079,115.268 287.01,117.085 286.94,118.902C289.875,118.413 292.88,117.976 295.955,117.592C299.03,117.207 301.476,116.945 303.293,116.805C304.761,116.666 306.193,116.84 307.591,117.33C308.989,117.819 310.247,118.657 311.365,119.846Z" style="fill:white;fill-rule:nonzero;"/>
        </g>
        <g transform="matrix(1,0,0,1,-3.67221,-3.82044)">
            <path d="M379.504,123.724C379.085,125.681 378.333,127.55 377.25,129.333C376.167,131.115 374.926,132.774 373.529,134.312C372.131,135.849 370.611,137.177 368.969,138.295C367.326,139.414 365.667,140.287 363.989,140.916C360.914,142.034 357.857,142.401 354.817,142.017C351.777,141.633 349.069,140.252 346.692,137.876C345.085,135.919 343.949,133.718 343.285,131.272C342.622,128.826 342.307,126.327 342.342,123.777C342.377,121.226 342.726,118.762 343.39,116.386C344.054,114.01 344.91,111.879 345.959,109.992C347.217,107.755 348.719,105.903 350.466,104.436C352.213,102.968 354.135,102.094 356.232,101.815C356.791,101.675 357.245,101.815 357.595,102.234C357.944,102.654 358.119,103.143 358.119,103.702C358.818,103.003 359.901,102.479 361.369,102.129C362.836,101.78 364.478,101.745 366.295,102.025C369.65,102.444 372.306,103.457 374.263,105.065C376.219,106.672 377.669,108.541 378.613,110.673C379.556,112.805 380.046,115.041 380.081,117.382C380.115,119.723 379.923,121.837 379.504,123.724ZM356.651,109.258C355.253,109.887 354.083,110.813 353.139,112.036C352.196,113.259 351.427,114.639 350.833,116.177C350.239,117.714 349.855,119.374 349.68,121.156C349.505,122.938 349.488,124.668 349.628,126.345C349.837,128.791 350.571,130.8 351.829,132.373C353.087,133.945 355.044,134.731 357.699,134.731C359.237,134.731 360.757,134.434 362.26,133.84C363.762,133.246 365.142,132.46 366.4,131.482C367.658,130.503 368.811,129.333 369.86,127.97C370.908,126.607 371.747,125.192 372.376,123.724C372.725,122.955 373.005,121.995 373.214,120.841C373.424,119.688 373.494,118.5 373.424,117.277C373.354,116.054 373.074,114.884 372.585,113.765C372.096,112.647 371.327,111.704 370.279,110.935C368.811,109.887 367.064,109.258 365.038,109.048C363.011,108.838 360.879,109.293 358.643,110.411C358.224,110.69 357.752,110.743 357.228,110.568C356.704,110.393 356.511,109.957 356.651,109.258Z" style="fill:white;fill-rule:nonzero;"/>
        </g>
        <g transform="matrix(1,0,0,1,-5.73807,-7.11802)">
            <path d="M423.637,102.968C423.148,108.908 422.571,114.971 421.907,121.156C421.244,127.341 420.352,133.159 419.234,138.61C418.955,139.938 418.57,140.881 418.081,141.44C417.592,141.999 416.893,142.384 415.985,142.593C415.216,142.733 414.15,142.489 412.787,141.86C411.425,141.231 410.289,140.322 409.38,139.134C408.192,137.527 406.917,135.762 405.554,133.84C404.191,131.918 402.724,129.962 401.151,127.97C399.579,125.978 397.936,124.004 396.224,122.047C394.512,120.09 392.712,118.273 390.826,116.596C390.616,121.208 390.441,125.768 390.301,130.276C390.162,134.784 390.162,139.309 390.301,143.851C390.301,144.48 389.742,144.795 388.624,144.795C387.296,144.795 386.213,144.114 385.374,142.751C384.536,141.388 384.047,140.008 383.907,138.61C383.697,137.212 383.592,135.203 383.592,132.582C383.592,129.962 383.645,127.219 383.75,124.353C383.854,121.488 383.977,118.727 384.116,116.072C384.256,113.416 384.396,111.319 384.536,109.782C384.676,108.105 385.077,106.882 385.741,106.113C386.405,105.344 387.052,104.995 387.681,105.065C389.078,105.204 390.004,105.606 390.459,106.27C390.913,106.934 391.175,107.755 391.245,108.734C393.761,110.551 396.084,112.507 398.216,114.604C400.348,116.701 402.304,118.832 404.086,120.999C405.869,123.165 407.511,125.314 409.013,127.446C410.516,129.577 411.931,131.517 413.259,133.264C414.098,129.071 414.779,124.388 415.303,119.217C415.827,114.045 416.369,108.629 416.928,102.968C416.858,102.269 417.277,101.588 418.186,100.924C419.095,100.26 419.933,99.963 420.702,100.033C422.659,100.173 423.637,101.151 423.637,102.968Z" style="fill:white;fill-rule:nonzero;"/>
        </g>
    </g>
    <g transform="matrix(1.63946,0,0,1.63946,346.407,-374.978)">
        <g transform="matrix(1,0,0,1,-0.249854,-0.616754)">
            <path d="M180.732,337.679C178.568,343.276 176.05,349.115 173.177,355.196C170.304,361.278 166.89,367.304 162.935,373.274C161.816,374.99 160.547,375.848 159.129,375.848C158.234,375.848 157.488,375.643 156.891,375.232C156.294,374.822 155.771,374.281 155.324,373.609C153.384,370.625 151.63,367.453 150.063,364.095C148.496,360.737 146.966,356.931 145.474,352.678C143.31,356.484 140.903,360.327 138.254,364.207C135.605,368.087 132.713,371.707 129.579,375.065C128.982,375.736 128.367,376.184 127.732,376.408C127.098,376.632 126.594,376.706 126.221,376.632C124.654,376.408 123.423,375.438 122.527,373.721C119.766,368.572 117.901,362.901 116.931,356.708C115.961,350.514 115.438,344.171 115.364,337.679C115.364,337.082 115.587,336.485 116.035,335.888C116.483,335.291 117.155,335.03 118.05,335.104C119.393,335.179 120.438,335.683 121.184,336.616C121.93,337.548 122.378,338.686 122.527,340.029C122.677,341.895 122.863,344.003 123.087,346.354C123.311,348.704 123.609,351.111 123.982,353.573C124.356,356.036 124.841,358.424 125.438,360.737C126.035,363.05 126.781,365.065 127.676,366.781C128.796,365.364 129.99,363.797 131.258,362.08C132.527,360.364 133.777,358.573 135.008,356.708C136.239,354.842 137.414,352.958 138.534,351.055C139.653,349.152 140.66,347.268 141.556,345.402C142.153,344.134 142.899,343.313 143.795,342.94C144.69,342.567 145.399,342.38 145.921,342.38C148.16,342.38 149.69,343.462 150.511,345.626C151.779,348.76 153.066,352.081 154.372,355.588C155.678,359.095 157.115,362.416 158.682,365.55C160.025,363.461 161.405,361.11 162.823,358.498C164.241,355.887 165.622,353.219 166.965,350.495C168.308,347.772 169.595,345.029 170.826,342.268C172.058,339.507 173.158,336.895 174.128,334.433C174.502,333.537 175.136,332.791 176.031,332.194C176.927,331.597 177.897,331.635 178.942,332.306C179.762,332.828 180.341,333.668 180.677,334.825C181.012,335.981 181.031,336.933 180.732,337.679Z" style="fill:white;fill-rule:nonzero;"/>
        </g>
        <path d="M222.372,357.267C221.924,359.357 221.122,361.353 219.965,363.256C218.808,365.158 217.484,366.931 215.991,368.572C214.499,370.214 212.876,371.632 211.122,372.826C209.369,374.02 207.596,374.953 205.805,375.624C202.522,376.818 199.257,377.21 196.011,376.799C192.765,376.389 189.874,374.915 187.337,372.378C185.62,370.289 184.408,367.938 183.699,365.326C182.99,362.715 182.654,360.047 182.691,357.323C182.729,354.599 183.102,351.969 183.811,349.432C184.52,346.895 185.434,344.619 186.553,342.604C187.896,340.216 189.501,338.239 191.366,336.671C193.232,335.104 195.284,334.172 197.522,333.873C198.119,333.724 198.604,333.873 198.978,334.321C199.351,334.769 199.537,335.291 199.537,335.888C200.283,335.142 201.44,334.582 203.007,334.209C204.574,333.836 206.328,333.799 208.268,334.097C211.85,334.545 214.686,335.627 216.775,337.343C218.864,339.059 220.413,341.056 221.42,343.332C222.428,345.607 222.95,347.995 222.987,350.495C223.025,352.995 222.819,355.252 222.372,357.267ZM197.97,341.82C196.478,342.492 195.228,343.481 194.22,344.787C193.213,346.093 192.392,347.566 191.758,349.208C191.124,350.85 190.713,352.622 190.527,354.525C190.34,356.428 190.321,358.275 190.471,360.065C190.695,362.677 191.478,364.823 192.821,366.502C194.164,368.181 196.254,369.02 199.09,369.02C200.731,369.02 202.354,368.703 203.959,368.069C205.563,367.434 207.037,366.595 208.38,365.55C209.723,364.506 210.954,363.256 212.074,361.8C213.193,360.345 214.089,358.834 214.76,357.267C215.133,356.446 215.432,355.42 215.656,354.189C215.879,352.958 215.954,351.689 215.879,350.383C215.805,349.077 215.506,347.827 214.984,346.634C214.462,345.44 213.641,344.432 212.521,343.611C210.954,342.492 209.089,341.82 206.925,341.597C204.761,341.373 202.485,341.858 200.097,343.052C199.649,343.35 199.145,343.406 198.586,343.22C198.026,343.033 197.821,342.567 197.97,341.82Z" style="fill:white;fill-rule:nonzero;"/>
        <path d="M234.348,379.094C234.125,376.333 233.957,373.199 233.845,369.692C233.733,366.184 233.677,362.584 233.677,358.89C233.677,355.196 233.695,351.559 233.733,347.977C233.77,344.395 233.863,341.149 234.013,338.239C234.013,337.492 234.367,336.914 235.076,336.504C235.785,336.093 236.363,335.925 236.811,336C238.154,336.149 239.068,336.616 239.553,337.399C240.038,338.183 240.355,339.283 240.505,340.701C240.43,343.089 240.374,345.477 240.337,347.865C240.3,350.253 240.318,352.641 240.393,355.029C243.751,354.432 246.568,353.2 248.844,351.335C251.12,349.469 252.743,347.342 253.713,344.955C254.086,344.059 254.366,342.977 254.552,341.708C254.739,340.44 254.758,339.153 254.608,337.847C254.459,336.541 254.105,335.31 253.545,334.153C252.985,332.996 252.146,332.082 251.026,331.411C249.385,330.441 247.594,329.918 245.654,329.844C243.713,329.769 241.717,330.049 239.665,330.683C237.613,331.317 235.598,332.306 233.621,333.649C231.643,334.993 229.796,336.597 228.08,338.462C228.304,339.582 228.155,340.57 227.632,341.429C227.11,342.287 226.364,342.902 225.394,343.276C224.797,343.425 224.088,343.108 223.267,342.324C222.446,341.541 222.036,340.738 222.036,339.918C222.036,336.933 222.875,334.34 224.554,332.138C226.233,329.937 228.341,328.09 230.878,326.598C233.416,325.105 236.139,323.986 239.05,323.24C241.96,322.493 244.646,322.12 247.109,322.12C250.765,322.12 253.825,323.184 256.287,325.31C258.75,327.437 260.429,330.105 261.324,333.314C262.891,338.91 262.5,343.947 260.149,348.424C257.798,352.902 253.974,356.782 248.676,360.065C252.556,362.453 256.194,364.729 259.589,366.893C262.985,369.057 266.399,371.408 269.831,373.945C270.279,374.393 270.783,375.046 271.342,375.904C271.902,376.762 271.809,378.049 271.062,379.766C270.615,380.81 269.85,381.389 268.768,381.501C267.686,381.613 266.622,381.295 265.578,380.549C263.936,379.206 262.089,377.807 260.037,376.352C257.985,374.897 255.84,373.441 253.601,371.986C251.362,370.531 249.124,369.113 246.885,367.733C244.646,366.352 242.52,365.065 240.505,363.871C240.579,366.856 240.635,369.822 240.673,372.77C240.71,375.717 240.803,378.609 240.952,381.445C240.952,382.489 240.654,383.217 240.057,383.627C239.46,384.038 238.714,384.243 237.818,384.243C237.371,384.168 236.96,383.926 236.587,383.515C236.214,383.105 235.86,382.62 235.524,382.06C235.188,381.501 234.908,380.941 234.684,380.381C234.46,379.822 234.348,379.393 234.348,379.094Z" style="fill:white;fill-rule:nonzero;"/>
        <path d="M281.696,335.888C281.323,338.5 280.987,341.391 280.689,344.563C280.39,347.734 280.092,350.943 279.793,354.189C279.495,357.435 279.215,360.588 278.954,363.647C278.693,366.707 278.487,369.393 278.338,371.707C280.875,371.259 283.692,370.736 286.789,370.139C289.886,369.542 293.039,368.927 296.247,368.293C299.456,367.658 302.609,367.099 305.706,366.614C308.803,366.129 311.619,365.774 314.157,365.55C314.381,365.55 314.642,365.625 314.94,365.774C315.537,366.073 315.836,366.558 315.836,367.229C315.836,368.199 315.649,368.927 315.276,369.412C314.903,369.897 314.455,370.27 313.933,370.531C313.41,370.792 312.869,371.035 312.31,371.259C311.75,371.483 311.246,371.818 310.799,372.266C308.485,372.863 305.948,373.497 303.187,374.169C300.426,374.841 297.591,375.512 294.68,376.184C291.77,376.855 288.86,377.527 285.95,378.199C283.039,378.87 280.316,379.542 277.778,380.213C275.465,380.81 273.712,380.4 272.518,378.982C271.324,377.564 270.839,375.251 271.062,372.042C271.436,365.998 271.883,359.935 272.406,353.853C272.928,347.772 273.562,341.708 274.308,335.664C274.458,334.396 274.887,333.351 275.596,332.53C276.305,331.709 277.181,331.224 278.226,331.075C279.942,330.851 280.969,331.28 281.304,332.362C281.64,333.444 281.771,334.619 281.696,335.888Z" style="fill:white;fill-rule:nonzero;"/>
        <path d="M314.94,336.671C313.821,337.119 312.851,337.157 312.03,336.783C311.209,336.41 310.612,335.925 310.239,335.328C309.717,334.582 309.567,333.799 309.791,332.978C310.015,332.157 310.649,331.448 311.694,330.851C313.41,329.881 315.574,329.079 318.186,328.444C320.798,327.81 323.596,327.642 326.581,327.941C329.566,328.239 332.308,329.041 334.808,330.347C337.308,331.653 339.435,333.314 341.188,335.328C342.942,337.343 344.285,339.638 345.218,342.212C346.151,344.787 346.58,347.492 346.505,350.327C346.356,353.312 345.778,356.297 344.77,359.282C343.763,362.267 342.382,365.065 340.629,367.677C338.875,370.289 336.786,372.658 334.361,374.785C331.935,376.911 329.268,378.572 326.357,379.766C324.343,380.288 322.813,380.363 321.768,379.99C320.723,379.616 320.014,379.169 319.641,378.646C319.492,378.273 319.436,377.77 319.473,377.135C319.511,376.501 319.903,375.848 320.649,375.176C319.753,367.938 319.212,360.942 319.026,354.189C318.839,347.436 318.746,341.261 318.746,335.664C317.477,335.888 316.209,336.224 314.94,336.671ZM327.141,335.216C326.693,335.142 326.227,335.086 325.742,335.048C325.257,335.011 324.79,334.993 324.343,334.993C324.79,335.589 325.163,336.317 325.462,337.175C325.76,338.033 325.91,338.873 325.91,339.694C325.91,344.246 325.966,349.133 326.078,354.357C326.189,359.58 326.544,365.214 327.141,371.259C330.424,368.871 333.241,365.867 335.592,362.248C337.942,358.629 339.192,354.805 339.342,350.775C339.416,347.044 338.483,343.742 336.543,340.869C334.603,337.996 331.469,336.112 327.141,335.216Z" style="fill:white;fill-rule:nonzero;"/>
    </g>
    <g transform="matrix(0.922689,0,0,0.922689,65.5536,-11.0218)">
        <circle cx="347.011" cy="203.393" r="120.816" style="fill:white;fill-opacity:0.458824;"/>
    </g>
    <g transform="matrix(1.07657,0,0,1.07657,12.1548,-42.3203)">
        <circle cx="347.011" cy="203.393" r="120.816" style="fill:white;fill-opacity:0.152941;"/>
    </g>
    <g transform="matrix(0.766547,0,0,0.766547,119.737,20.7364)">
        <circle cx="347.011" cy="203.393" r="120.816" style="fill:rgb(39,193,222);"/>
        <clipPath id="_clip1">
            <circle cx="347.011" cy="203.393" r="120.816"/>
        </clipPath>
        <g clip-path="url(#_clip1)">
            <g transform="matrix(1.30455,0,0,1.30455,-156.203,-27.0517)">
                <clipPath id="_clip2">
                    <path d="M321.562,155.095L311.723,176.894L326.128,196.782L323.656,227.482L326.128,237.121L335.949,246.206L334.324,235.677L348.102,220.731L355.617,209.521L363.548,205.91L376.133,183.325L363.548,176.894L337.934,149.166L321.562,155.095M432.505,246.206L427.443,240.746L435.927,228.131L441.367,206.229L441.367,182.355L420.41,182.355L408.994,168.669L412.079,145.199L427.443,135.249L446.47,137.063L462.065,142.518L460.141,137.063L452.431,132.221L444.672,132.221L441.367,127.066L435.927,124.731L430.087,132.221L420.41,124.731L432.505,116.689L434.375,109.513L423.779,104.356L423.779,95.763L446.47,94.532L537.911,168.669L432.505,246.206M321.562,151.861L316.605,138.788L318.876,132.49L311.723,131.228L314.785,120.918L330.608,118.434L333.611,127.481L335.564,117.265L347.269,110.794L364.182,108.283L373.232,108.283L373.232,93.067L356.821,97.488L362.477,87.004L376.133,89.833L380.953,84.684L384.833,99.52L403.106,82.465L373.232,72.1L282.895,89.833L304.962,126.008L304.962,135.018L311.723,138.788L321.562,151.861M420.41,105.683L416.242,109.513L423.202,116.344L428.48,113.451L420.41,105.683"/>
                </clipPath>
                <g clip-path="url(#_clip2)">
                    <rect x="224.641" y="72.1" width="313.271" height="251.736" style="fill:rgb(36,168,96);"/>
                    <g id="Layer2" transform="matrix(1,0,0,0.561642,9.04862,29.5799)">
                        <g transform="matrix(1,0,0,0.874715,-20.7244,251.703)">
                            <rect x="199.599" y="63.014" width="395.627" height="17.137" style="fill:rgb(38,141,85);"/>
                        </g>
                        <g transform="matrix(1,0,0,0.874715,-20.7244,221.723)">
                            <rect x="199.599" y="63.014" width="395.627" height="17.137" style="fill:rgb(38,141,85);"/>
                        </g>
                        <g transform="matrix(1,0,0,0.874715,-20.7244,281.684)">
                            <rect x="199.599" y="63.014" width="395.627" height="17.137" style="fill:rgb(38,141,85);"/>
                        </g>
                        <g transform="matrix(1,0,0,0.874715,-20.7244,341.645)">
                            <rect x="199.599" y="63.014" width="395.627" height="17.137" style="fill:rgb(38,141,85);"/>
                        </g>
                        <g transform="matrix(1,0,0,0.874715,-20.7244,311.664)">
                            <rect x="199.599" y="63.014" width="395.627" height="17.137" style="fill:rgb(38,141,85);"/>
                        </g>
                        <g transform="matrix(1,0,0,0.874715,-20.7244,71.8196)">
                            <rect x="199.599" y="63.014" width="395.627" height="17.137" style="fill:rgb(38,141,85);"/>
                        </g>
                        <g transform="matrix(1,0,0,0.874715,-20.7244,41.839)">
                            <rect x="199.599" y="63.014" width="395.627" height="17.137" style="fill:rgb(38,141,85);"/>
                        </g>
                        <g transform="matrix(1,0,0,0.874715,-20.7244,101.8)">
                            <rect x="199.599" y="63.014" width="395.627" height="17.137" style="fill:rgb(38,141,85);"/>
                        </g>
                        <g transform="matrix(1,0,0,0.874715,-20.7244,161.761)">
                            <rect x="199.599" y="63.014" width="395.627" height="17.137" style="fill:rgb(38,141,85);"/>
                        </g>
                        <g transform="matrix(1,0,0,0.874715,-20.7244,131.781)">
                            <rect x="199.599" y="63.014" width="395.627" height="17.137" style="fill:rgb(38,141,85);"/>
                        </g>
                        <g transform="matrix(1,0,0,0.874715,-20.7244,191.742)">
                            <rect x="199.599" y="63.014" width="395.627" height="17.137" style="fill:rgb(38,141,85);"/>
                        </g>
                    </g>
                </g>
            </g>
        </g>
    </g>
</svg>
