<?xml version="1.0" standalone="no"?><!DOCTYPE svg PUBLIC "-//W3C//DTD SVG 1.1//EN" "http://www.w3.org/Graphics/SVG/1.1/DTD/svg11.dtd"><svg width="100%" height="100%" viewBox="0 0 677 287" version="1.1" xmlns="http://www.w3.org/2000/svg" xmlns:xlink="http://www.w3.org/1999/xlink" xml:space="preserve" style="fill-rule:evenodd;clip-rule:evenodd;stroke-linejoin:round;stroke-miterlimit:1.41421;"><text x="292.911px" y="135.788px" style="font-family:'NanumPen';font-size:107.466px;fill:#fff;">G<tspan x="341.164px 385.225px 445.406px 484.094px 508.812px 550.616px " y="135.788px 135.788px 135.788px 135.788px 135.788px 135.788px ">AME ON</tspan></text><text x="292.911px" y="236.924px" style="font-family:'NanumPen';font-size:173px;fill:#fff;">W<tspan x="396.019px 463.316px 532.17px 599.294px " y="236.924px 236.924px 236.924px 236.924px ">ORLD</tspan></text><circle cx="140.737" cy="146.647" r="111.476" style="fill:#fff;fill-opacity:0.458824;"/><circle cx="140.737" cy="146.647" r="130.067" style="fill:#fff;fill-opacity:0.152941;"/><circle cx="140.737" cy="146.647" r="92.611" style="fill:#27c1de;"/><clipPath id="_clip1"><circle cx="140.737" cy="146.647" r="92.611"/></clipPath><g clip-path="url(#_clip1)"><clipPath id="_clip2"><path d="M76.562,125.095l-9.839,21.799l14.405,19.888l-2.472,30.7l2.472,9.639l9.821,9.085l-1.625,-10.529l13.778,-14.946l7.515,-11.21l7.931,-3.611l12.585,-22.585l-12.585,-6.431l-25.614,-27.728l-16.372,5.929M187.505,216.206l-5.062,-5.46l8.484,-12.615l5.44,-21.902l0,-23.874l-20.957,0l-11.416,-13.686l3.085,-23.47l15.364,-9.95l19.027,1.814l15.595,5.455l-1.924,-5.455l-7.71,-4.842l-7.759,0l-3.305,-5.155l-5.44,-2.335l-5.84,7.49l-9.677,-7.49l12.095,-8.042l1.87,-7.176l-10.596,-5.157l0,-8.593l22.691,-1.231l91.441,74.137l-105.406,77.537M76.562,121.861l-4.957,-13.073l2.271,-6.298l-7.153,-1.262l3.062,-10.31l15.823,-2.484l3.003,9.047l1.953,-10.216l11.705,-6.471l16.913,-2.511l9.05,0l0,-15.216l-16.411,4.421l5.656,-10.484l13.656,2.829l4.82,-5.149l3.88,14.836l18.273,-17.055l-29.874,-10.365l-90.337,17.733l22.067,36.175l0,9.01l6.761,3.77l9.839,13.073M175.41,75.683l-4.168,3.83l6.96,6.831l5.278,-2.893l-8.07,-7.768"/></clipPath><g clip-path="url(#_clip2)"><rect x="-20.359" y="42.1" width="313.271" height="251.736" style="fill:#24a860;"/><g id="Layer2"><rect x="-57.076" y="171.904" width="395.627" height="8.419" style="fill:#268d55;"/><rect x="-57.076" y="155.066" width="395.627" height="8.419" style="fill:#268d55;"/><rect x="-57.076" y="188.743" width="395.627" height="8.419" style="fill:#268d55;"/><rect x="-57.076" y="222.419" width="395.627" height="8.419" style="fill:#268d55;"/><rect x="-57.076" y="205.581" width="395.627" height="8.419" style="fill:#268d55;"/><rect x="-57.076" y="70.874" width="395.627" height="8.419" style="fill:#268d55;"/><rect x="-57.076" y="54.036" width="395.627" height="8.419" style="fill:#268d55;"/><rect x="-57.076" y="87.712" width="395.627" height="8.419" style="fill:#268d55;"/><rect x="-57.076" y="121.389" width="395.627" height="8.419" style="fill:#268d55;"/><rect x="-57.076" y="104.551" width="395.627" height="8.419" style="fill:#268d55;"/><rect x="-57.076" y="138.228" width="395.627" height="8.419" style="fill:#268d55;"/></g></g></g></svg>