<?xml version="1.0" standalone="no"?>
<!DOCTYPE svg PUBLIC "-//W3C//DTD SVG 1.1//EN" "http://www.w3.org/Graphics/SVG/1.1/DTD/svg11.dtd">
<svg width="100%" height="100%" viewBox="0 0 180 180" version="1.1" xmlns="http://www.w3.org/2000/svg" xmlns:xlink="http://www.w3.org/1999/xlink" xml:space="preserve" style="fill-rule:evenodd;clip-rule:evenodd;stroke-linejoin:round;stroke-miterlimit:1.41421;">
    <path d="M90,90L90,23.887" style="fill:rgb(33,33,33);stroke-width:3px;stroke:rgb(33,33,33);"/>
    <g transform="matrix(-0.500674,0.865636,-0.865636,-0.500674,212.968,57.1534)">
        <path d="M90,90L90,23.887" style="fill:rgb(33,33,33);stroke-width:3px;stroke:rgb(33,33,33);"/>
    </g>
    <g transform="matrix(0.500674,0.865636,0.865636,-0.500674,-32.9679,57.1534)">
        <path d="M90,90L90,23.887" style="fill:rgb(33,33,33);stroke-width:3px;stroke:rgb(33,33,33);"/>
    </g>
    <g transform="matrix(1.36057,0,0,1.36057,-80.2663,51.9458)">
        <rect x="112.152" y="49.267" width="25.982" height="25.264" style="fill:none;stroke-width:1.47px;stroke:rgb(33,33,33);"/>
    </g>
    <g transform="matrix(1,0,0,1,1.36975,1.5415)">
        <circle cx="79.926" cy="126.404" r="2.362" style="fill:rgb(33,33,33);stroke-width:1px;stroke:black;"/>
    </g>
    <g transform="matrix(1,0,0,1,1.36975,-0.342116)">
        <circle cx="79.926" cy="136.639" r="2.362" style="fill:rgb(33,33,33);stroke-width:1px;stroke:black;"/>
    </g>
    <g transform="matrix(1,0,0,1,1.36975,-0.910525)">
        <circle cx="79.926" cy="146.089" r="2.362" style="fill:rgb(33,33,33);stroke-width:1px;stroke:black;"/>
    </g>
    <g transform="matrix(1,0,0,1,18.0601,1.27688)">
        <circle cx="79.926" cy="126.404" r="2.362" style="fill:rgb(33,33,33);stroke-width:1px;stroke:black;"/>
    </g>
    <g transform="matrix(1,0,0,1,18.0601,-0.606735)">
        <circle cx="79.926" cy="136.639" r="2.362" style="fill:rgb(33,33,33);stroke-width:1px;stroke:black;"/>
    </g>
    <g transform="matrix(1,0,0,1,18.0601,-1.17514)">
        <circle cx="79.926" cy="146.089" r="2.362" style="fill:rgb(33,33,33);stroke-width:1px;stroke:black;"/>
    </g>
    <g id="Layer1">
        <rect x="102.991" y="48.6" width="39.75" height="23.502" style="fill:none;stroke-width:2px;stroke:rgb(33,33,33);"/>
        <g transform="matrix(-0.0013413,-0.801918,0.906422,-0.00151609,63.243,177.719)">
            <path d="M159.418,103.583L132.896,103.583L137.767,87.934L154.548,87.934L159.418,103.583Z" style="fill:none;stroke-width:2.34px;stroke:rgb(33,33,33);"/>
        </g>
        <g transform="matrix(1.37375,0,0,1.37375,66.3589,-90.6471)">
            <circle cx="33.9" cy="94.129" r="7.234" style="fill:none;stroke-width:1.46px;stroke:rgb(33,33,33);"/>
        </g>
        <g transform="matrix(1.33061,0,0,1.33061,87.3845,-86.2741)">
            <circle cx="33.9" cy="94.129" r="7.234" style="fill:none;stroke-width:1.5px;stroke:rgb(33,33,33);"/>
        </g>
        <g transform="matrix(3.12649,0,0,3.12649,-60.2251,-238.004)">
            <circle cx="33.9" cy="94.129" r="7.234" style="fill:none;stroke-width:0.64px;stroke:rgb(33,33,33);"/>
        </g>
        <path d="M55.533,35.407L55.546,35.409L55.633,35.421L55.719,35.444L55.728,35.447L55.82,35.484L55.905,35.532L55.909,35.535L55.975,35.583L56.035,35.639L56.037,35.642L56.095,35.709L56.145,35.782L56.147,35.786L56.187,35.863L56.217,35.943L56.219,35.948L56.243,36.052L56.253,36.158L56.247,36.265L56.226,36.37L56.191,36.471L56.141,36.566L56.079,36.653L56.004,36.73L55.92,36.795L55.827,36.848L55.727,36.888L55.623,36.912L55.533,36.92L55.498,36.936L55.419,36.973L55.243,37.058L55.048,37.15L54.619,37.35L54.385,37.46L54.139,37.575L53.881,37.698L53.613,37.827L53.334,37.963L53.045,38.106L52.747,38.257L52.596,38.335L52.442,38.415L52.286,38.497L52.128,38.581L51.968,38.667L51.807,38.755L51.644,38.845L51.48,38.937L51.314,39.031L51.147,39.127L50.979,39.225L50.81,39.326L50.639,39.428L50.468,39.533L50.295,39.639L50.122,39.748L49.948,39.86L49.774,39.973L49.598,40.089L49.423,40.207L49.247,40.327L49.071,40.449L48.894,40.574L48.718,40.701L48.541,40.831L48.365,40.963L48.188,41.097L48.012,41.234L47.836,41.373L47.661,41.515L47.486,41.659L47.312,41.805L47.138,41.955L46.965,42.106L46.793,42.26L46.622,42.417L46.452,42.576L46.283,42.738L46.115,42.903L45.948,43.07L45.782,43.24L45.7,43.325L45.619,43.411L45.486,43.555L45.355,43.698L45.226,43.842L45.099,43.987L44.974,44.132L44.85,44.278L44.728,44.424L44.608,44.571L44.489,44.719L44.372,44.868L44.257,45.017L44.143,45.167L44.031,45.317L43.92,45.468L43.811,45.62L43.703,45.772L43.597,45.925L43.491,46.079L43.387,46.233L43.285,46.388L43.183,46.544L43.083,46.7L42.984,46.857L42.886,47.015L42.789,47.174L42.694,47.333L42.599,47.492L42.505,47.653L42.412,47.814L42.32,47.976L42.229,48.138L42.139,48.301L42.05,48.465L41.961,48.63L41.873,48.795L41.786,48.961L41.7,49.127L41.614,49.295L41.529,49.462L41.445,49.631L41.361,49.8L41.278,49.97L41.112,50.312L40.948,50.657L40.785,51.004L40.624,51.354L40.464,51.707L40.304,52.062L40.144,52.42L39.985,52.78L39.825,53.143L39.504,53.876L39.375,54.173L39.247,54.475L39.183,54.627L39.12,54.781L39.056,54.936L38.993,55.093L38.931,55.252L38.868,55.412L38.807,55.573L38.745,55.736L38.684,55.9L38.624,56.066L38.565,56.234L38.506,56.403L38.448,56.574L38.391,56.747L38.334,56.921L38.279,57.097L38.224,57.275L38.171,57.454L38.118,57.635L38.067,57.818L38.016,58.003L37.967,58.19L37.919,58.379L37.872,58.569L37.827,58.762L37.783,58.956L37.74,59.153L37.699,59.351L37.66,59.551L37.622,59.754L37.585,59.958L37.551,60.165L37.517,60.374L37.486,60.585L37.457,60.798L37.429,61.013L37.404,61.231L37.38,61.451L37.358,61.673L37.338,61.897L37.321,62.124L37.306,62.353L37.293,62.584L37.282,62.818L37.273,63.054L37.267,63.293L37.263,63.534L37.262,63.778L37.263,64.024L37.267,64.273L37.274,64.524L37.283,64.778L37.295,65.034L37.309,65.293L37.327,65.555L37.347,65.82L37.371,66.087L37.397,66.357L37.427,66.63L37.459,66.906L37.499,67.22L37.542,67.531L37.587,67.839L37.634,68.144L37.684,68.445L37.735,68.742L37.789,69.036L37.844,69.326L37.901,69.612L37.96,69.894L38.02,70.173L38.082,70.448L38.145,70.718L38.209,70.985L38.275,71.247L38.341,71.506L38.409,71.76L38.477,72.009L38.546,72.255L38.616,72.496L38.686,72.732L38.757,72.964L38.828,73.191L38.899,73.413L38.97,73.631L39.042,73.844L39.113,74.052L39.184,74.255L39.255,74.453L39.326,74.646L39.396,74.834L39.465,75.017L39.534,75.194L39.602,75.366L39.669,75.533L39.735,75.694L39.799,75.849L39.863,75.999L39.925,76.144L39.986,76.282L40.046,76.415L40.104,76.542L40.16,76.663L40.214,76.778L40.266,76.887L40.316,76.989L40.364,77.085L40.409,77.175L40.452,77.259L40.492,77.335L40.53,77.405L40.565,77.468L40.596,77.524L40.624,77.572L40.636,77.593L40.686,77.642L40.751,77.727L40.804,77.82L40.842,77.92L40.866,78.024L40.867,78.032L40.876,78.124L40.876,78.13L40.874,78.219L40.86,78.308L40.859,78.312L40.833,78.405L40.795,78.494L40.746,78.578L40.686,78.655L40.685,78.656L40.615,78.725L40.538,78.783L40.454,78.832L40.364,78.869L40.271,78.894L40.174,78.906L40.172,78.907L40.081,78.907L39.991,78.897L39.902,78.876L39.817,78.844L39.814,78.842L39.739,78.804L39.669,78.758L39.665,78.755L39.598,78.698L39.593,78.693L39.542,78.64L39.511,78.605L39.469,78.549L39.434,78.498L39.4,78.447L39.366,78.392L39.331,78.332L39.293,78.268L39.254,78.198L39.212,78.122L39.168,78.04L39.122,77.952L39.073,77.858L39.023,77.758L38.97,77.652L38.915,77.54L38.859,77.422L38.8,77.298L38.74,77.168L38.679,77.032L38.615,76.89L38.55,76.743L38.484,76.59L38.417,76.431L38.348,76.267L38.279,76.097L38.208,75.921L38.137,75.74L38.064,75.554L37.992,75.362L37.918,75.165L37.844,74.963L37.77,74.756L37.696,74.543L37.621,74.326L37.547,74.103L37.472,73.876L37.398,73.643L37.323,73.406L37.25,73.164L37.176,72.918L37.104,72.666L37.032,72.411L36.96,72.15L36.89,71.885L36.821,71.616L36.753,71.342L36.685,71.065L36.62,70.782L36.555,70.496L36.493,70.206L36.431,69.911L36.372,69.613L36.314,69.31L36.258,69.004L36.205,68.694L36.153,68.38L36.104,68.063L36.057,67.742L36.012,67.417L35.97,67.089L35.936,66.798L35.905,66.511L35.877,66.225L35.852,65.943L35.831,65.663L35.812,65.386L35.797,65.112L35.784,64.84L35.774,64.57L35.767,64.304L35.763,64.039L35.762,63.778L35.763,63.519L35.767,63.262L35.774,63.008L35.783,62.756L35.794,62.507L35.808,62.26L35.825,62.016L35.844,61.774L35.864,61.534L35.888,61.297L35.913,61.062L35.94,60.83L35.97,60.6L36.001,60.372L36.035,60.147L36.07,59.924L36.107,59.703L36.146,59.484L36.187,59.268L36.229,59.053L36.273,58.842L36.318,58.632L36.365,58.424L36.414,58.219L36.464,58.015L36.515,57.814L36.567,57.615L36.621,57.418L36.676,57.223L36.732,57.031L36.789,56.84L36.847,56.651L36.906,56.464L36.965,56.28L37.026,56.097L37.087,55.916L37.15,55.737L37.212,55.56L37.276,55.385L37.34,55.212L37.404,55.041L37.469,54.871L37.534,54.704L37.6,54.538L37.666,54.374L37.732,54.212L37.798,54.052L37.864,53.892L37.997,53.581L38.129,53.276L38.452,52.54L38.612,52.174L38.773,51.811L38.935,51.449L39.097,51.088L39.26,50.729L39.425,50.372L39.591,50.017L39.759,49.663L39.929,49.312L40.016,49.136L40.102,48.962L40.19,48.787L40.278,48.613L40.367,48.44L40.457,48.267L40.547,48.094L40.639,47.922L40.731,47.751L40.824,47.58L40.918,47.409L41.014,47.239L41.11,47.069L41.208,46.9L41.306,46.731L41.406,46.563L41.507,46.395L41.609,46.228L41.713,46.062L41.817,45.896L41.923,45.73L42.031,45.565L42.14,45.4L42.25,45.236L42.362,45.073L42.476,44.91L42.591,44.748L42.707,44.586L42.825,44.425L42.945,44.264L43.067,44.104L43.19,43.945L43.315,43.786L43.442,43.628L43.57,43.47L43.701,43.313L43.833,43.157L43.968,43.001L44.104,42.846L44.242,42.692L44.383,42.538L44.525,42.385L44.613,42.292L44.703,42.198L44.88,42.017L45.059,41.837L45.239,41.66L45.421,41.487L45.603,41.316L45.786,41.148L45.97,40.983L46.155,40.821L46.341,40.662L46.527,40.506L46.713,40.352L46.9,40.202L47.087,40.053L47.274,39.908L47.461,39.766L47.648,39.626L47.836,39.488L48.023,39.354L48.209,39.221L48.396,39.092L48.581,38.965L48.767,38.84L48.951,38.718L49.135,38.599L49.319,38.482L49.501,38.367L49.682,38.255L49.862,38.145L50.041,38.037L50.219,37.932L50.395,37.829L50.57,37.729L50.743,37.63L50.915,37.534L51.085,37.44L51.253,37.348L51.42,37.259L51.584,37.171L51.746,37.086L51.907,37.003L52.065,36.921L52.373,36.765L52.671,36.617L52.959,36.477L53.235,36.344L53.498,36.219L53.748,36.101L53.984,35.991L54.411,35.792L54.598,35.703L54.773,35.619L54.873,35.572L54.971,35.528L55.063,35.491L55.116,35.472L55.168,35.455L55.224,35.439L55.289,35.423L55.333,35.416L55.406,35.408L55.422,35.406L55.533,35.407ZM39.378,78.216L39.384,78.255L39.377,78.163L39.378,78.216ZM39.374,78.085L39.376,78.139L39.381,78.053L39.374,78.085ZM55.164,36.84L55.171,36.843L55.153,36.833L55.164,36.84ZM55.016,36.743L55.02,36.746L54.996,36.722L55.016,36.743ZM54.812,36.475L54.9,36.623L54.932,36.657L54.879,36.589L54.826,36.496L54.787,36.396L54.812,36.475Z" style="fill:rgb(33,33,33);"/>
        <path d="M64.056,45.301L64.202,45.305L64.348,45.312L64.424,45.317L64.499,45.323L64.574,45.33L64.649,45.338L64.724,45.347L64.8,45.358L64.875,45.369L64.951,45.382L65.027,45.397L65.103,45.413L65.179,45.431L65.254,45.45L65.33,45.471L65.406,45.495L65.482,45.52L65.557,45.547L65.632,45.577L65.707,45.609L65.781,45.644L65.855,45.681L65.928,45.722L66,45.765L66.071,45.811L66.142,45.86L66.21,45.912L66.278,45.967L66.343,46.026L66.407,46.088L66.469,46.153L66.528,46.221L66.585,46.293L66.638,46.366L66.672,46.418L66.703,46.47L66.733,46.523L66.759,46.579L66.783,46.635L66.804,46.693L66.822,46.751L66.836,46.81L66.847,46.867L66.855,46.923L66.859,46.977L66.862,47.035L66.86,47.116L66.854,47.189L66.85,47.219L66.862,47.287L66.867,47.381L66.86,47.475L66.841,47.567L66.811,47.656L66.77,47.741L66.719,47.82L66.658,47.892L66.589,47.956L66.512,48.01L66.429,48.055L66.341,48.089L66.25,48.111L66.156,48.122L66.062,48.121L65.969,48.108L65.878,48.084L65.791,48.048L65.708,48.002L65.633,47.946L65.565,47.88L65.506,47.807L65.456,47.727L65.417,47.642L65.402,47.602L65.382,47.541L65.367,47.479L65.356,47.419L65.348,47.361L65.344,47.299L65.344,47.212L65.348,47.151L65.34,47.142L65.321,47.124L65.301,47.106L65.28,47.089L65.258,47.072L65.235,47.056L65.209,47.04L65.183,47.024L65.154,47.008L65.124,46.993L65.092,46.978L65.059,46.963L65.023,46.949L64.986,46.936L64.948,46.923L64.907,46.91L64.865,46.899L64.822,46.888L64.777,46.877L64.731,46.867L64.683,46.858L64.634,46.85L64.584,46.842L64.532,46.835L64.48,46.829L64.426,46.823L64.372,46.818L64.317,46.814L64.263,46.81L64.146,46.804L64.029,46.801L63.91,46.8L63.79,46.801L63.668,46.803L63.546,46.807L63.424,46.812L63.302,46.818L63.058,46.831L62.822,46.844L62.705,46.849L62.589,46.854L62.476,46.857L62.369,46.858L62.24,46.858L62.116,46.86L61.992,46.862L61.868,46.865L61.744,46.868L61.62,46.873L61.495,46.878L61.37,46.884L61.246,46.891L61.121,46.899L60.996,46.907L60.871,46.916L60.745,46.926L60.62,46.937L60.495,46.949L60.37,46.961L60.244,46.974L60.119,46.988L59.993,47.002L59.869,47.017L59.617,47.05L59.366,47.086L59.115,47.124L58.865,47.165L58.614,47.209L58.364,47.256L58.115,47.305L57.866,47.357L57.617,47.412L57.369,47.469L57.122,47.528L56.875,47.591L56.629,47.655L56.385,47.722L56.141,47.791L55.898,47.863L55.656,47.936L55.415,48.012L55.176,48.09L54.938,48.17L54.701,48.253L54.465,48.337L54.283,48.404L54.102,48.472L53.921,48.54L53.743,48.609L53.566,48.679L53.39,48.75L53.215,48.822L53.043,48.894L52.871,48.968L52.701,49.044L52.533,49.12L52.366,49.198L52.2,49.277L52.035,49.358L51.872,49.44L51.711,49.524L51.55,49.61L51.391,49.698L51.234,49.788L51.077,49.879L50.922,49.973L50.768,50.069L50.616,50.167L50.464,50.268L50.314,50.371L50.164,50.478L50.091,50.53L50.017,50.585L49.943,50.64L49.87,50.696L49.797,50.752L49.724,50.81L49.652,50.868L49.579,50.926L49.507,50.986L49.436,51.046L49.364,51.107L49.293,51.168L49.239,51.216L49.186,51.265L49.133,51.314L49.08,51.363L49.028,51.413L48.977,51.464L48.926,51.515L48.875,51.567L48.825,51.62L48.775,51.673L48.726,51.726L48.678,51.779L48.58,51.89L48.485,52.002L48.392,52.116L48.3,52.232L48.21,52.35L48.121,52.47L48.034,52.592L47.948,52.715L47.863,52.84L47.779,52.966L47.697,53.094L47.616,53.223L47.536,53.354L47.457,53.485L47.379,53.618L47.302,53.752L47.226,53.887L47.151,54.023L47.076,54.159L47.003,54.297L46.93,54.435L46.858,54.572L46.715,54.852L46.574,55.131L46.523,55.234L46.473,55.338L46.422,55.443L46.372,55.55L46.323,55.658L46.273,55.767L46.224,55.877L46.176,55.989L46.127,56.101L46.08,56.215L46.033,56.33L45.986,56.445L45.939,56.562L45.894,56.679L45.849,56.797L45.804,56.916L45.76,57.036L45.717,57.156L45.674,57.278L45.632,57.4L45.591,57.522L45.55,57.645L45.51,57.769L45.471,57.893L45.433,58.017L45.395,58.142L45.358,58.267L45.322,58.393L45.287,58.519L45.253,58.645L45.219,58.771L45.187,58.898L45.155,59.024L45.125,59.151L45.095,59.278L45.067,59.405L45.039,59.531L45.013,59.658L44.987,59.785L44.963,59.911L44.939,60.037L44.917,60.164L44.896,60.289L44.876,60.415L44.857,60.54L44.839,60.665L44.823,60.789L44.808,60.913L44.794,61.036L44.781,61.159L44.769,61.281L44.759,61.402L44.75,61.523L44.742,61.643L44.736,61.762L44.731,61.88L44.727,61.998L44.725,62.115L44.724,62.23L44.725,62.345L44.727,62.459L44.73,62.571L44.735,62.683L44.741,62.793L44.753,62.972L44.767,63.149L44.784,63.325L44.803,63.5L44.824,63.674L44.846,63.846L44.871,64.017L44.898,64.187L44.927,64.356L44.958,64.523L44.99,64.689L45.024,64.854L45.061,65.017L45.099,65.18L45.138,65.34L45.18,65.5L45.223,65.658L45.268,65.815L45.314,65.971L45.362,66.125L45.411,66.278L45.462,66.43L45.515,66.58L45.569,66.729L45.624,66.877L45.68,67.023L45.738,67.168L45.798,67.311L45.858,67.453L45.92,67.594L45.983,67.733L46.048,67.87L46.113,68.007L46.179,68.142L46.247,68.275L46.315,68.407L46.385,68.537L46.456,68.666L46.527,68.794L46.599,68.92L46.673,69.044L46.747,69.167L46.822,69.289L46.897,69.409L46.974,69.527L47.051,69.644L47.129,69.759L47.207,69.873L47.286,69.985L47.365,70.096L47.445,70.205L47.526,70.312L47.607,70.418L47.688,70.522L47.77,70.624L47.852,70.725L47.934,70.824L48.017,70.921L48.1,71.017L48.183,71.111L48.266,71.204L48.349,71.294L48.432,71.383L48.514,71.469L48.595,71.55L48.678,71.631L48.765,71.713L48.857,71.795L48.952,71.878L49.051,71.961L49.154,72.045L49.26,72.129L49.37,72.213L49.482,72.297L49.598,72.381L49.716,72.464L49.837,72.548L49.961,72.631L50.087,72.714L50.216,72.797L50.346,72.879L50.479,72.96L50.613,73.041L50.75,73.121L50.887,73.2L51.027,73.279L51.167,73.356L51.309,73.433L51.451,73.509L51.595,73.583L51.739,73.657L51.884,73.729L52.029,73.8L52.175,73.87L52.321,73.939L52.467,74.006L52.613,74.071L52.758,74.135L52.903,74.198L53.048,74.259L53.192,74.318L53.335,74.376L53.478,74.431L53.619,74.485L53.759,74.537L53.897,74.587L54.034,74.635L54.17,74.681L54.303,74.725L54.435,74.767L54.564,74.807L54.691,74.844L54.816,74.879L54.937,74.912L55.056,74.942L55.172,74.97L55.285,74.996L55.394,75.019L55.5,75.039L55.601,75.057L55.699,75.072L55.792,75.085L55.88,75.095L55.963,75.102L56.041,75.107L56.113,75.11L56.182,75.11L56.209,75.109L56.245,75.108L56.339,75.11L56.432,75.124L56.523,75.15L56.609,75.186L56.691,75.233L56.766,75.29L56.833,75.357L56.891,75.43L56.94,75.511L56.978,75.597L57.005,75.687L57.021,75.78L57.024,75.874L57.016,75.968L56.997,76.06L56.966,76.149L56.923,76.234L56.871,76.312L56.81,76.383L56.739,76.446L56.662,76.5L56.578,76.543L56.49,76.576L56.398,76.597L56.305,76.607L56.255,76.609L56.195,76.61L56.083,76.61L55.966,76.605L55.848,76.598L55.728,76.587L55.606,76.573L55.482,76.556L55.356,76.537L55.228,76.514L55.098,76.489L54.966,76.461L54.831,76.431L54.695,76.398L54.557,76.363L54.418,76.326L54.276,76.286L54.133,76.243L53.988,76.199L53.841,76.153L53.694,76.104L53.544,76.053L53.394,76L53.243,75.946L53.09,75.889L52.937,75.83L52.782,75.77L52.627,75.708L52.472,75.644L52.316,75.578L52.159,75.511L52.003,75.442L51.846,75.371L51.689,75.299L51.532,75.225L51.376,75.15L51.22,75.074L51.064,74.996L50.909,74.917L50.754,74.837L50.6,74.755L50.447,74.672L50.295,74.589L50.145,74.504L49.995,74.417L49.847,74.33L49.7,74.242L49.555,74.153L49.412,74.063L49.27,73.972L49.13,73.88L48.993,73.788L48.857,73.694L48.724,73.6L48.593,73.505L48.465,73.409L48.339,73.312L48.216,73.215L48.095,73.117L47.978,73.018L47.863,72.919L47.752,72.818L47.643,72.717L47.538,72.615L47.439,72.514L47.343,72.414L47.25,72.315L47.156,72.213L47.063,72.109L46.97,72.004L46.877,71.897L46.785,71.788L46.693,71.678L46.602,71.565L46.511,71.451L46.42,71.336L46.33,71.218L46.241,71.099L46.152,70.978L46.064,70.855L45.976,70.73L45.889,70.604L45.803,70.476L45.717,70.347L45.633,70.216L45.549,70.083L45.466,69.948L45.384,69.812L45.303,69.674L45.223,69.534L45.143,69.393L45.065,69.25L44.988,69.106L44.912,68.96L44.837,68.812L44.764,68.663L44.691,68.512L44.62,68.359L44.551,68.205L44.482,68.049L44.415,67.892L44.349,67.733L44.285,67.573L44.222,67.411L44.161,67.247L44.101,67.082L44.043,66.916L43.987,66.748L43.932,66.578L43.879,66.407L43.827,66.235L43.778,66.061L43.73,65.885L43.684,65.708L43.64,65.53L43.598,65.35L43.558,65.169L43.52,64.986L43.484,64.802L43.45,64.617L43.418,64.43L43.388,64.242L43.361,64.052L43.335,63.861L43.312,63.669L43.292,63.475L43.273,63.28L43.257,63.084L43.244,62.886L43.236,62.756L43.231,62.625L43.227,62.493L43.225,62.361L43.224,62.228L43.225,62.094L43.228,61.96L43.232,61.826L43.238,61.691L43.245,61.555L43.254,61.42L43.264,61.283L43.275,61.147L43.288,61.01L43.302,60.873L43.318,60.736L43.335,60.598L43.353,60.461L43.373,60.323L43.393,60.185L43.416,60.047L43.439,59.909L43.463,59.771L43.489,59.632L43.515,59.494L43.543,59.356L43.572,59.218L43.602,59.08L43.633,58.942L43.665,58.805L43.699,58.667L43.733,58.53L43.768,58.393L43.804,58.257L43.841,58.121L43.879,57.985L43.917,57.849L43.957,57.714L43.998,57.58L44.039,57.446L44.081,57.312L44.124,57.179L44.168,57.047L44.212,56.915L44.258,56.784L44.304,56.653L44.35,56.524L44.398,56.395L44.446,56.267L44.494,56.139L44.544,56.013L44.593,55.887L44.644,55.762L44.695,55.639L44.746,55.516L44.799,55.394L44.851,55.273L44.904,55.154L44.958,55.035L45.012,54.918L45.067,54.801L45.122,54.686L45.177,54.573L45.233,54.46L45.378,54.172L45.526,53.883L45.602,53.737L45.679,53.592L45.757,53.446L45.836,53.301L45.916,53.155L45.998,53.01L46.082,52.865L46.167,52.72L46.253,52.576L46.341,52.432L46.431,52.289L46.523,52.146L46.617,52.005L46.712,51.864L46.81,51.724L46.91,51.585L47.012,51.447L47.117,51.311L47.223,51.176L47.333,51.042L47.445,50.91L47.558,50.781L47.617,50.716L47.676,50.652L47.736,50.588L47.796,50.525L47.857,50.462L47.919,50.4L47.982,50.339L48.045,50.278L48.109,50.217L48.174,50.157L48.239,50.098L48.305,50.04L48.386,49.97L48.467,49.901L48.548,49.833L48.629,49.766L48.71,49.7L48.792,49.634L48.874,49.57L48.957,49.506L49.039,49.443L49.122,49.381L49.205,49.32L49.29,49.258L49.456,49.14L49.625,49.025L49.795,48.912L49.966,48.802L50.137,48.695L50.31,48.591L50.484,48.489L50.658,48.389L50.834,48.293L51.01,48.198L51.188,48.106L51.366,48.016L51.545,47.927L51.725,47.841L51.906,47.757L52.088,47.675L52.271,47.594L52.454,47.515L52.639,47.437L52.824,47.361L53.01,47.286L53.197,47.212L53.385,47.139L53.574,47.068L53.763,46.997L53.954,46.927L54.202,46.838L54.452,46.751L54.704,46.666L54.957,46.584L55.212,46.504L55.467,46.426L55.724,46.35L55.982,46.277L56.241,46.206L56.502,46.138L56.763,46.072L57.025,46.009L57.288,45.948L57.552,45.89L57.816,45.835L58.081,45.783L58.347,45.733L58.613,45.686L58.88,45.643L59.147,45.602L59.415,45.564L59.682,45.529L59.817,45.513L59.951,45.497L60.085,45.482L60.219,45.468L60.353,45.455L60.487,45.443L60.622,45.431L60.756,45.421L60.89,45.411L61.024,45.402L61.158,45.394L61.293,45.386L61.427,45.38L61.561,45.374L61.695,45.369L61.829,45.365L61.963,45.362L62.096,45.36L62.23,45.358L62.359,45.358L62.448,45.357L62.541,45.355L62.64,45.351L62.746,45.346L62.978,45.333L63.226,45.32L63.357,45.314L63.492,45.308L63.629,45.304L63.769,45.301L63.912,45.3L64.056,45.301ZM66.828,47.138L66.827,47.134L66.819,47.107L66.817,47.104L66.828,47.138Z" style="fill:rgb(33,33,33);"/>
        <path d="M33.222,36.686L33.29,36.698L33.296,36.7L33.38,36.724L33.46,36.758L33.536,36.8L33.607,36.852L33.671,36.911L33.728,36.977L33.777,37.049L33.817,37.127L33.847,37.208L33.868,37.293L33.879,37.38L33.88,37.383L33.882,37.389L33.94,37.463L34.035,37.59L34.127,37.718L34.217,37.848L34.304,37.979L34.388,38.111L34.47,38.244L34.55,38.378L34.627,38.513L34.701,38.649L34.773,38.785L34.843,38.923L34.91,39.062L34.974,39.201L35.037,39.341L35.097,39.482L35.155,39.624L35.21,39.766L35.263,39.909L35.314,40.053L35.363,40.197L35.41,40.342L35.455,40.487L35.497,40.633L35.538,40.779L35.576,40.926L35.613,41.073L35.647,41.22L35.68,41.368L35.71,41.516L35.739,41.665L35.766,41.814L35.791,41.963L35.814,42.112L35.836,42.261L35.856,42.411L35.874,42.561L35.89,42.711L35.905,42.861L35.919,43.011L35.93,43.162L35.94,43.312L35.949,43.462L35.956,43.613L35.962,43.763L35.966,43.913L35.969,44.064L35.97,44.214L35.971,44.364L35.969,44.514L35.967,44.663L35.963,44.813L35.958,44.962L35.952,45.111L35.945,45.26L35.936,45.409L35.926,45.557L35.916,45.705L35.904,45.853L35.891,46L35.877,46.147L35.862,46.293L35.846,46.439L35.83,46.585L35.812,46.73L35.793,46.875L35.774,47.019L35.754,47.162L35.732,47.305L35.711,47.448L35.688,47.59L35.664,47.731L35.64,47.872L35.615,48.012L35.564,48.289L35.51,48.564L35.454,48.835L35.396,49.103L35.336,49.368L35.274,49.629L35.211,49.886L35.147,50.139L35.082,50.388L35.015,50.632L34.949,50.872L34.881,51.107L34.814,51.336L34.747,51.561L34.679,51.78L34.613,51.994L34.546,52.202L34.481,52.403L34.416,52.599L34.353,52.788L34.291,52.971L34.172,53.315L34.061,53.63L33.959,53.916L33.883,54.127L33.791,54.372L33.686,54.647L33.627,54.797L33.565,54.953L33.5,55.115L33.431,55.283L33.358,55.458L33.282,55.638L33.203,55.823L33.121,56.014L33.035,56.208L32.945,56.408L32.853,56.611L32.757,56.818L32.658,57.028L32.556,57.242L32.451,57.458L32.342,57.677L32.231,57.897L32.116,58.12L31.998,58.344L31.877,58.569L31.753,58.795L31.627,59.022L31.497,59.249L31.364,59.476L31.228,59.703L31.089,59.928L30.948,60.152L30.876,60.265L30.803,60.377L30.73,60.488L30.656,60.599L30.581,60.709L30.506,60.819L30.429,60.928L30.352,61.037L30.275,61.145L30.196,61.252L30.117,61.359L30.037,61.465L29.956,61.57L29.875,61.674L29.793,61.778L29.71,61.88L29.627,61.982L29.542,62.083L29.457,62.182L29.371,62.281L29.285,62.378L29.197,62.475L29.109,62.57L29.02,62.664L28.931,62.757L28.84,62.848L28.749,62.938L28.657,63.027L28.564,63.114L28.471,63.2L28.376,63.284L28.281,63.367L28.185,63.448L28.088,63.528L27.99,63.606L27.891,63.682L27.792,63.756L27.691,63.828L27.59,63.899L27.488,63.968L27.384,64.034L27.28,64.099L27.175,64.162L27.069,64.222L26.962,64.28L26.854,64.336L26.745,64.39L26.635,64.441L26.524,64.489L26.412,64.535L26.299,64.579L26.185,64.62L26.071,64.658L25.955,64.693L25.838,64.725L25.721,64.754L25.602,64.78L25.483,64.803L25.363,64.823L25.242,64.84L25.12,64.853L25.008,64.862L24.921,64.864L24.834,64.855L24.749,64.837L24.667,64.809L24.588,64.771L24.514,64.725L24.446,64.67L24.385,64.608L24.331,64.539L24.286,64.465L24.25,64.385L24.223,64.302L24.206,64.217L24.199,64.13L24.203,64.043L24.216,63.956L24.239,63.872L24.272,63.792L24.314,63.715L24.365,63.644L24.423,63.579L24.489,63.522L24.561,63.473L24.638,63.432L24.719,63.4L24.803,63.378L24.89,63.366L24.98,63.359L25.06,63.351L25.139,63.34L25.219,63.327L25.298,63.311L25.378,63.294L25.458,63.274L25.537,63.252L25.617,63.228L25.697,63.201L25.777,63.173L25.857,63.142L25.937,63.109L26.018,63.074L26.098,63.036L26.178,62.997L26.259,62.955L26.34,62.911L26.42,62.865L26.501,62.817L26.582,62.767L26.662,62.715L26.743,62.661L26.824,62.605L26.904,62.547L26.985,62.487L27.065,62.425L27.145,62.361L27.225,62.295L27.305,62.228L27.385,62.158L27.464,62.087L27.544,62.015L27.623,61.94L27.702,61.864L27.78,61.787L27.858,61.708L27.936,61.627L28.014,61.545L28.091,61.462L28.168,61.377L28.245,61.29L28.321,61.203L28.397,61.114L28.472,61.024L28.547,60.933L28.622,60.84L28.696,60.747L28.77,60.652L28.843,60.557L28.916,60.46L28.988,60.363L29.06,60.265L29.131,60.165L29.202,60.065L29.273,59.965L29.342,59.863L29.412,59.761L29.48,59.658L29.549,59.555L29.616,59.451L29.683,59.348L29.816,59.136L29.946,58.925L30.073,58.712L30.198,58.498L30.321,58.283L30.441,58.069L30.558,57.854L30.673,57.64L30.785,57.427L30.895,57.215L31.001,57.005L31.105,56.796L31.205,56.589L31.303,56.385L31.398,56.184L31.49,55.985L31.578,55.79L31.664,55.599L31.746,55.412L31.826,55.23L31.902,55.052L31.974,54.879L32.044,54.712L32.11,54.55L32.172,54.395L32.232,54.246L32.287,54.104L32.389,53.841L32.475,53.608L32.548,53.409L32.647,53.13L32.756,52.821L32.872,52.485L32.932,52.309L32.993,52.126L33.055,51.937L33.118,51.742L33.182,51.542L33.247,51.336L33.311,51.125L33.376,50.91L33.441,50.689L33.505,50.464L33.569,50.235L33.632,50.002L33.694,49.764L33.756,49.523L33.816,49.278L33.874,49.03L33.931,48.779L33.987,48.524L34.04,48.267L34.091,48.008L34.139,47.745L34.163,47.614L34.185,47.482L34.207,47.349L34.229,47.216L34.249,47.082L34.269,46.948L34.288,46.813L34.306,46.679L34.323,46.544L34.34,46.408L34.356,46.272L34.37,46.136L34.384,46L34.397,45.864L34.409,45.727L34.42,45.591L34.43,45.454L34.439,45.317L34.447,45.18L34.453,45.043L34.459,44.906L34.464,44.769L34.467,44.632L34.469,44.495L34.471,44.358L34.47,44.222L34.469,44.085L34.466,43.949L34.463,43.813L34.457,43.677L34.451,43.541L34.443,43.405L34.434,43.27L34.424,43.136L34.412,43.001L34.398,42.867L34.384,42.733L34.368,42.6L34.35,42.467L34.331,42.335L34.31,42.203L34.288,42.072L34.265,41.941L34.239,41.811L34.213,41.681L34.184,41.552L34.154,41.424L34.122,41.296L34.089,41.169L34.054,41.043L34.018,40.917L33.979,40.792L33.939,40.668L33.897,40.545L33.854,40.422L33.809,40.3L33.761,40.18L33.712,40.059L33.662,39.94L33.609,39.822L33.554,39.705L33.498,39.588L33.44,39.473L33.379,39.358L33.317,39.244L33.253,39.132L33.187,39.02L33.118,38.909L33.048,38.8L32.976,38.691L32.901,38.583L32.825,38.477L32.746,38.371L32.645,38.241L32.608,38.186L32.576,38.129L32.535,38.05L32.496,37.964L32.474,37.914L32.454,37.865L32.435,37.813L32.415,37.755L32.395,37.688L32.378,37.613L32.368,37.546L32.365,37.509L32.363,37.426L32.363,37.418L32.368,37.354L32.379,37.29L32.38,37.284L32.398,37.215L32.422,37.149L32.453,37.085L32.455,37.08L32.498,37.01L32.548,36.945L32.605,36.885L32.668,36.833L32.671,36.83L32.733,36.789L32.798,36.753L32.867,36.725L32.938,36.703L33.011,36.689L33.016,36.688L33.084,36.681L33.153,36.681L33.222,36.686Z" style="fill:rgb(33,33,33);"/>
        <path d="M25.587,46.601L25.691,46.629L25.789,46.672L25.88,46.728L25.962,46.796L26.034,46.876L26.093,46.951L26.15,47.023L26.208,47.095L26.267,47.166L26.327,47.237L26.387,47.307L26.447,47.377L26.509,47.446L26.57,47.515L26.633,47.583L26.696,47.65L26.76,47.718L26.824,47.784L26.889,47.851L26.955,47.916L27.021,47.982L27.088,48.046L27.155,48.111L27.223,48.175L27.29,48.237L27.43,48.364L27.57,48.487L27.713,48.609L27.858,48.73L28.005,48.848L28.154,48.965L28.305,49.081L28.457,49.195L28.612,49.307L28.768,49.418L28.926,49.527L29.086,49.635L29.247,49.741L29.41,49.846L29.574,49.949L29.739,50.052L29.907,50.152L30.075,50.252L30.245,50.35L30.415,50.448L30.587,50.544L30.761,50.638L30.935,50.732L31.11,50.825L31.286,50.916L31.463,51.007L31.64,51.096L31.819,51.185L31.998,51.273L32.177,51.359L32.358,51.445L32.538,51.53L32.719,51.615L32.901,51.698L33.083,51.781L33.265,51.863L33.63,52.026L33.995,52.186L34.36,52.344L34.725,52.501L35.088,52.656L35.811,52.963L36.168,53.116L36.522,53.268L36.893,53.428L37.264,53.586L37.635,53.743L38.007,53.899L38.38,54.054L38.753,54.208L39.127,54.361L39.502,54.512L39.877,54.663L40.253,54.812L40.629,54.961L41.006,55.108L41.384,55.254L41.762,55.399L42.14,55.543L42.52,55.686L42.899,55.827L43.28,55.968L43.661,56.107L44.042,56.246L44.424,56.383L44.806,56.519L45.189,56.654L45.572,56.788L45.956,56.921L46.34,57.052L46.724,57.183L47.109,57.313L47.495,57.441L47.88,57.568L48.266,57.694L48.653,57.819L49.04,57.943L49.427,58.066L49.815,58.188L50.203,58.308L50.591,58.428L50.979,58.546L51.368,58.663L51.757,58.779L52.147,58.894L52.537,59.008L52.927,59.121L53.317,59.232L53.707,59.343L54.098,59.452L54.489,59.56L54.88,59.667L55.271,59.773L55.663,59.878L56.054,59.982L56.446,60.084L56.838,60.186L57.23,60.286L57.622,60.385L58.015,60.483L58.407,60.58L58.8,60.676L59.192,60.771L59.585,60.864L59.978,60.957L60.371,61.048L60.764,61.138L61.158,61.227L61.574,61.322L61.982,61.417L62.382,61.512L62.776,61.605L63.164,61.697L63.548,61.787L63.928,61.875L64.308,61.959L64.496,62L64.685,62.04L64.874,62.079L65.063,62.117L65.253,62.154L65.443,62.19L65.634,62.224L65.825,62.258L66.018,62.29L66.212,62.32L66.407,62.35L66.604,62.378L66.803,62.404L67.003,62.429L67.206,62.452L67.414,62.474L67.519,62.492L67.621,62.526L67.717,62.573L67.805,62.634L67.883,62.707L67.95,62.79L68.005,62.882L68.047,62.981L68.073,63.084L68.085,63.191L68.081,63.298L68.063,63.403L68.029,63.505L67.982,63.6L67.921,63.689L67.848,63.767L67.765,63.834L67.673,63.889L67.574,63.93L67.471,63.957L67.364,63.969L67.257,63.965L67.042,63.943L66.826,63.918L66.612,63.892L66.401,63.864L66.191,63.834L65.984,63.803L65.778,63.77L65.574,63.737L65.371,63.701L65.17,63.665L64.97,63.627L64.772,63.589L64.574,63.549L64.378,63.508L64.182,63.467L63.986,63.424L63.597,63.338L63.209,63.248L62.82,63.157L62.429,63.065L62.036,62.971L61.639,62.877L61.237,62.784L60.826,62.69L60.431,62.601L60.034,62.51L59.637,62.417L59.24,62.324L58.843,62.229L58.446,62.134L58.05,62.037L57.653,61.939L57.257,61.84L56.86,61.74L56.464,61.639L56.068,61.536L55.672,61.432L55.277,61.328L54.881,61.222L54.486,61.115L54.091,61.006L53.696,60.897L53.301,60.787L52.906,60.675L52.512,60.562L52.118,60.448L51.724,60.333L51.331,60.217L50.937,60.1L50.545,59.981L50.152,59.862L49.76,59.741L49.368,59.619L48.976,59.496L48.584,59.372L48.193,59.247L47.803,59.121L47.412,58.993L47.023,58.865L46.633,58.735L46.244,58.604L45.855,58.472L45.467,58.339L45.079,58.205L44.692,58.069L44.305,57.933L43.918,57.795L43.532,57.656L43.147,57.517L42.762,57.376L42.377,57.233L41.993,57.09L41.61,56.946L41.227,56.8L40.844,56.654L40.463,56.506L40.081,56.357L39.701,56.207L39.32,56.056L38.941,55.904L38.562,55.75L38.184,55.596L37.806,55.44L37.429,55.284L37.053,55.126L36.677,54.967L36.302,54.807L35.929,54.646L35.577,54.495L35.222,54.343L34.5,54.036L34.135,53.88L33.766,53.722L33.396,53.561L33.024,53.398L32.651,53.232L32.464,53.147L32.277,53.062L32.089,52.976L31.902,52.889L31.715,52.801L31.528,52.712L31.342,52.622L31.155,52.53L30.969,52.438L30.783,52.344L30.598,52.249L30.413,52.153L30.229,52.056L30.045,51.957L29.862,51.856L29.679,51.755L29.498,51.651L29.317,51.546L29.137,51.44L28.958,51.332L28.78,51.222L28.603,51.111L28.427,50.997L28.253,50.882L28.08,50.765L27.908,50.646L27.737,50.526L27.568,50.403L27.401,50.278L27.235,50.151L27.07,50.022L26.908,49.89L26.747,49.757L26.588,49.621L26.431,49.482L26.276,49.343L26.199,49.271L26.122,49.199L26.047,49.126L25.971,49.053L25.897,48.98L25.823,48.905L25.749,48.83L25.676,48.755L25.604,48.678L25.532,48.602L25.461,48.524L25.39,48.446L25.32,48.367L25.251,48.287L25.182,48.207L25.114,48.126L25.047,48.044L24.98,47.962L24.914,47.879L24.851,47.798L24.792,47.709L24.745,47.613L24.713,47.511L24.696,47.405L24.694,47.298L24.707,47.192L24.735,47.089L24.777,46.991L24.833,46.899L24.902,46.817L24.981,46.745L25.07,46.686L25.167,46.639L25.269,46.607L25.374,46.59L25.481,46.588L25.587,46.601Z" style="fill:rgb(33,33,33);"/>
    </g>
</svg>
