<?xml version="1.0" encoding="utf-8"?>
<!-- Svg Vector Icons : http://www.onlinewebfonts.com/icon -->
<!DOCTYPE svg PUBLIC "-//W3C//DTD SVG 1.1//EN" "http://www.w3.org/Graphics/SVG/1.1/DTD/svg11.dtd">
<svg version="1.1" xmlns="http://www.w3.org/2000/svg" xmlns:xlink="http://www.w3.org/1999/xlink" x="0px" y="0px" viewBox="0 0 1000 1000" enable-background="new 0 0 1000 1000" xml:space="preserve">
<metadata> Svg Vector Icons : http://www.onlinewebfonts.com/icon </metadata>
<g><path d="M129.2,744h350.5v60.9H129.2V744z"/><path d="M129.2,610.9h350.5v60.9H129.2V610.9z"/><path d="M133.6,195.1h231.1v205.7H133.6V195.1z"/><path d="M129.2,483.6h350.5v60.9H129.2V483.6L129.2,483.6z"/><path d="M460.4,339.9h187.9v58.4H460.4V339.9L460.4,339.9z"/><path d="M460.4,195.1h187.9v58.3H460.4V195.1L460.4,195.1z"/><path d="M730,782.8c-20.7,0-37.6,16.8-37.6,37.6c0,0.4,0,0.8,0,1.3l0,0v15.5c0,44.3-36.3,80.6-80.6,80.6H165.5c-44.3,0-80.6-36.3-80.6-80.6V163.1c0-44.3,36.3-80.6,80.6-80.6h446.4c44.3,0,80.6,36.3,80.6,80.6v227.7h0.1C693.7,410.5,710,426,730,426c20,0,36.2-15.6,37.4-35.1h0.1v-2.3l0,0l0,0V103.8c0-55.3-45.3-100.7-100.7-100.7H110.7C55.3,3.2,10,48.5,10,103.8v792.4c0,55.3,45.3,100.7,100.7,100.7h556.1c55.3,0,100.7-45.3,100.7-100.7v-74.7l0,0c0-0.4,0-0.8,0-1.3C767.4,799.5,750.6,782.8,730,782.8z"/><path d="M983.5,475.3L867.6,359.4c-4.2-4.2-9.9-6.5-15.8-6.5c-5.9,0-11.6,2.3-15.8,6.5l-303,303c-2.7,2.7-4.6,6-5.7,9.7l-45.2,159.6c-2.2,7.7-0.1,16,5.6,21.7c4.1,4.2,9.9,6.6,15.9,6.6c2,0,3.9-0.2,5.8-0.7l161.1-43.5c3.8-1.1,7.2-3.1,9.9-5.8l303.1-303c4.2-4.2,6.5-9.9,6.5-15.8C990,485.2,987.6,479.6,983.5,475.3z M546.4,795.3l22.5-79.4l57.7,57.7L546.4,795.3z M671.7,745L598,671.2l253.8-253.9l73.8,73.8L671.7,745z"/></g>
</svg>