<?xml version="1.0" standalone="no"?>
<!DOCTYPE svg PUBLIC "-//W3C//DTD SVG 20010904//EN"
 "http://www.w3.org/TR/2001/REC-SVG-20010904/DTD/svg10.dtd">
<svg version="1.0" xmlns="http://www.w3.org/2000/svg"
 width="205.000000pt" height="205.000000pt" viewBox="0 0 205.000000 205.000000"
 preserveAspectRatio="xMidYMid meet">
<metadata>
Created by potrace 1.11, written by Peter Selinger 2001-2013
</metadata>
<g transform="translate(0.000000,205.000000) scale(0.100000,-0.100000)"
fill="#000000" stroke="none">
<path d="M630 2032 c0 -8 7 -11 18 -8 9 3 23 2 31 -3 17 -11 53 -2 48 12 -2 6
-9 13 -17 15 -7 3 -10 0 -6 -7 4 -6 2 -11 -3 -11 -6 0 -11 4 -11 8 0 4 -13 8
-30 7 -18 0 -30 -5 -30 -13z"/>
<path d="M734 2041 c12 -18 -6 -39 -30 -36 -15 1 -23 -2 -21 -9 2 -6 14 -10
26 -9 11 2 21 -2 21 -7 0 -6 5 -10 11 -10 5 0 7 4 4 10 -3 5 -2 18 3 27 10 20
5 43 -9 43 -6 0 -8 -4 -5 -9z"/>
<path d="M763 2031 c-1 -9 -4 -28 -7 -43 -4 -27 3 -36 17 -21 4 3 3 11 -2 17
-6 7 -2 20 10 35 l20 24 20 -21 c19 -22 40 -29 38 -14 -4 26 1 34 16 22 10 -9
15 -9 15 -1 0 6 5 11 11 11 8 0 8 -4 -1 -14 -6 -8 -17 -13 -24 -10 -6 2 -12
-4 -13 -16 -2 -21 7 -20 40 8 9 8 20 12 24 9 3 -4 17 0 30 8 22 15 29 10 24
-17 -2 -14 19 -8 37 10 16 16 50 21 72 11 3 -1 19 -3 35 -4 17 -1 35 -3 40 -5
23 -6 46 1 43 13 -4 9 -58 12 -224 13 -193 1 -220 -1 -221 -15z m87 5 c0 -3
-4 -8 -10 -11 -5 -3 -10 -1 -10 4 0 6 5 11 10 11 6 0 10 -2 10 -4z m160 -6 c0
-5 -2 -10 -4 -10 -3 0 -8 5 -11 10 -3 6 -1 10 4 10 6 0 11 -4 11 -10z"/>
<path d="M1214 2041 c12 -18 -6 -39 -30 -36 -15 1 -23 -2 -21 -9 2 -6 14 -10
26 -9 11 2 21 -2 21 -7 0 -6 5 -10 11 -10 5 0 7 4 4 10 -3 5 -2 18 3 27 10 20
5 43 -9 43 -6 0 -8 -4 -5 -9z"/>
<path d="M1244 2029 c0 -23 14 -25 22 -4 4 8 10 12 15 9 5 -3 9 -1 9 4 0 5
-10 10 -23 10 -16 0 -23 -6 -23 -19z"/>
<path d="M1312 2032 c8 -9 14 -10 16 -3 2 6 8 11 13 11 5 0 3 -11 -6 -23 -14
-22 -14 -26 6 -51 12 -15 24 -25 27 -22 3 3 -3 15 -13 26 -18 20 -18 21 2 49
l21 28 -39 0 c-33 0 -37 -2 -27 -15z"/>
<path d="M1390 2040 c0 -5 14 -7 31 -5 30 4 30 4 9 -13 -23 -19 -37 -66 -17
-59 7 2 11 11 9 20 -1 8 2 18 8 22 6 3 7 0 4 -10 -4 -9 -3 -15 2 -14 27 5 36
-1 24 -15 -9 -12 -8 -15 9 -13 13 1 20 6 17 14 -7 18 5 16 19 -4 7 -9 21 -17
31 -18 11 -1 24 -3 29 -5 21 -5 45 0 45 11 0 6 -8 8 -19 4 -11 -3 -25 1 -34
10 -17 17 -31 20 -22 5 3 -5 2 -10 -4 -10 -18 0 -21 18 -4 24 9 4 24 0 33 -9
9 -9 25 -13 34 -9 24 9 20 26 -5 19 -15 -5 -19 -4 -15 4 5 7 -1 11 -14 11 -12
0 -18 5 -15 10 9 15 -4 12 -21 -4 -16 -16 -65 -17 -71 -1 -2 6 7 16 19 24 23
14 23 13 5 -6 -17 -20 -17 -20 8 -20 29 0 42 14 27 29 -12 12 -122 20 -122 8z
m120 -20 c0 -5 -2 -10 -4 -10 -3 0 -8 5 -11 10 -3 6 -1 10 4 10 6 0 11 -4 11
-10z"/>
<path d="M593 2023 c-10 -10 -24 -18 -30 -16 -6 2 -21 -6 -34 -19 -12 -13 -18
-16 -14 -8 6 9 -3 7 -25 -7 -19 -12 -37 -28 -39 -35 -3 -9 2 -8 15 3 10 8 29
14 42 13 12 0 22 1 22 5 0 3 7 15 16 26 13 17 16 18 24 5 13 -20 12 -30 -1
-30 -5 0 -7 5 -4 10 7 11 -8 14 -18 3 -9 -9 13 -34 24 -27 5 3 17 1 26 -5 11
-6 24 -6 35 0 10 5 18 6 18 1 0 -12 -49 -34 -61 -27 -5 4 -9 1 -9 -4 0 -6 9
-16 20 -23 11 -7 20 -17 20 -22 0 -4 -6 -3 -14 4 -12 9 -15 8 -13 -9 1 -12 5
-21 10 -21 4 0 5 -5 2 -11 -10 -16 -18 -3 -20 31 -1 20 -10 37 -25 47 -22 16
-23 16 -17 -1 4 -10 7 -20 7 -22 0 -3 4 -3 9 0 4 3 7 -5 7 -17 -1 -12 2 -27 6
-34 6 -7 4 -14 -3 -19 -7 -4 -9 -3 -5 4 10 17 -26 32 -47 20 -14 -7 -23 -5
-38 8 -10 9 -20 15 -22 13 -19 -32 -25 -48 -20 -53 9 -8 23 -8 22 2 -4 25 2
34 15 23 18 -15 56 -22 56 -10 0 5 4 9 10 9 5 0 7 -6 4 -14 -6 -15 -51 -19
-60 -5 -3 5 -10 9 -15 9 -6 0 -8 -4 -5 -8 3 -5 -4 -16 -15 -25 -25 -22 -24
-32 2 -34 17 -2 18 1 9 13 -13 15 -12 16 32 18 22 2 25 -1 15 -12 -7 -9 -13
-10 -15 -3 -2 6 -8 11 -14 11 -6 0 -8 -6 -5 -14 3 -8 -1 -20 -9 -26 -8 -7 -14
-8 -14 -3 0 5 -10 9 -22 10 -23 2 -23 2 2 -19 14 -12 18 -19 10 -16 -8 2 -24
-4 -34 -14 -11 -10 -26 -16 -33 -14 -17 7 -17 -6 0 -23 10 -11 9 -12 -2 -6
-11 6 -13 4 -8 -8 3 -9 3 -18 -1 -21 -4 -3 -8 11 -9 31 0 19 -7 39 -14 44 -19
12 -2 11 20 -1 13 -6 24 -4 40 6 20 15 21 17 7 33 -26 29 -158 19 -141 -10 4
-5 11 -9 16 -9 6 0 7 5 4 10 -3 6 -2 10 3 10 6 0 9 -11 8 -24 0 -13 -6 -22
-11 -19 -6 2 -11 -6 -12 -18 -2 -17 1 -18 13 -9 10 9 14 9 14 1 0 -6 -5 -11
-11 -11 -8 0 -7 -5 1 -15 7 -9 10 -18 6 -22 -3 -3 -6 -1 -6 5 0 7 -4 12 -9 12
-6 0 -9 -9 -8 -20 1 -11 6 -19 12 -16 19 7 11 -45 -9 -56 -15 -8 -16 -12 -5
-20 11 -7 10 -8 -5 -6 -24 4 -47 -29 -27 -41 7 -5 9 -11 4 -14 -6 -4 -16 6
-22 20 -10 22 -14 24 -22 12 -12 -20 -11 -29 3 -27 8 2 12 -5 10 -17 -2 -11
-4 -25 -4 -32 -1 -7 -5 -10 -10 -7 -4 3 -8 1 -8 -5 0 -5 6 -11 13 -14 6 -2 -8
-4 -32 -3 -25 0 -46 -4 -48 -10 -2 -7 9 -10 32 -8 19 1 37 -1 40 -5 2 -4 -14
-9 -35 -10 -67 -3 -80 -5 -80 -13 0 -4 5 -8 11 -8 6 0 8 -8 4 -19 -3 -10 1
-23 9 -31 13 -10 15 -7 11 19 -2 18 0 29 6 26 5 -4 9 -1 9 4 0 6 5 11 11 11 6
0 4 -9 -5 -22 -11 -16 -12 -26 -5 -40 8 -15 6 -24 -7 -39 -9 -10 -15 -22 -12
-25 3 -3 15 7 27 22 11 15 21 22 21 16 0 -6 -10 -21 -22 -33 -19 -18 -19 -21
-5 -16 11 4 16 3 12 -4 -4 -6 -13 -8 -21 -5 -7 3 -16 0 -20 -5 -3 -6 -15 -9
-25 -6 -11 3 -19 1 -19 -3 0 -16 20 -21 41 -10 16 9 24 9 33 0 8 -8 7 -10 -4
-5 -11 4 -16 -1 -17 -16 -2 -18 0 -19 15 -7 15 11 15 11 5 -2 -10 -14 -13 -21
-13 -35 0 -3 -14 2 -30 10 -18 9 -30 22 -28 32 2 9 -2 18 -9 20 -7 2 -10 -3
-8 -14 2 -10 4 -21 4 -26 1 -10 63 -47 71 -42 4 2 7 -2 7 -10 0 -10 -5 -11
-17 -5 -10 5 -21 6 -25 2 -5 -4 -5 -1 -1 6 4 6 2 12 -4 12 -6 0 -10 -8 -8 -17
2 -10 11 -17 20 -15 9 1 19 -2 23 -8 4 -6 -1 -7 -12 -3 -16 6 -16 5 -4 -10 13
-17 6 -23 -21 -18 -12 2 -10 -17 2 -24 6 -3 10 -11 10 -16 0 -6 -7 -3 -16 6
-17 16 -12 51 6 40 14 -9 13 8 -2 23 -17 17 -23 15 -26 -8 -4 -44 -6 -49 -15
-43 -6 4 -8 0 -4 -10 4 -11 2 -14 -8 -11 -12 5 -12 9 0 28 13 19 13 25 -1 44
-10 15 -11 22 -3 22 8 0 8 4 -1 15 -12 15 -4 20 23 16 9 -1 9 11 -2 28 -7 11
-11 10 -19 -5 -9 -16 -10 -15 -9 8 2 18 6 24 17 20 11 -4 10 1 -4 16 -13 15
-15 22 -6 22 10 0 10 3 0 15 -12 15 -3 21 24 16 5 -1 6 5 3 14 -4 8 -2 15 4
15 6 0 9 -8 7 -17 -2 -10 -9 -17 -15 -16 -6 1 -10 -9 -10 -22 0 -14 3 -22 8
-19 16 9 39 61 31 69 -4 5 -1 5 7 0 9 -5 12 -3 9 5 -6 20 -48 19 -62 -1 -11
-17 -13 -16 -13 11 0 17 4 30 9 30 5 0 7 -4 4 -9 -3 -5 5 -8 19 -8 29 0 24 12
-14 31 l-28 15 1 -265 c1 -145 4 -264 8 -264 5 0 7 3 7 8 -5 27 2 32 24 17 13
-8 27 -12 30 -8 12 12 7 21 -10 19 -11 0 -17 5 -15 13 2 8 -3 11 -11 8 -9 -3
-13 5 -12 34 1 21 -3 39 -7 39 -4 0 1 9 12 20 11 11 20 25 20 30 0 6 5 10 11
10 6 0 4 -9 -5 -22 -11 -16 -12 -26 -5 -40 6 -11 8 -22 5 -26 -3 -3 -6 0 -6 6
0 7 -4 12 -9 12 -6 0 -9 -9 -8 -20 1 -11 6 -19 13 -16 7 3 10 -5 8 -20 -1 -16
2 -24 9 -21 7 2 11 12 9 22 -3 16 -2 16 11 3 9 -8 15 -23 14 -33 -1 -10 3 -20
9 -22 7 -2 10 6 9 22 -2 16 1 23 8 18 7 -4 8 0 3 13 -5 14 -4 16 4 8 8 -8 9
-18 2 -30 -10 -20 -5 -47 7 -40 4 3 8 -1 8 -9 0 -8 -4 -15 -9 -15 -4 0 -7 -3
-7 -7 4 -27 -1 -35 -15 -23 -12 9 -15 8 -13 -9 2 -26 11 -26 36 0 14 15 21 17
26 8 5 -8 4 -10 -3 -5 -7 4 -12 3 -12 -3 0 -5 3 -11 8 -14 4 -2 2 -3 -4 -1
-17 4 -55 -26 -49 -37 4 -5 2 -9 -4 -9 -5 0 -11 6 -14 13 -3 9 -9 9 -23 1 -20
-12 -20 -43 -1 -57 8 -6 6 -7 -5 -3 -19 6 -27 -3 -33 -34 -2 -11 1 -20 7 -20
5 0 7 -7 4 -16 -3 -8 -2 -13 3 -9 5 3 16 -1 24 -9 8 -8 18 -12 23 -8 5 4 2 -1
-5 -10 -11 -15 -11 -23 3 -50 27 -57 53 -91 61 -79 3 6 11 9 16 6 5 -4 9 -2 9
3 0 16 -13 22 -26 11 -8 -7 -14 -6 -20 2 -5 8 -3 9 6 4 8 -5 11 -3 8 6 -3 8
-12 13 -19 11 -8 -2 -11 -1 -7 3 4 4 -2 16 -12 28 -11 11 -18 23 -15 25 2 3
13 -6 23 -19 l20 -23 -1 27 c0 14 -2 26 -6 25 -21 -2 -30 4 -25 17 4 8 10 15
15 15 4 0 6 -6 3 -13 -3 -8 4 -13 17 -14 19 -2 20 0 7 19 -8 12 -24 22 -36 23
-23 2 -44 15 -24 15 7 0 12 5 12 11 0 5 -4 8 -9 5 -5 -3 -12 1 -15 10 -8 21
-8 24 5 24 5 0 8 -4 5 -9 -3 -5 1 -12 10 -15 24 -9 28 -7 14 9 -9 10 -9 15 -1
15 6 0 11 -4 11 -10 0 -5 5 -10 11 -10 5 0 7 5 4 10 -4 7 3 9 20 6 22 -4 26
-2 20 12 -5 13 -3 14 5 6 9 -9 9 -17 1 -32 -10 -19 -6 -32 10 -32 5 0 6 6 3
14 -3 8 -1 17 5 21 8 4 8 12 1 26 -6 11 -8 24 -5 29 3 6 1 10 -4 10 -6 0 -16
-9 -23 -20 -7 -11 -17 -20 -22 -20 -4 0 -3 6 4 14 9 12 8 15 -9 13 -12 -1 -20
-6 -17 -12 2 -6 -4 -11 -14 -11 -11 0 -16 5 -12 15 3 9 1 12 -6 7 -15 -9 -26
14 -13 27 9 9 11 8 6 -4 -5 -13 2 -16 41 -14 30 1 49 6 52 15 3 7 0 10 -7 6
-6 -4 -11 -2 -11 3 0 6 -5 11 -11 11 -5 0 -7 -4 -4 -10 3 -5 1 -10 -5 -10 -24
0 -2 25 23 25 14 1 24 -2 21 -6 -2 -4 3 -12 11 -19 8 -7 12 -16 9 -22 -3 -5 0
-15 6 -23 10 -12 10 -18 0 -30 -7 -9 -9 -19 -5 -23 4 -4 10 -1 12 6 3 6 10 12
16 12 7 -1 2 -9 -10 -19 -12 -10 -19 -22 -15 -26 4 -5 1 -5 -6 -1 -7 4 -19 2
-27 -4 -19 -15 -20 -37 -2 -23 19 15 55 13 61 -3 3 -8 11 -14 17 -14 8 0 8 4
-1 15 -18 21 -3 19 21 -4 15 -14 17 -21 8 -26 -8 -5 -10 -4 -5 3 10 17 -10 15
-28 -3 -20 -20 -32 -19 -15 2 12 15 12 16 -3 10 -12 -4 -15 -2 -12 8 8 21 -35
10 -61 -15 l-20 -21 25 3 c19 2 25 -2 25 -16 0 -11 5 -21 12 -23 15 -5 9 33
-8 53 -6 8 -7 14 -2 14 5 0 15 -11 21 -25 14 -29 27 -32 41 -7 6 9 11 12 11 7
0 -6 -5 -16 -12 -23 -9 -9 -9 -12 0 -12 6 0 16 8 21 18 6 9 11 13 11 7 0 -5 5
-3 10 5 8 11 9 8 6 -13 -4 -22 -2 -27 9 -23 9 3 12 0 9 -9 -4 -9 1 -13 13 -11
10 2 12 1 6 -1 -7 -3 -13 -9 -13 -14 0 -6 4 -8 9 -5 5 3 14 -1 21 -9 7 -8 17
-12 24 -8 6 3 6 0 -1 -8 -14 -14 -17 -30 -5 -28 27 5 32 -2 17 -25 -15 -23
-15 -25 15 -46 16 -12 30 -17 30 -12 0 5 -10 16 -23 25 -16 11 -19 18 -11 26
15 16 48 3 34 -14 -5 -6 -7 -15 -3 -18 9 -10 23 -8 21 2 -3 8 2 11 18 11 4 0
1 -6 -5 -14 -9 -10 -7 -19 8 -37 l19 -24 23 20 c12 11 19 15 16 9 -8 -13 18
-38 30 -31 5 3 17 -1 28 -9 10 -8 14 -14 9 -14 -6 0 -15 5 -22 12 -8 8 -12 8
-12 1 0 -6 7 -16 15 -23 12 -10 18 -10 32 1 11 10 14 10 9 2 -4 -8 -2 -13 6
-14 7 -1 20 -2 28 -3 8 0 14 -7 12 -15 -3 -16 16 -41 31 -41 7 0 7 4 -1 12 -7
7 -12 15 -12 19 0 9 27 5 37 -6 4 -4 3 -5 -4 -1 -8 4 -11 -1 -10 -14 2 -23 15
-26 23 -5 4 8 10 15 16 15 5 0 7 -4 4 -9 -4 -5 0 -12 6 -15 7 -3 4 -4 -6 -3
-10 1 -21 -3 -23 -10 -2 -7 3 -10 14 -8 10 2 24 4 32 4 8 1 11 7 6 18 -5 14
-3 15 5 6 8 -7 9 -17 2 -28 -17 -32 5 -73 24 -44 4 8 10 6 17 -6 7 -14 6 -21
-8 -31 -15 -11 -13 -13 19 -11 35 2 45 10 27 21 -5 4 -11 0 -14 -6 -3 -7 -5
-4 -6 7 0 11 -2 33 -3 49 -3 24 1 30 22 33 l25 4 -22 -16 c-13 -9 -23 -21 -23
-27 0 -7 6 -6 15 2 9 8 15 8 15 2 0 -6 -6 -12 -12 -15 -7 -2 -10 -7 -6 -11 7
-8 48 15 48 27 0 4 -4 5 -10 2 -5 -3 -10 -2 -10 3 0 6 6 12 14 15 21 8 14 -30
-9 -47 -11 -8 -17 -17 -13 -21 9 -9 61 42 54 53 -3 5 1 9 9 9 8 0 12 -4 9 -9
-7 -11 3 -10 28 3 14 8 18 8 14 0 -4 -6 -2 -20 4 -31 6 -11 7 -20 2 -20 -6 0
-12 10 -16 23 -6 22 -6 22 -24 -5 -14 -22 -21 -25 -30 -16 -13 13 -16 -1 -4
-17 9 -13 72 -17 72 -4 0 5 7 9 15 9 18 0 18 5 4 32 -7 12 -7 24 -2 29 10 10
11 4 15 -49 1 -22 6 -28 25 -28 25 0 31 14 9 22 -8 3 -17 12 -20 20 -3 8 -2
12 3 9 6 -3 14 3 20 12 6 10 11 13 11 7 0 -5 -5 -15 -12 -22 -16 -16 3 -15 25
2 19 15 24 31 5 20 -7 -4 -8 -3 -4 5 10 16 29 2 22 -16 -4 -9 -1 -13 6 -10 7
2 12 11 10 21 -2 9 1 16 5 16 5 0 9 -9 10 -20 1 -11 -3 -20 -8 -20 -6 0 -3 -7
5 -16 9 -8 16 -20 16 -25 0 -6 5 -7 10 -4 7 4 8 11 2 18 -16 20 -9 60 11 63 9
1 15 -1 12 -5 -2 -4 9 -8 24 -8 16 0 28 5 27 11 -2 6 -1 7 2 3 2 -4 10 -3 17
3 22 18 55 21 48 4 -3 -8 -13 -12 -23 -9 -12 4 -16 0 -15 -13 1 -25 15 -43 26
-37 5 4 9 1 9 -4 0 -6 -4 -11 -10 -11 -5 0 -10 -4 -10 -8 0 -5 16 -9 35 -9 19
0 35 4 35 9 0 4 9 8 20 8 11 0 20 -4 20 -9 0 -15 39 -8 45 7 3 10 0 12 -10 8
-18 -6 -47 3 -40 13 9 16 -25 49 -45 44 -23 -6 -25 -14 -8 -31 17 -17 33 -15
18 3 -7 9 -8 15 -2 15 14 0 23 -28 12 -35 -6 -4 -15 -3 -22 1 -7 5 -9 2 -6 -8
4 -8 1 -15 -6 -15 -8 0 -11 14 -9 41 4 61 5 66 16 66 5 0 6 -7 3 -16 -4 -10
-1 -14 6 -11 7 2 13 11 13 20 0 8 4 19 9 24 5 4 6 3 2 -4 -3 -6 -2 -14 4 -18
5 -3 10 -1 10 6 0 8 5 7 16 -2 15 -12 16 -11 9 11 -4 14 -4 22 0 18 14 -14 14
-66 0 -78 -15 -12 -10 -40 7 -40 6 0 8 6 5 14 -3 8 0 20 8 26 14 11 15 46 2
67 -7 12 20 28 42 24 7 -1 10 2 7 8 -4 6 3 8 19 5 16 -3 23 0 21 8 -1 7 -1 10
1 6 9 -15 25 -8 19 8 -3 8 -2 12 4 9 27 -17 -13 -47 -64 -50 -17 -1 -32 -7
-34 -15 -3 -9 0 -10 9 -4 12 6 12 5 0 -9 -8 -10 -11 -20 -8 -23 3 -3 12 3 19
15 15 24 30 28 21 6 -3 -9 -2 -15 3 -14 29 5 34 -2 19 -24 -8 -13 -12 -27 -8
-30 12 -12 21 -7 19 11 0 10 5 16 13 14 8 -2 11 3 8 11 -3 9 5 13 34 12 24 -1
38 3 36 9 -2 6 7 24 19 39 25 30 22 49 -10 77 -21 17 -20 1 0 -22 16 -16 15
-20 -7 -53 -24 -34 -43 -47 -33 -22 3 8 -4 13 -17 14 -17 2 -18 -1 -9 -13 9
-10 9 -14 1 -14 -6 0 -11 5 -11 10 0 6 -5 10 -11 10 -5 0 -7 -5 -4 -10 3 -6 2
-10 -4 -10 -5 0 -13 5 -16 10 -3 6 -1 10 5 10 6 0 22 11 36 25 19 19 23 29 15
39 -8 9 -7 13 4 13 8 0 11 -5 8 -10 -3 -5 0 -8 8 -5 8 3 14 13 14 24 0 10 6
18 13 16 6 -1 12 2 12 8 0 5 5 10 11 10 8 0 8 -5 -1 -15 -9 -11 -9 -15 -1 -15
17 0 26 31 12 40 -10 5 -9 8 1 13 9 3 14 -3 15 -16 1 -11 8 -24 15 -29 9 -6 8
-8 -6 -6 -10 2 -21 -3 -24 -11 -2 -8 0 -11 5 -8 9 6 11 0 15 -43 2 -22 7 -24
26 -11 10 6 10 10 -3 21 -19 16 -19 27 1 47 14 15 15 14 12 -2 -2 -10 2 -20 9
-22 7 -3 10 5 9 21 -2 15 1 23 8 20 7 -3 12 5 13 16 2 19 -11 28 -20 13 -2 -5
-2 -2 0 6 2 9 -2 11 -13 7 -8 -3 -18 -6 -20 -6 -2 0 -4 -5 -4 -11 0 -5 5 -7
10 -4 6 3 10 1 10 -5 0 -7 -6 -10 -12 -7 -24 7 -13 54 17 79 37 31 61 27 40
-6 -8 -12 -12 -26 -8 -30 4 -3 7 -24 8 -45 1 -30 -2 -38 -14 -33 -9 3 -12 1
-7 -6 10 -16 -13 -25 -29 -12 -9 7 -15 8 -15 2 0 -23 26 -32 48 -16 21 15 28
10 23 -18 0 -5 5 -8 13 -8 23 0 46 11 46 22 0 7 -5 6 -13 -1 -14 -11 -37 3
-37 23 0 5 7 1 15 -10 8 -10 15 -14 15 -7 0 6 -7 18 -15 27 -20 20 -19 32 1
15 14 -11 18 -10 30 6 13 17 12 20 -6 30 -16 8 -18 13 -8 23 9 9 9 12 1 12 -7
0 -15 -5 -19 -11 -6 -11 -23 6 -24 23 0 12 60 39 70 33 14 -9 12 9 -2 23 -14
14 -32 16 -24 3 7 -11 -14 -20 -31 -14 -7 3 -13 9 -13 15 0 7 5 6 14 -1 11 -9
15 -8 20 5 9 23 8 24 -11 17 -15 -6 -16 -5 -3 9 13 13 16 13 31 -6 16 -20 17
-20 17 7 0 15 -4 24 -9 22 -4 -3 -10 -1 -13 4 -4 5 2 8 11 7 13 -2 18 -12 18
-36 0 -19 6 -35 14 -38 10 -3 11 0 5 9 -6 12 -5 12 9 0 10 -8 20 -11 23 -8 3
3 -3 12 -15 19 -24 15 -28 30 -7 22 11 -4 14 2 11 25 -2 17 1 31 6 31 6 0 8
-4 5 -9 -3 -5 2 -15 11 -22 14 -12 15 -11 9 9 -5 14 -3 22 4 22 6 0 8 -4 5
-10 -3 -5 -1 -10 4 -10 6 0 11 5 11 11 0 5 5 7 11 3 7 -4 10 -1 7 6 -3 9 -22
14 -51 15 -26 1 -51 6 -55 10 -4 5 1 5 11 2 9 -4 17 -2 17 2 0 5 -6 11 -12 14
-7 2 -1 4 13 3 15 0 25 -6 22 -11 -2 -6 6 -11 18 -12 17 -2 18 1 9 13 -7 8 -8
14 -4 14 5 0 15 -9 22 -20 22 -36 30 -25 33 47 2 32 19 17 19 -15 -1 -38 4
-65 15 -82 7 -12 6 -13 -6 -4 -19 14 -56 10 -77 -8 -9 -9 -22 -14 -27 -12 -6
3 -11 -5 -12 -16 -2 -25 -4 -25 37 5 19 14 39 25 44 25 6 0 4 -4 -4 -10 -8 -5
-12 -12 -9 -15 9 -9 40 6 33 16 -3 5 3 6 12 2 14 -5 12 -8 -10 -20 -21 -11
-31 -12 -42 -2 -17 14 -19 -2 -1 -21 10 -12 9 -12 -6 -1 -23 18 -29 11 -11
-13 8 -11 14 -16 14 -11 0 4 10 0 22 -11 12 -10 18 -13 14 -6 -5 8 3 26 18 46
14 19 22 36 19 40 -4 3 -1 6 7 6 10 0 10 3 0 15 -7 9 -10 18 -7 22 4 3 2 14
-4 25 -15 28 6 52 31 36 10 -7 16 -16 13 -21 -3 -5 -10 -2 -15 7 -9 17 -28 13
-28 -5 0 -6 5 -7 12 -3 8 5 9 2 5 -9 -7 -18 10 -34 23 -21 5 5 12 21 15 36 6
22 4 28 -9 28 -9 0 -16 4 -16 10 0 5 6 7 13 4 8 -3 14 2 14 11 0 9 -6 14 -13
11 -8 -3 -11 0 -8 8 3 7 -5 24 -16 37 -19 20 -21 21 -15 4 20 -57 6 -104 -20
-68 -16 21 -48 9 -41 -14 3 -10 2 -24 -3 -32 -7 -11 -10 -9 -16 8 -3 11 -11
21 -16 21 -6 0 -7 -4 -4 -10 3 -5 1 -10 -5 -10 -7 0 -10 6 -7 13 2 6 12 11 21
11 16 -2 21 8 9 19 -3 4 -18 0 -32 -9 l-26 -15 24 20 c13 12 19 21 15 21 -5 0
-1 5 9 11 15 9 16 13 5 27 -12 16 -11 16 6 2 18 -14 19 -13 13 3 -4 11 -3 16
4 12 6 -4 8 -14 5 -22 -4 -9 -1 -13 6 -10 7 2 11 11 9 18 -2 8 -4 24 -4 37 1
20 -1 21 -16 10 -14 -12 -15 -11 -2 5 7 9 10 17 6 17 -5 0 -1 8 8 18 10 10 14
22 10 25 -3 4 -1 7 5 7 7 0 10 14 8 35 -2 19 0 33 4 30 14 -9 21 27 8 44 -12
14 -11 15 6 1 18 -14 18 -13 11 9 -6 21 -5 22 8 10 8 -8 13 -17 11 -21 -2 -3
-1 -8 3 -11 5 -2 2 -2 -5 0 -8 1 -12 -3 -9 -9 2 -7 13 -12 23 -10 18 3 18 3
-1 -12 -20 -15 -20 -15 0 -35 l20 -21 0 76 c0 63 -2 72 -12 58 -7 -10 -15 -15
-18 -13 -3 3 4 15 15 27 25 26 26 45 3 40 -10 -2 -18 -12 -18 -22 0 -11 -6
-21 -12 -23 -7 -3 -13 0 -13 7 0 6 5 8 10 5 5 -3 10 -1 10 4 0 6 -4 11 -10 11
-5 0 -10 5 -10 10 0 6 5 9 11 8 6 -2 14 3 16 10 3 6 -1 10 -9 9 -7 -2 -10 -2
-5 0 4 3 7 9 7 14 0 6 -6 7 -12 3 -7 -4 -6 1 3 12 29 34 34 48 16 41 -9 -3
-19 -1 -23 5 -4 7 -3 8 4 4 13 -8 16 6 5 18 -5 4 -8 31 -9 59 0 29 -5 51 -11
50 -5 -1 -10 5 -10 13 0 11 4 11 19 -3 10 -9 18 -11 18 -6 0 6 -7 16 -15 23
-19 16 -19 22 1 46 12 14 14 15 11 3 -6 -18 10 -39 28 -39 7 0 11 26 11 74 0
41 -4 72 -8 70 -5 -3 -6 -10 -3 -15 4 -5 2 -9 -3 -9 -5 0 -8 20 -7 45 1 36 -1
45 -13 40 -7 -3 -16 -5 -18 -5 -2 0 -4 -5 -4 -11 0 -5 5 -7 10 -4 6 3 10 1 10
-5 0 -7 -6 -10 -12 -7 -7 2 -12 12 -12 21 2 16 -8 21 -19 9 -4 -3 0 -17 8 -30
15 -22 10 -29 -17 -24 -12 2 -9 -17 3 -24 6 -4 8 -14 5 -22 -4 -9 -1 -13 6
-10 7 2 12 12 11 22 -1 10 5 25 13 33 13 12 14 10 9 -17 -4 -23 -2 -29 9 -25
8 3 17 1 21 -5 4 -7 -1 -8 -12 -4 -16 6 -16 5 -4 -10 12 -16 9 -19 -15 -16 -4
0 -15 -12 -25 -28 -10 -15 -19 -23 -19 -16 0 6 5 15 10 18 6 4 8 11 5 16 -6 8
8 13 28 10 10 -2 9 17 -2 24 -5 3 -12 1 -16 -5 -10 -16 -38 -12 -32 4 3 8 -3
26 -13 39 -11 13 -17 27 -13 30 3 4 0 14 -8 23 -13 16 -12 16 8 4 16 -10 19
-18 12 -27 -8 -9 -5 -11 10 -10 26 2 26 12 2 36 -11 11 -16 23 -13 27 4 4 -3
4 -16 1 -12 -3 -20 -1 -17 4 8 13 -14 51 -26 44 -5 -4 -8 -3 -7 2 4 16 -14 53
-23 48 -5 -3 -6 2 -2 11 4 10 2 15 -3 11 -6 -3 -11 4 -11 16 -2 15 0 18 6 8 5
-7 11 -9 14 -4 3 5 2 15 -4 23 -5 8 -9 12 -9 8 0 -5 -9 1 -21 13 -12 12 -27
18 -37 14 -9 -3 -13 -3 -9 1 4 4 1 14 -6 23 -7 9 1 7 24 -7 33 -20 49 -20 49
-1 0 5 -6 6 -14 3 -8 -3 -17 -1 -21 5 -3 6 0 9 8 5 8 -3 14 1 14 10 0 8 -9 14
-19 13 -10 -1 -18 -5 -18 -10 0 -5 -6 -4 -14 2 -11 9 -16 9 -23 -2 -6 -11 -11
-10 -25 5 -10 10 -14 18 -9 18 6 0 13 -5 16 -10 4 -6 11 -8 16 -4 6 3 3 12 -8
20 -10 7 -13 14 -8 14 6 0 16 -5 23 -12 8 -8 12 -8 12 -1 0 6 -7 17 -16 24
-14 11 -18 10 -30 -6 -13 -17 -14 -16 -10 13 2 17 -3 41 -11 52 -14 20 -8 26
21 21 5 -1 6 5 2 14 -3 9 -6 20 -6 23 0 4 -11 -6 -24 -21 -22 -25 -25 -26 -23
-9 0 12 5 18 10 15 5 -3 8 0 5 7 -2 7 -21 14 -42 16 -29 2 -44 -4 -62 -21 -18
-18 -24 -20 -28 -8 -4 9 -2 11 6 7 7 -5 9 -2 5 9 -4 12 -2 14 11 10 15 -6 15
-5 3 10 -7 10 -9 17 -3 17 6 0 12 -6 15 -12 2 -7 8 -10 12 -6 9 8 -12 38 -26
38 -5 0 -15 -11 -21 -25 -6 -14 -15 -25 -20 -25 -5 0 -1 11 7 24 15 23 15 25
-15 46 -16 12 -30 17 -30 11 0 -6 9 -15 21 -21 22 -12 21 -35 -2 -35 -8 0 -14
9 -14 19 0 11 -5 21 -12 23 -8 3 -10 -7 -7 -29 3 -28 2 -29 -6 -11 -5 12 -18
22 -29 22 -55 2 -65 3 -53 8 19 7 14 19 -8 20 -13 1 -18 -2 -13 -10 4 -7 0 -6
-10 2 -9 7 -17 10 -17 5 0 -5 -5 -2 -10 6 -5 8 -7 22 -5 31 3 9 -2 22 -10 29
-9 7 -13 21 -10 31 9 27 -10 31 -48 12 -22 -11 -35 -25 -34 -36 1 -18 19 -20
18 -2 0 14 27 27 40 19 6 -3 8 -17 5 -30 -4 -16 -1 -26 11 -33 15 -8 14 -10
-7 -7 -14 1 -43 13 -65 26 -22 14 -46 25 -55 25 -8 0 -19 10 -25 22 -10 23
-41 27 -49 6 -5 -12 -60 -12 -73 0 -3 4 11 4 32 2 33 -5 36 -3 25 10 -10 12
-16 13 -26 4 -11 -9 -14 -9 -14 0 0 7 -16 0 -35 -15 -33 -25 -42 -22 -36 10 1
5 -6 5 -16 1 -10 -4 -27 -8 -38 -9 -15 -1 -20 -9 -21 -34 -1 -26 1 -30 12 -21
7 6 16 19 19 29 6 18 35 18 35 -1 0 -4 -7 -5 -17 -2 -10 4 -14 2 -10 -4 4 -6
0 -14 -9 -17 -8 -3 -13 -10 -10 -15 7 -10 -20 -9 -30 2 -4 4 -13 2 -20 -3 -16
-14 -56 -22 -49 -9 4 5 2 9 -4 9 -5 0 -11 -5 -13 -12 -2 -6 -15 -12 -29 -13
-15 -2 -23 -8 -21 -16 3 -11 1 -12 -10 -1 -11 11 -10 14 1 21 8 5 21 7 30 4
12 -5 13 -3 5 6 -9 10 -6 19 12 38 12 14 28 22 33 18 14 -8 14 -25 0 -25 -5 0
-7 5 -4 10 11 17 -7 11 -21 -7 -17 -23 -18 -39 -1 -24 8 6 24 9 36 6 23 -4 61
13 61 27 0 5 -7 8 -15 8 -8 0 -15 -4 -15 -10 0 -5 -4 -10 -10 -10 -5 0 -9 4
-7 9 1 5 -10 20 -25 34 -26 24 -27 24 -43 7 -13 -14 -13 -19 -3 -23 10 -4 9
-8 -3 -22 -14 -15 -20 -15 -40 -4 -13 7 -31 13 -39 14 -8 0 -19 10 -25 22 -6
15 -15 21 -27 17 -9 -3 -20 2 -26 12 -9 15 -11 15 -29 -3z m30 -17 c10 -8 15
-16 10 -18 -4 -3 -16 3 -25 14 -21 21 -11 24 15 4z m-13 -32 c0 -21 17 -17 34
8 9 12 16 17 16 11 0 -13 -27 -43 -38 -43 -14 0 -27 15 -30 34 -2 11 1 15 7
11 6 -3 11 -13 11 -21z m530 16 c0 -5 -7 -10 -15 -10 -8 0 -15 -4 -15 -10 0
-5 5 -9 11 -7 6 1 14 -5 16 -13 4 -13 3 -13 -6 0 -6 8 -11 11 -11 6 0 -5 -7
-3 -16 5 -14 11 -13 14 8 25 28 16 28 16 28 4z m-76 -12 c17 1 17 0 -3 -14
-22 -16 -46 -10 -35 8 5 8 1 9 -10 5 -11 -4 -15 -3 -11 4 4 6 14 7 24 3 9 -4
25 -6 35 -6z m-365 -32 c0 -7 -2 -6 -6 2 -8 19 -22 14 -20 -8 1 -13 6 -19 15
-15 7 3 10 0 7 -6 -4 -5 -2 -16 5 -24 8 -9 8 -15 0 -20 -6 -4 -9 -1 -8 6 2 6
-3 14 -10 16 -7 3 -10 -1 -6 -10 3 -8 2 -17 -3 -20 -4 -3 -7 16 -7 41 2 76 2
76 19 62 8 -7 15 -18 14 -24z m466 24 c3 -5 1 -10 -4 -10 -6 0 -11 5 -11 10 0
6 2 10 4 10 3 0 8 -4 11 -10z m-145 -24 c0 -10 -30 0 -34 11 -4 11 -1 11 14 3
11 -6 20 -12 20 -14z m74 6 c2 -4 -4 -8 -14 -8 -10 0 -16 4 -14 8 3 4 9 8 14
8 5 0 11 -4 14 -8z m120 -7 c11 -8 15 -15 9 -15 -7 0 -15 5 -18 10 -4 6 -11 8
-16 5 -5 -4 -9 -1 -9 4 0 15 11 13 34 -4z m116 11 c0 -3 -4 -8 -10 -11 -5 -3
-10 -1 -10 4 0 6 5 11 10 11 6 0 10 -2 10 -4z m-585 -16 c3 -5 0 -7 -9 -4 -12
4 -14 0 -10 -21 3 -15 1 -24 -4 -21 -15 9 -11 56 4 56 7 0 16 -4 19 -10z
m-105 -40 c-9 -6 -10 -10 -3 -10 16 0 12 -38 -4 -45 -11 -3 -11 0 -3 15 9 16
7 22 -5 26 -14 6 -13 8 2 19 10 8 20 11 23 9 2 -3 -2 -9 -10 -14z m986 -89
c-3 -5 -16 -11 -28 -14 -22 -6 -22 -5 -4 8 22 17 40 20 32 6z m30 -15 c-1 -19
-4 -22 -14 -13 -11 8 -13 7 -10 -4 1 -7 -2 -14 -7 -14 -18 0 -13 24 6 30 11 4
17 11 14 16 -4 5 -2 9 3 9 6 0 9 -11 8 -24z m40 -66 c1 -26 0 -30 -8 -17 -5
10 -15 15 -21 11 -7 -3 -4 1 6 9 18 15 24 32 7 22 -5 -3 -10 -1 -10 5 0 28 25
0 26 -30z m-36 20 c0 -5 -5 -10 -11 -10 -5 0 -7 5 -4 10 3 6 8 10 11 10 2 0 4
-4 4 -10z m-1260 -19 c2 0 -1 -6 -7 -12 -8 -8 -17 -8 -31 0 -16 8 -24 8 -36
-4 -13 -14 -15 -13 -13 4 1 15 8 18 42 16 22 -1 42 -3 45 -4z m-64 -88 c0 -30
-3 -40 -13 -36 -7 3 -13 9 -13 15 0 5 5 6 10 3 6 -3 10 -2 10 4 0 5 -6 12 -12
15 -10 5 -10 7 0 12 6 3 12 10 12 15 0 6 -4 7 -10 4 -5 -3 -10 -1 -10 5 0 7 6
10 12 8 8 -3 13 -22 14 -45z m1478 -59 c6 -15 4 -15 -11 -3 -10 7 -20 15 -22
16 -2 2 3 3 11 3 9 0 19 -7 22 -16z m-1645 -254 c-19 -16 -21 -21 -10 -29 8
-5 9 -11 3 -15 -5 -3 -13 1 -16 11 -7 16 19 53 37 53 5 0 -1 -9 -14 -20z
m1865 -106 c3 -8 2 -12 -4 -9 -6 3 -10 10 -10 16 0 14 7 11 14 -7z m-1913
-208 c-9 -11 -9 -15 0 -18 8 -3 7 -7 -3 -15 -11 -10 -14 -8 -14 10 0 12 5 25
10 29 17 12 20 9 7 -6z m-96 -46 c3 -5 1 -10 -4 -10 -6 0 -11 5 -11 10 0 6 2
10 4 10 3 0 8 -4 11 -10z m65 -11 c0 -5 -4 -7 -10 -4 -15 9 -12 -5 5 -22 9 -8
14 -20 12 -26 -5 -15 -27 -21 -27 -7 0 6 5 8 10 5 6 -3 10 -1 10 4 0 6 -4 11
-9 11 -12 0 -23 29 -15 41 7 12 24 11 24 -2z m29 -15 c4 3 7 -3 6 -12 -3 -30
-16 -62 -26 -62 -5 0 -3 10 5 23 10 15 12 27 6 37 -5 8 -9 20 -9 25 0 6 3 4 6
-3 2 -6 8 -10 12 -8z m-72 -336 c0 -7 4 -22 7 -33 5 -13 2 -11 -7 5 -9 14 -13
28 -11 32 7 11 11 10 11 -4z m196 -41 c3 -7 -3 -13 -14 -14 -15 -1 -16 1 -6
12 15 18 14 18 20 2z m1592 -117 c-3 -5 -1 -10 5 -10 6 0 8 -5 4 -11 -4 -8 -9
-7 -15 2 -12 19 -11 29 2 29 5 0 7 -4 4 -10z m125 -74 c0 -3 -4 -8 -10 -11 -5
-3 -10 -1 -10 4 0 6 5 11 10 11 6 0 10 -2 10 -4z m-1487 -103 c-5 -13 -3 -15
13 -9 15 6 17 5 7 -5 -15 -15 -40 2 -29 20 11 17 16 13 9 -6z m1314 -29 c-7
-7 -37 7 -37 17 0 6 9 5 21 -1 11 -7 19 -14 16 -16z m-979 -148 c0 -14 -7 -27
-14 -30 -8 -3 -14 -1 -14 4 0 6 4 10 9 10 6 0 8 9 6 20 -2 11 0 20 4 20 5 0 9
-11 9 -24z m482 -36 c0 -5 -4 -10 -10 -10 -5 0 -10 5 -10 10 0 6 5 10 10 10 6
0 10 -4 10 -10z m-327 -33 c3 -8 -1 -14 -8 -14 -7 0 -11 6 -8 14 3 7 6 13 8
13 2 0 5 -6 8 -13z"/>
<path d="M1359 2008 c-9 -16 -6 -25 14 -47 13 -14 23 -31 21 -36 -2 -6 5 -11
16 -12 17 -2 18 1 10 17 -6 10 -15 22 -20 25 -6 4 -7 11 -4 17 5 7 1 9 -9 5
-12 -4 -14 -2 -10 10 4 11 2 14 -5 9 -8 -5 -10 -2 -5 10 5 15 7 15 16 -1 8
-14 11 -15 18 -4 13 21 11 25 -11 26 -11 1 -25 -7 -31 -19z"/>
<path d="M1264 1972 c-9 -13 -8 -20 2 -30 19 -17 29 -15 14 3 -9 10 -9 15 -1
15 6 0 11 7 11 15 0 20 -13 19 -26 -3z"/>
<path d="M310 1966 c7 -7 13 -7 20 0 6 6 3 10 -10 10 -13 0 -16 -4 -10 -10z"/>
<path d="M1431 1966 c-9 -10 -9 -20 -2 -34 7 -13 7 -22 -1 -30 -7 -7 -8 -12
-2 -13 5 0 19 -2 31 -3 12 -1 21 0 20 3 -1 3 5 16 14 29 14 20 17 21 23 6 5
-12 10 -13 19 -6 9 8 17 8 27 0 12 -8 12 -9 -2 -4 -20 6 -24 -4 -7 -21 9 -9
15 -8 26 3 10 9 20 11 31 5 11 -6 24 -6 35 0 19 11 37 4 36 -14 0 -9 -2 -9 -6
1 -2 6 -9 12 -14 12 -6 0 -8 -4 -4 -9 7 -12 -36 -10 -52 2 -18 14 -17 -8 2
-23 8 -6 19 -9 24 -5 6 3 8 0 5 -8 -3 -10 2 -14 18 -13 13 1 28 -2 35 -7 14
-10 33 -1 33 16 0 7 -4 6 -11 -3 -9 -12 -10 -12 -5 4 5 13 2 17 -8 13 -10 -4
-13 -1 -9 9 5 13 8 12 25 -2 10 -10 17 -23 14 -30 -6 -15 23 -56 34 -49 5 3
11 -3 15 -14 3 -11 12 -24 19 -30 11 -9 14 -6 14 13 0 14 -6 24 -12 23 -6 -1
-11 12 -10 31 0 24 -4 31 -14 27 -7 -3 -16 -5 -18 -5 -2 0 -4 -5 -4 -11 0 -5
5 -7 10 -4 6 3 10 1 10 -5 0 -7 -6 -10 -12 -7 -7 2 -12 13 -11 25 1 11 -4 26
-12 32 -8 7 -15 17 -15 23 0 5 10 -2 23 -17 13 -14 26 -24 30 -20 4 4 -19 27
-51 50 -31 24 -62 48 -68 53 -7 6 -15 7 -18 4 -3 -4 -6 -1 -6 6 0 7 -4 10 -10
6 -5 -3 -7 -12 -4 -20 8 -21 -31 -38 -56 -25 -11 6 -25 8 -30 5 -5 -3 -11 -1
-15 4 -8 14 -46 9 -41 -5 3 -7 -1 -17 -8 -24 -10 -8 -15 -7 -19 4 -4 11 -1 13
11 9 15 -6 15 -5 3 10 -7 9 -18 14 -25 10 -6 -4 -5 1 3 10 8 10 12 20 9 22 -3
3 -11 -1 -17 -9z m246 -37 c19 -12 32 -23 29 -26 -3 -3 -15 2 -27 11 -16 11
-27 12 -41 5 -11 -6 -22 -8 -26 -5 -3 3 0 6 6 6 7 0 11 3 11 8 -5 28 4 28 48
1z m-7 -69 c0 -5 -2 -10 -4 -10 -3 0 -8 5 -11 10 -3 6 -1 10 4 10 6 0 11 -4
11 -10z"/>
<path d="M470 1935 c-7 -8 -17 -12 -24 -8 -21 14 -35 11 -29 -5 4 -8 2 -13 -3
-10 -5 4 -17 0 -27 -7 -18 -13 -24 -37 -15 -65 3 -8 3 -12 1 -7 -3 4 -12 7
-21 7 -10 0 -13 3 -7 8 6 4 11 14 13 22 1 10 -3 8 -13 -5 -9 -11 -21 -20 -28
-20 -7 -1 -11 -7 -9 -14 1 -7 -3 -19 -9 -27 -7 -8 -7 -14 -1 -14 5 0 16 10 24
22 8 12 19 18 26 14 15 -9 16 -26 1 -26 -5 0 -7 5 -4 10 3 6 2 10 -3 10 -5 0
-15 -11 -22 -25 -8 -14 -18 -22 -24 -17 -29 20 -70 -9 -114 -80 -9 -16 -20
-28 -24 -28 -4 0 -8 -10 -8 -22 0 -12 3 -19 6 -15 3 3 14 -3 25 -14 24 -24 34
-24 36 2 1 15 -1 18 -10 10 -18 -14 -44 26 -27 43 9 8 11 6 8 -8 -1 -10 3 -21
10 -23 8 -3 10 1 6 12 -4 10 3 7 20 -9 30 -31 33 -38 11 -29 -9 3 -15 2 -14
-3 5 -29 -1 -35 -22 -20 -12 8 -29 12 -38 9 -10 -3 -12 -2 -5 4 8 5 5 13 -12
26 -17 13 -22 14 -18 3 3 -8 0 -17 -5 -21 -6 -3 -9 -11 -6 -16 4 -5 0 -12 -8
-15 -9 -3 -21 -19 -27 -35 -7 -16 -15 -27 -19 -25 -3 2 -7 -9 -8 -25 -2 -31 8
-37 26 -15 9 11 9 15 -1 20 -10 5 -10 7 0 12 6 3 10 9 7 13 -2 5 7 8 22 7 14
0 28 4 30 10 2 7 -6 10 -22 9 -14 -2 -23 1 -20 5 3 5 12 7 21 3 9 -3 14 0 12
8 -4 15 59 22 68 7 3 -5 -1 -17 -10 -27 -9 -10 -14 -25 -11 -33 7 -19 -28 -50
-48 -43 -9 4 -14 16 -12 31 1 15 -2 23 -9 21 -6 -2 -10 -12 -9 -23 1 -10 -6
-24 -15 -32 -16 -13 -16 -13 1 -8 10 3 27 1 38 -5 16 -8 25 -5 49 20 17 16 28
35 25 43 -2 7 9 29 25 48 17 19 30 29 30 23 0 -7 -5 -15 -10 -18 -19 -12 -10
-23 15 -20 29 3 42 12 31 22 -4 4 -11 2 -15 -5 -4 -7 -7 23 -6 65 1 43 0 82
-3 88 -9 14 -12 61 -4 49 10 -15 114 -13 108 2 -3 7 5 10 20 8 16 -1 24 2 21
9 -2 7 -12 11 -22 9 -16 -3 -16 -2 -3 11 8 9 23 15 33 14 10 -1 20 3 22 9 2 7
-6 10 -21 9 -23 -3 -44 20 -31 33 3 3 5 1 5 -5 0 -15 34 -22 54 -11 13 7 22 5
35 -6 23 -21 28 -20 34 4 3 12 -3 29 -15 43 -20 22 -20 22 -2 -30 4 -13 3 -14
-3 -5 -11 15 -40 18 -64 8 -19 -8 -46 18 -29 29 6 4 9 1 8 -6 -2 -6 3 -14 11
-17 8 -2 11 0 8 5 -3 5 -1 15 4 23 8 13 11 12 20 -2 5 -10 14 -18 18 -18 5 0
8 8 7 18 -1 12 5 16 18 14 17 -3 18 -2 7 12 -16 19 -16 19 -31 1z m-120 -149
c0 -3 -4 -8 -10 -11 -5 -3 -10 -1 -10 4 0 6 5 11 10 11 6 0 10 -2 10 -4z
m-109 -45 c-9 -6 -10 -11 -2 -15 6 -4 11 -13 11 -19 0 -7 -7 -3 -15 7 -15 20
-12 36 8 36 8 0 8 -3 -2 -9z m9 -67 c0 -3 -4 -2 -10 1 -5 3 -10 1 -10 -4 0 -6
5 -11 10 -11 6 0 10 -5 10 -11 0 -8 -5 -8 -15 1 -8 7 -14 19 -13 28 2 8 -3 17
-11 20 -9 3 -11 0 -6 -8 5 -9 4 -11 -4 -6 -9 6 -9 11 -1 21 9 11 15 10 31 -6
10 -10 19 -22 19 -25z m-110 -64 c0 -5 -5 -10 -11 -10 -5 0 -7 5 -4 10 3 6 8
10 11 10 2 0 4 -4 4 -10z"/>
<path d="M516 1916 c3 -17 5 -38 5 -46 0 -9 9 -16 20 -16 23 0 25 14 4 22 -8
4 -12 10 -9 15 3 5 0 9 -5 9 -8 0 -7 6 1 19 11 18 13 18 23 4 8 -11 14 -12 19
-5 4 6 14 8 24 5 9 -3 14 -2 9 2 -4 5 -17 9 -30 11 -12 1 -22 3 -22 4 0 2 -10
4 -22 5 -20 2 -22 -1 -17 -29z"/>
<path d="M1340 1930 c0 -15 29 -19 39 -6 9 11 6 14 -14 14 -14 0 -25 -4 -25
-8z"/>
<path d="M1510 1870 c0 -5 5 -10 10 -10 6 0 10 5 10 10 0 6 -4 10 -10 10 -5 0
-10 -4 -10 -10z"/>
<path d="M1800 1850 c-1 -3 -4 -17 -5 -32 -3 -23 0 -26 21 -23 13 1 27 -2 31
-8 3 -6 1 -7 -4 -4 -6 4 -17 -1 -24 -10 -12 -14 -11 -15 9 -9 14 5 22 3 22 -4
0 -6 -4 -9 -9 -5 -5 3 -17 -5 -25 -17 -13 -19 -14 -25 -2 -43 7 -11 17 -18 21
-17 12 6 25 -21 20 -39 -3 -9 2 -22 12 -30 15 -12 16 -12 10 4 -7 18 11 57 26
57 4 0 1 -10 -7 -22 -10 -13 -12 -27 -7 -37 5 -9 8 -27 7 -41 -1 -19 -6 -24
-23 -23 -22 3 -22 2 -6 -32 16 -33 33 -46 33 -25 0 6 -4 10 -10 10 -5 0 -1 13
8 30 9 16 20 30 25 30 4 0 7 5 7 11 0 5 -4 7 -10 4 -19 -12 -10 7 13 26 12 10
17 18 10 19 -6 0 -15 -5 -19 -11 -5 -8 -10 -6 -16 5 -10 18 -3 36 15 36 7 0 6
-4 -3 -10 -8 -5 -11 -12 -7 -16 4 -4 15 0 24 9 15 15 15 17 0 23 -9 3 -14 10
-11 15 3 5 15 -2 26 -16 10 -14 24 -25 29 -25 10 0 -19 36 -66 84 -16 17 -29
33 -27 35 2 3 -1 7 -7 9 -18 6 -13 -13 10 -39 12 -13 26 -23 33 -21 7 2 7 0
-1 -9 -10 -10 -16 -7 -32 12 -11 13 -20 19 -21 12 0 -6 4 -14 10 -18 5 -3 6
-13 3 -21 -10 -28 -20 4 -18 57 2 43 -1 52 -25 72 -15 13 -30 30 -33 38 -3 8
-6 12 -7 9z m50 -120 c0 -5 -4 -10 -10 -10 -5 0 -10 -5 -10 -11 0 -5 5 -7 10
-4 6 3 10 1 10 -4 0 -13 -17 -14 -24 -2 -8 12 3 41 15 41 5 0 9 -4 9 -10z"/>
<path d="M275 1809 c-11 -17 1 -21 15 -4 8 9 8 15 2 15 -6 0 -14 -5 -17 -11z"/>
<path d="M408 1807 c15 -18 7 -41 -10 -31 -6 4 -9 1 -7 -5 6 -18 22 -15 37 8
12 17 11 21 -10 32 -21 11 -22 11 -10 -4z"/>
<path d="M1716 1772 c3 -9 6 -26 6 -37 -1 -15 1 -17 8 -5 7 11 12 9 29 -11 11
-13 19 -29 16 -36 -2 -7 5 -11 16 -10 21 1 23 6 9 27 -5 8 -10 11 -10 5 0 -5
-5 -3 -10 5 -5 8 -7 22 -5 30 7 23 -10 42 -40 45 -21 3 -25 0 -19 -13z m49
-20 c-6 -7 -34 11 -29 19 3 5 11 3 19 -4 7 -6 12 -13 10 -15z"/>
<path d="M1780 1730 c0 -5 5 -10 10 -10 6 0 10 5 10 10 0 6 -4 10 -10 10 -5 0
-10 -4 -10 -10z"/>
<path d="M1835 1650 c3 -5 8 -10 11 -10 2 0 4 5 4 10 0 6 -5 10 -11 10 -5 0
-7 -4 -4 -10z"/>
<path d="M1953 1627 c3 -9 0 -23 -8 -31 -8 -7 -11 -16 -8 -20 3 -3 -2 -15 -12
-26 -10 -11 -19 -35 -20 -53 -3 -36 11 -70 25 -62 5 3 11 -4 15 -15 4 -11 10
-18 15 -15 12 8 -13 56 -27 50 -7 -2 -15 0 -18 5 -3 4 7 6 22 4 16 -2 45 -5
65 -6 21 0 35 -5 33 -9 -3 -4 -21 -6 -40 -5 -39 4 -46 -8 -15 -24 13 -7 26 -7
38 -1 17 9 19 6 17 -24 -2 -19 0 -35 4 -35 4 0 8 32 8 70 0 39 -4 70 -9 70 -4
0 -7 -5 -5 -11 1 -6 -5 -14 -13 -16 -9 -3 -11 -1 -5 4 20 16 13 30 -14 30 -17
0 -28 -6 -28 -14 0 -9 6 -12 16 -8 12 5 13 3 5 -5 -8 -8 -18 -9 -30 -2 -11 5
-26 8 -34 5 -9 -2 -8 1 4 9 10 7 28 20 39 29 21 16 21 17 -6 17 -15 0 -24 -4
-22 -8 6 -9 -25 -23 -33 -15 -3 3 0 5 6 5 6 0 14 9 17 21 4 13 11 17 18 11 7
-5 28 -8 47 -7 19 1 29 0 22 -2 -10 -4 -10 -8 -1 -19 6 -8 16 -14 21 -14 6 0
4 7 -3 17 -8 9 -13 18 -11 20 7 9 -30 62 -54 78 -23 15 -26 15 -21 2z m23 -42
c1 -14 -2 -25 -8 -25 -5 0 -6 5 -3 10 3 6 1 10 -6 10 -8 0 -8 4 1 15 16 19 15
19 16 -10z m34 -17 c0 -19 -16 -5 -17 14 -2 18 0 20 7 8 5 -8 10 -18 10 -22z"/>
<path d="M1836 1611 c-4 -5 3 -12 14 -16 11 -3 19 -9 19 -13 -3 -17 2 -32 10
-32 5 0 9 11 9 25 0 14 -3 23 -6 20 -3 -3 -13 2 -23 11 -10 9 -19 11 -23 5z"/>
<path d="M143 1562 c15 -16 15 -19 -3 -29 -18 -12 -18 -53 0 -53 13 0 33 30
26 37 -4 4 -11 1 -16 -7 -6 -8 -10 -10 -10 -5 0 6 12 23 26 38 14 16 23 31 19
35 -3 3 -10 0 -14 -7 -6 -9 -11 -10 -15 -2 -4 6 -12 11 -18 11 -6 0 -4 -8 5
-18z"/>
<path d="M204 1538 c-11 -18 13 -33 31 -18 8 7 15 15 15 19 0 11 -39 11 -46
-1z"/>
<path d="M1990 1520 c0 -5 5 -10 10 -10 6 0 10 5 10 10 0 6 -4 10 -10 10 -5 0
-10 -4 -10 -10z"/>
<path d="M33 1459 c-1 -11 -8 -33 -17 -49 -8 -17 -11 -30 -6 -30 4 0 10 7 14
15 3 8 12 12 21 9 9 -4 15 -3 14 2 -4 21 2 30 21 30 11 0 20 -4 20 -8 0 -4 -9
-8 -20 -8 -11 0 -19 -3 -19 -7 5 -28 -1 -35 -18 -22 -15 12 -16 12 -10 -4 4
-10 7 -21 7 -23 0 -3 3 -3 8 -1 4 3 8 -7 8 -21 1 -15 -1 -21 -3 -14 -3 6 -9
10 -14 7 -5 -4 -6 1 -3 10 4 10 1 14 -7 12 -8 -2 -11 -2 -6 0 14 8 7 22 -8 17
-24 -9 -18 -28 15 -48 17 -9 41 -28 54 -40 23 -23 23 -24 3 -50 -21 -29 -18
-42 7 -33 9 4 13 12 10 20 -3 8 2 20 11 27 16 13 21 35 6 26 -4 -3 -19 6 -31
19 -14 15 -18 25 -11 25 9 0 10 4 4 13 -5 6 -10 23 -11 37 -1 21 1 23 9 8 6
-10 14 -18 18 -18 5 0 11 8 15 18 3 9 9 24 12 32 5 13 4 13 -6 0 -10 -13 -11
-13 -9 0 4 38 -1 52 -17 46 -9 -4 -27 0 -38 8 -20 12 -22 12 -23 -5z m9 -31
c-8 -8 -9 -4 -5 13 4 13 8 18 11 10 2 -7 -1 -18 -6 -23z m56 -43 c-3 -3 -9 2
-12 12 -6 14 -5 15 5 6 7 -7 10 -15 7 -18z"/>
<path d="M159 1454 c-7 -8 -18 -13 -26 -10 -16 7 -17 -10 -1 -20 6 -4 19 2 28
14 10 12 20 19 23 15 4 -3 -4 -14 -16 -23 -12 -10 -19 -22 -15 -26 8 -7 58 40
58 54 0 14 -39 11 -51 -4z"/>
<path d="M1990 1214 c0 -6 9 -19 20 -29 17 -15 18 -20 7 -26 -28 -16 -8 -129
22 -129 4 0 7 36 7 80 0 49 -4 79 -11 77 -5 -2 -17 6 -27 17 -10 12 -17 16
-18 10z m50 -68 c0 -2 -7 -7 -16 -10 -8 -3 -12 -2 -9 4 6 10 25 14 25 6z m-4
-41 c1 -14 -2 -25 -6 -25 -6 0 -7 36 -1 48 4 7 6 -1 7 -23z m-1 -45 c3 -6 -1
-7 -9 -4 -18 7 -21 14 -7 14 6 0 13 -4 16 -10z"/>
<path d="M90 1159 c0 -5 -4 -7 -10 -4 -5 3 -10 2 -10 -3 0 -5 12 -14 27 -21
23 -11 25 -10 14 3 -7 8 -10 20 -6 26 3 5 1 10 -4 10 -6 0 -11 -5 -11 -11z"/>
<path d="M34 1078 c2 -16 7 -32 11 -36 4 -4 6 0 4 8 -2 8 2 25 9 37 11 19 10
22 -8 20 -15 -1 -18 -7 -16 -29z"/>
<path d="M2030 1005 c0 -8 5 -15 10 -15 6 0 10 7 10 15 0 8 -4 15 -10 15 -5 0
-10 -7 -10 -15z"/>
<path d="M2020 970 c6 -11 15 -20 20 -20 12 0 9 22 -5 32 -19 14 -26 8 -15
-12z"/>
<path d="M23 799 c-2 -17 1 -18 13 -9 14 12 20 3 15 -24 -1 -5 5 -6 13 -3 11
4 13 1 9 -11 -6 -15 -4 -15 10 -4 8 8 13 20 10 28 -3 8 0 14 6 14 6 0 10 -5 8
-11 -1 -6 3 -13 8 -15 6 -2 11 4 12 15 1 11 -6 21 -18 24 -30 8 -34 7 -31 -9
2 -11 -3 -9 -17 5 -26 26 -36 26 -38 0z"/>
<path d="M1990 806 c0 -9 -3 -16 -8 -16 -4 0 -7 -22 -7 -50 0 -27 3 -50 7 -50
9 0 11 11 10 53 -1 35 4 34 23 -3 9 -16 20 -30 25 -30 16 0 7 23 -21 52 -18
17 -23 30 -17 36 6 6 6 12 -1 16 -6 4 -11 0 -11 -8z"/>
<path d="M3 766 c0 -24 8 -31 31 -27 5 1 16 -4 25 -12 31 -27 40 -28 38 -7 -1
12 -7 18 -13 16 -7 -3 -18 2 -25 10 -7 8 -21 12 -33 9 -18 -5 -17 -3 4 10 14
9 18 14 9 11 -9 -2 -21 0 -27 6 -6 6 -9 1 -9 -16z"/>
<path d="M2004 728 c6 -21 -17 -53 -32 -44 -6 4 -8 14 -5 24 6 15 5 15 -11 3
-16 -13 -16 -16 -2 -26 11 -9 12 -15 4 -23 -8 -8 -8 -15 2 -27 10 -12 10 -18
0 -30 -7 -9 -19 -14 -26 -11 -16 6 -28 -10 -19 -24 6 -10 43 6 58 25 4 6 7 2
5 -9 -2 -10 2 -21 9 -23 11 -4 9 39 -3 59 -10 15 7 30 21 18 17 -14 40 -4 42
19 2 24 -25 23 -62 -2 l-30 -20 30 30 c19 19 34 26 42 21 6 -5 14 -5 18 2 3 5
0 10 -8 10 -8 0 -19 10 -26 23 -6 12 -10 15 -7 5z m26 -72 c0 -3 -4 -8 -10
-11 -5 -3 -10 -1 -10 4 0 6 5 11 10 11 6 0 10 -2 10 -4z"/>
<path d="M0 719 c0 -6 4 -8 9 -4 5 3 13 -4 16 -15 5 -17 9 -19 21 -9 8 7 13
17 11 23 -5 14 -57 18 -57 5z"/>
<path d="M3 676 c0 -18 4 -23 16 -19 13 5 14 3 4 -8 -18 -19 -16 -34 2 -19 19
16 19 39 0 46 -8 4 -12 10 -9 15 3 5 1 9 -4 9 -5 0 -9 -11 -9 -24z"/>
<path d="M2030 616 c0 -23 16 -27 17 -5 1 10 -2 19 -8 19 -5 0 -9 -6 -9 -14z"/>
<path d="M122 590 c-33 -20 -44 -37 -17 -26 8 3 21 -1 29 -9 12 -12 16 -12 25
-1 8 10 9 16 1 21 -5 3 -10 1 -10 -5 0 -6 -5 -8 -11 -5 -6 5 -4 12 8 20 30 22
10 26 -25 5z"/>
<path d="M50 530 c0 -5 5 -10 11 -10 5 0 7 5 4 10 -3 6 -8 10 -11 10 -2 0 -4
-4 -4 -10z"/>
<path d="M1953 489 c3 -9 0 -22 -6 -28 -8 -8 -8 -11 0 -11 19 0 25 18 13 37
-9 15 -11 15 -7 2z"/>
<path d="M141 466 c-9 -11 -6 -17 15 -30 18 -12 23 -22 18 -34 -15 -36 10
-118 28 -90 5 10 8 8 8 -4 0 -22 30 -59 42 -52 7 5 12 -10 9 -28 -1 -8 16 -12
34 -8 42 9 54 8 71 -6 15 -12 15 -15 2 -10 -9 2 -24 -4 -35 -16 -18 -21 -18
-21 7 -8 22 12 23 11 13 -1 -10 -12 -6 -20 23 -44 20 -17 40 -30 45 -30 5 0
13 -6 18 -13 9 -15 42 -13 53 3 4 6 22 10 39 10 18 0 34 6 37 14 3 10 0 11 -9
5 -12 -6 -12 -5 0 9 22 28 14 31 -75 24 -27 -2 -40 1 -38 8 3 6 -5 11 -17 12
-16 2 -18 -1 -10 -11 9 -10 8 -15 -4 -20 -9 -3 -13 -11 -9 -17 5 -8 3 -9 -5
-4 -9 5 -10 10 -2 18 17 17 13 31 -4 17 -13 -10 -18 -11 -28 -1 -9 10 -8 11 8
5 17 -7 18 -6 7 8 -10 13 -10 17 5 23 16 6 15 9 -8 29 -19 16 -37 22 -67 20
-23 -1 -40 1 -39 5 3 12 -24 51 -35 51 -9 0 -9 -3 0 -12 7 -7 12 -17 12 -22
-1 -16 -24 27 -25 44 0 8 -7 15 -15 15 -20 0 -30 16 -25 41 2 10 4 23 4 27 1
5 6 5 13 1 7 -5 9 -2 6 8 -4 8 -2 21 4 29 8 11 9 11 5 -3 -3 -9 1 -22 9 -29
12 -10 18 -9 32 5 16 17 16 18 -5 11 -15 -4 -23 -2 -23 6 0 7 3 9 7 6 3 -4 12
-2 20 4 13 12 18 2 14 -29 -1 -7 4 -11 11 -10 14 3 20 -40 7 -63 -5 -10 -3
-24 7 -37 8 -12 11 -22 7 -22 -15 0 -33 39 -26 57 5 17 5 17 -12 1 -17 -16
-17 -18 3 -46 17 -23 27 -28 49 -25 16 3 36 5 46 6 21 2 22 11 3 26 -10 9 -15
8 -20 -4 -3 -8 -11 -15 -18 -15 -9 0 -8 3 2 10 8 5 12 10 8 10 -5 0 1 9 12 20
11 11 20 24 20 29 0 15 -43 7 -47 -9 -4 -12 -3 -12 5 -1 7 9 12 10 16 2 7 -10
-6 -16 -28 -12 -5 1 -6 -5 -2 -14 3 -10 2 -14 -5 -10 -6 4 -7 14 -4 24 15 35
11 64 -10 96 -13 18 -21 36 -17 39 3 3 1 6 -4 6 -6 0 -15 -5 -21 -11 -8 -8
-17 -8 -33 1 -12 7 -20 8 -16 2 12 -20 -19 -29 -36 -10 -10 10 -13 18 -8 18 6
0 10 5 10 10 0 14 -16 12 -29 -4z m401 -323 c-6 -2 -9 -10 -5 -16 4 -6 0 -8
-9 -5 -8 4 -28 -2 -44 -11 -29 -18 -30 -18 -47 6 -10 12 -14 23 -9 23 6 0 12
-7 16 -15 3 -8 11 -15 17 -15 8 0 8 4 -1 15 -9 10 -9 15 -1 15 6 0 11 -4 11
-10 0 -5 5 -10 11 -10 5 0 7 5 3 12 -5 7 -2 9 8 6 8 -4 21 -2 29 3 8 5 19 8
24 8 6 0 4 -3 -3 -6z"/>
<path d="M2000 460 c0 -5 5 -10 11 -10 5 0 7 5 4 10 -3 6 -8 10 -11 10 -2 0
-4 -4 -4 -10z"/>
<path d="M142 379 c-8 -12 -9 -18 -4 -15 6 3 12 0 15 -6 2 -7 4 -1 4 15 0 15
0 27 -1 27 -1 0 -7 -9 -14 -21z"/>
<path d="M323 375 c0 -21 2 -23 14 -14 8 7 10 15 6 18 -4 4 -11 10 -14 14 -4
4 -6 -4 -6 -18z"/>
<path d="M203 381 c-18 -13 -11 -37 14 -48 22 -11 29 -10 43 2 9 8 19 13 22
10 3 -3 6 5 6 17 0 21 -5 24 -39 24 -21 0 -42 -2 -46 -5z m38 -31 c5 0 9 8 9
18 0 14 2 15 10 2 6 -10 5 -17 -5 -22 -21 -12 -45 1 -37 20 6 16 7 15 10 0 2
-10 8 -18 13 -18z"/>
<path d="M1873 359 c-2 -17 1 -18 12 -9 8 7 12 16 9 21 -9 16 -20 10 -21 -12z"/>
<path d="M1831 347 c-6 -6 -17 -12 -24 -13 -23 -2 -57 -16 -57 -24 0 -4 12 -8
28 -9 53 -1 62 -2 68 -13 3 -5 1 -15 -6 -21 -10 -9 -12 -8 -6 6 4 13 2 17 -6
15 -7 -3 -14 -16 -16 -29 -1 -13 -3 -29 -4 -36 -1 -7 -5 -10 -9 -7 -4 2 -10 0
-14 -6 -4 -6 4 -10 18 -10 14 0 28 7 31 16 3 8 2 12 -4 9 -5 -3 -7 1 -4 9 3 8
12 12 20 9 7 -3 21 2 29 11 19 19 6 22 -15 4 -12 -11 -12 -10 -1 5 12 15 11
20 -4 37 -10 11 -22 17 -26 14 -5 -3 -17 0 -26 6 -17 11 -17 11 1 6 10 -4 26
-1 34 6 12 10 14 10 8 1 -4 -7 -3 -13 3 -13 17 0 21 17 8 29 -10 8 -17 7 -26
-2z"/>
<path d="M1714 337 c-3 -9 -15 -19 -26 -23 -23 -7 -16 -17 12 -19 11 -1 18 0
15 3 -2 3 0 13 6 24 6 11 8 22 5 25 -3 3 -8 -1 -12 -10z"/>
<path d="M1874 329 c-16 -18 -17 -21 -1 -36 15 -15 18 -15 35 0 10 9 18 24 19
35 2 25 -31 26 -53 1z m20 -11 c-6 -21 -6 -22 12 -8 17 14 18 14 6 -2 -19 -24
-45 -13 -29 13 16 25 20 24 11 -3z"/>
<path d="M390 310 c0 -5 5 -10 10 -10 6 0 10 5 10 10 0 6 -4 10 -10 10 -5 0
-10 -4 -10 -10z"/>
<path d="M1790 279 c0 -5 5 -7 10 -4 6 3 10 8 10 11 0 2 -4 4 -10 4 -5 0 -10
-5 -10 -11z"/>
<path d="M385 261 c-3 -6 -13 -7 -23 -4 -9 3 -14 3 -10 -2 10 -11 58 -15 58
-5 0 14 -18 21 -25 11z"/>
<path d="M421 251 c-7 -12 -16 -19 -22 -16 -5 4 -9 2 -9 -4 0 -5 5 -13 11 -17
8 -4 8 -9 0 -17 -16 -16 -14 -32 2 -18 14 11 56 7 66 -6 12 -17 39 -13 44 6 6
25 -12 40 -53 46 -24 3 -30 0 -26 -11 3 -8 1 -14 -3 -14 -5 0 -11 7 -15 15 -5
13 5 20 27 16 9 -1 9 11 -2 28 -7 11 -11 9 -20 -8z m65 -51 c8 0 14 -4 14 -10
0 -6 -10 -5 -25 2 -13 6 -21 16 -18 21 5 8 8 7 11 -1 2 -7 10 -12 18 -12z"/>
<path d="M500 233 c0 -6 6 -16 14 -23 8 -6 12 -19 9 -27 -4 -11 -2 -14 5 -9
16 10 55 -13 48 -29 -2 -7 4 -21 15 -31 10 -9 19 -12 19 -6 0 6 -4 13 -9 17
-6 3 -9 14 -8 25 1 10 5 16 9 14 5 -3 7 -13 6 -21 -2 -9 3 -18 11 -21 8 -3 11
0 7 6 -3 6 1 17 9 26 14 13 13 15 -2 15 -47 1 -66 9 -98 40 -19 19 -35 29 -35
24z"/>
<path d="M306 203 c-7 -18 19 -16 34 1 9 12 8 15 -9 13 -11 -1 -23 -7 -25 -14z"/>
<path d="M1587 204 c-11 -11 -8 -26 3 -19 6 4 7 -1 3 -11 -5 -15 -7 -15 -16 1
-8 14 -11 15 -18 4 -13 -21 -11 -25 11 -26 23 -2 47 34 33 48 -5 5 -12 6 -16
3z"/>
<path d="M1640 171 c0 -5 -8 -17 -17 -26 -21 -22 -26 -64 -7 -72 7 -3 11 -9 8
-15 -3 -5 3 -4 15 4 12 7 21 16 21 21 0 4 6 5 13 1 8 -6 8 -3 -1 9 -8 9 -11
20 -8 25 3 6 -1 15 -9 22 -7 6 -11 18 -8 26 3 8 2 14 -1 14 -3 0 -6 -4 -6 -9z
m7 -69 c-1 -15 -7 -25 -12 -22 -6 3 -9 12 -7 20 2 8 4 20 4 27 3 25 17 1 15
-25z"/>
<path d="M1701 161 c-11 -11 -21 -17 -24 -15 -2 3 -4 -7 -4 -21 0 -26 20 -34
33 -13 4 7 3 8 -5 4 -8 -6 -8 -1 1 18 11 25 12 25 30 10 10 -10 18 -12 18 -6
0 6 -5 14 -10 17 -6 4 -8 11 -5 16 11 17 -15 9 -34 -10z"/>
<path d="M633 134 c3 -4 -3 -18 -14 -32 -16 -21 -17 -28 -7 -44 15 -22 31 -25
37 -7 2 6 -1 9 -7 5 -20 -12 -24 15 -7 41 13 19 19 22 25 12 5 -7 6 -17 3 -22
-3 -5 0 -7 8 -5 8 3 22 -1 32 -10 13 -12 17 -12 17 -2 0 8 11 -1 25 -20 13
-18 22 -37 19 -41 -3 -5 0 -9 5 -9 6 0 11 5 11 10 0 6 7 10 15 10 8 0 15 5 15
11 0 6 -8 8 -19 4 -21 -6 -47 27 -36 45 4 6 -4 9 -17 6 -14 -2 -37 7 -59 25
-32 25 -64 41 -46 23z"/>
<path d="M1710 130 c0 -5 5 -10 10 -10 6 0 10 5 10 10 0 6 -4 10 -10 10 -5 0
-10 -4 -10 -10z"/>
<path d="M566 102 c-3 -5 -20 -8 -37 -6 -27 3 -30 2 -19 -11 10 -12 16 -13 26
-4 10 8 14 8 14 0 0 -6 5 -10 12 -8 19 4 20 -30 1 -37 -14 -6 -16 -5 -5 5 17
18 15 25 -7 26 -15 1 -18 -3 -14 -15 3 -11 0 -9 -11 5 -9 12 -25 21 -36 20
-26 -2 -26 -17 1 -17 13 0 18 -4 13 -12 -4 -6 -3 -8 4 -4 6 3 13 2 17 -3 8
-14 65 -41 65 -31 0 5 -6 10 -12 13 -7 3 -3 4 8 4 14 -1 20 -6 17 -14 -3 -7 0
-13 6 -13 6 0 11 6 11 13 0 7 3 8 8 2 9 -12 102 -17 102 -5 0 4 -11 7 -25 6
-13 -2 -22 1 -19 6 3 5 12 7 20 4 8 -3 14 -1 14 4 0 6 -5 10 -12 10 -6 0 -9 3
-5 6 12 12 -17 33 -30 22 -12 -10 -18 0 -14 25 2 14 -17 7 -23 -9 -8 -22 -8
-26 3 -19 5 3 12 1 15 -4 8 -12 -3 -41 -15 -41 -16 0 -44 40 -44 62 0 22 -19
36 -29 20z m110 -74 c-9 -12 -16 -19 -16 -15 0 11 24 47 28 42 2 -2 -3 -14
-12 -27z"/>
<path d="M1362 101 c-10 -6 -10 -10 3 -21 18 -15 42 0 31 19 -8 13 -16 14 -34
2z"/>
<path d="M1440 89 c-6 -11 -8 -24 -5 -29 4 -6 -1 -7 -12 -3 -16 6 -16 5 -5
-10 8 -8 20 -13 28 -10 8 3 14 0 14 -6 0 -6 -5 -10 -11 -8 -6 1 -13 -3 -15 -8
-3 -7 19 -11 56 -11 41 0 61 4 65 14 3 8 0 10 -7 6 -6 -4 -8 -3 -4 4 3 6 2 13
-4 17 -5 3 -10 1 -10 -5 0 -7 -8 -9 -19 -5 -13 4 -24 0 -31 -12 -11 -17 -11
-17 -6 0 3 10 0 20 -8 23 -12 4 -11 9 5 25 24 24 24 34 -1 36 -11 1 -25 -7
-30 -18z m24 2 c3 -5 -1 -11 -9 -14 -9 -4 -12 -1 -8 9 6 16 10 17 17 5z"/>
<path d="M1554 84 c3 -7 -5 -10 -19 -8 -18 1 -23 -3 -22 -16 1 -15 4 -16 14
-8 10 8 18 6 31 -9 16 -19 18 -19 36 -2 19 18 15 40 -7 35 -7 -1 -9 -1 -4 1
15 9 6 22 -13 20 -11 -1 -19 -6 -16 -13z m26 -34 c0 -5 -2 -10 -4 -10 -3 0 -8
5 -11 10 -3 6 -1 10 4 10 6 0 11 -4 11 -10z"/>
<path d="M1153 55 c0 -14 4 -28 8 -31 5 -3 7 -10 4 -15 -4 -5 -1 -9 4 -9 6 0
11 5 11 10 0 6 9 10 20 10 11 0 20 -4 20 -10 0 -5 5 -10 11 -10 5 0 8 4 4 9
-3 5 -1 13 5 16 6 4 10 3 9 -2 -3 -19 2 -27 10 -14 6 9 4 19 -4 28 -8 7 -11
21 -8 31 6 15 4 15 -15 -2 -12 -11 -22 -14 -22 -8 0 7 -5 12 -11 12 -6 0 -9
-7 -6 -15 8 -19 -12 -30 -26 -16 -9 9 -7 10 8 5 20 -7 20 -7 1 14 -24 27 -23
27 -23 -3z m82 -15 c-3 -5 -12 -10 -18 -10 -7 0 -6 4 3 10 19 12 23 12 15 0z"/>
<path d="M916 55 c-3 -8 -1 -15 4 -15 13 0 22 18 11 24 -5 3 -11 -1 -15 -9z"/>
<path d="M721 55 c0 -19 26 -58 33 -47 3 5 -3 21 -14 33 -11 13 -19 20 -19 14z"/>
<path d="M1066 41 c-12 -19 6 -37 34 -37 36 0 38 9 8 30 -26 18 -35 20 -42 7z"/>
<path d="M870 10 c0 -5 7 -10 15 -10 8 0 15 5 15 10 0 6 -7 10 -15 10 -8 0
-15 -4 -15 -10z"/>
</g>
</svg>
